<?xml version="1.0" encoding="UTF-8" standalone="no"?>
<svg
   xmlns:dc="http://purl.org/dc/elements/1.1/"
   xmlns:cc="http://creativecommons.org/ns#"
   xmlns:rdf="http://www.w3.org/1999/02/22-rdf-syntax-ns#"
   xmlns:svg="http://www.w3.org/2000/svg"
   xmlns="http://www.w3.org/2000/svg"
   viewBox="0 0 1440 1440"
   height="1440"
   width="1440"
   xml:space="preserve"
   id="svg2"
   version="1.1"><metadata
     id="metadata8"><rdf:RDF><cc:Work
         rdf:about=""><dc:format>image/svg+xml</dc:format><dc:type
           rdf:resource="http://purl.org/dc/dcmitype/StillImage" /></cc:Work></rdf:RDF></metadata><defs
     id="defs6"><clipPath
       id="clipPath42"
       clipPathUnits="userSpaceOnUse"><path
         id="path40"
         d="M 0,1080 H 1080 V 0 H 0 Z" /></clipPath></defs><g
     transform="matrix(1.3333333,0,0,-1.3333333,0,1440)"
     id="g10"><g
       transform="translate(546.3073,839.4004)"
       id="g12"><path
         id="path14"
         style="fill:#000000;fill-opacity:1;fill-rule:nonzero;stroke:none"
         d="m 0,0 -179.447,-51.316 -120.863,-130.135 -38.276,-176.653 54.943,-166.942 137.984,-120.389 166.869,-32.795 156.315,50.124 98.876,92.473 62.714,169.462 -30.383,167.542 -71.308,101.643 -81.694,59.189 z" /></g><g
       transform="translate(439.9687,493.3437)"
       id="g16"><path
         id="path18"
         style="fill:#ea5b0c;fill-opacity:1;fill-rule:nonzero;stroke:none"
         d="m 0,0 -127.91,18.284 -36.29,44.534 -20.766,68.999 -6.176,59.568 6.942,87.213 32.685,82.465 89.962,39.697 -29.433,-42.647 -12.042,-42.845 5.833,-73.215 37.039,-56.455 328.422,-121.563 47.313,-39.972 50.233,-41.788 20.969,-72.281 6.202,-93.287 -43.091,-64.767 -84.657,-25.989 z" /></g><g
       transform="translate(385.4953,899.9598)"
       id="g20"><path
         id="path22"
         style="fill:#000000;fill-opacity:1;fill-rule:nonzero;stroke:none"
         d="m 0,0 -16.177,-7.138 -80.936,-35.714 -1.874,-0.827 -0.755,-1.905 -32.171,-81.164 -0.276,-0.698 -0.06,-0.748 -6.893,-86.611 -0.037,-0.456 0.048,-0.456 6.127,-59.104 0.049,-0.471 0.137,-0.454 20.555,-68.298 0.286,-0.949 0.626,-0.769 35.36,-43.392 1.234,-1.514 1.934,-0.277 126.096,-18.025 263.574,-272.332 2.131,-2.202 2.929,0.9 82.338,25.276 1.707,0.524 0.989,1.486 42.128,63.319 0.938,1.411 -0.112,1.691 -6.128,92.17 -0.036,0.541 -0.151,0.52 -20.681,71.287 -0.427,1.471 -1.177,0.98 -49.658,41.309 -46.949,39.665 -0.67,0.566 -0.821,0.304 -327.241,121.125 -36.237,55.233 -5.745,72.131 11.808,42.014 24.174,35.028 z m -14.159,-11.713 -24.647,-35.713 -12.276,-43.675 5.919,-74.298 37.841,-57.678 328.783,-121.696 46.979,-39.69 49.657,-41.309 20.681,-71.287 6.128,-92.17 -42.128,-63.319 -82.338,-25.277 -264.765,273.562 -127.79,18.268 -35.36,43.392 -20.555,68.298 -6.128,59.104 6.894,86.61 32.17,81.165 z" /></g><g
       transform="translate(658.6989,153.4543)"
       id="g24"><path
         id="path26"
         style="fill:#000000;fill-opacity:1;fill-rule:nonzero;stroke:none"
         d="M 0,0 130.898,47.44 69.106,57.191 3.064,28.596 Z" /></g><g
       transform="translate(458.7236,136.1455)"
       id="g28"><path
         id="path30"
         style="fill:#ffce00;fill-opacity:1;fill-rule:nonzero;stroke:none"
         d="M 0,0 3.753,131.139 -56.132,16.634 -160,77.513 l 105.38,158.07 19.895,89.69 -36.61,35.134 83.029,34.07 147.659,0.303 48.158,-45.633 10.7,-84.558 42.672,-64.007 63.483,-135.588 -66.33,-12.788 -58.88,-32.949 -38.724,43.089 -40.806,79.205 V 0 Z" /></g><g
       transform="translate(619.0703,533.4283)"
       id="g32"><path
         id="path34"
         style="fill:#000000;fill-opacity:1;fill-rule:nonzero;stroke:none"
         d="m 0,0 -1.999,-0.004 -146.168,-0.302 -0.98,-0.002 -0.908,-0.372 -79.023,-32.425 -7.105,-2.916 5.541,-5.318 32.825,-31.5 -19.489,-87.863 -103.651,-155.477 -2.939,-4.408 4.571,-2.679 99.318,-58.213 4.527,-2.654 2.432,4.65 53.646,102.573 -3.37,-117.73 -0.147,-5.143 h 5.145 114.554 5 v 5 128.74 l 35.935,-69.753 0.296,-0.573 0.43,-0.479 37.173,-41.362 2.672,-2.973 3.488,1.952 56.784,31.777 62.783,12.102 6.304,1.215 -2.722,5.815 -62.043,132.511 -0.159,0.34 -0.209,0.313 -42.241,63.362 -10.515,83.088 -0.224,1.773 -1.297,1.229 -46.784,44.331 z m -1.988,-5.004 46.784,-44.332 10.662,-84.255 42.894,-64.34 62.043,-132.511 -63.575,-12.255 -57.487,-32.171 -37.173,41.362 -45.38,88.085 v -149.362 h -114.554 l 3.99,139.405 -63.694,-121.788 -99.319,58.213 104.17,156.256 20.3,91.519 -34.853,33.447 79.023,32.425 z" /></g><g
       id="g36"><g
         clip-path="url(#clipPath42)"
         id="g38"><g
           transform="translate(441.1256,707.5269)"
           id="g44"><path
             id="path46"
             style="fill:#ea5b0c;fill-opacity:1;fill-rule:nonzero;stroke:none"
             d="m 0,0 h -21.928 l -16.369,-9.532 -6.468,-16 28.255,-3.745 c 0,0 30.298,9.532 30.298,10.554 C 13.788,-17.702 0,0 0,0" /></g><g
           transform="translate(441.1256,707.5269)"
           id="g48"><path
             id="path50"
             style="fill:none;stroke:#000000;stroke-width:5;stroke-linecap:butt;stroke-linejoin:miter;stroke-miterlimit:10;stroke-dasharray:none;stroke-opacity:1"
             d="m 0,0 h -21.928 l -16.369,-9.532 -6.468,-16 28.255,-3.745 c 0,0 30.298,9.532 30.298,10.554 C 13.788,-17.702 0,0 0,0 Z" /></g><g
           transform="translate(446.209,559.4321)"
           id="g52"><path
             id="path54"
             style="fill:#ffce00;fill-opacity:1;fill-rule:nonzero;stroke:none"
             d="m 0,0 -93.93,68.22 44.698,61.929 18.328,-2.091 25.293,20.051 36.963,2.83 140.974,-5.631 43.398,-8.889 71.022,-79.9 -36.016,-90.568 z" /></g><g
           transform="translate(477.5155,712.875)"
           id="g56"><path
             id="path58"
             style="fill:#000000;fill-opacity:1;fill-rule:nonzero;stroke:none"
             d="m 0,0 -0.29,-0.022 -36.055,-2.761 -1.526,-0.117 -1.199,-0.95 -23.884,-18.934 -15.847,1.808 -2.908,0.332 -1.713,-2.374 -42.383,-58.721 -2.918,-4.042 4.034,-2.93 91.404,-66.385 1.019,-0.739 1.247,-0.17 248.17,-33.702 3.874,-0.526 1.445,3.633 34.723,87.319 1.139,2.865 -2.048,2.305 -69.447,78.127 -1.104,1.243 -1.629,0.334 -42.383,8.681 -0.398,0.081 -0.406,0.016 -140.626,5.617 z m 0.091,-5.008 140.626,-5.617 42.383,-8.681 69.447,-78.127 -34.723,-87.319 -248.171,33.702 -91.404,66.385 42.383,58.721 17.901,-2.042 25.503,20.218 z" /></g><g
           transform="translate(752.8076,534.761)"
           id="g60"><path
             id="path62"
             style="fill:#000000;fill-opacity:1;fill-rule:nonzero;stroke:none"
             d="m 0,0 17.34,-2.468 14.043,5.021 -5.617,43.787 -38.554,20.554 -40.34,-2.809 6.894,-41.106 z" /></g><g
           transform="translate(308.2753,585.8248)"
           id="g64"><path
             id="path66"
             style="fill:#000000;fill-opacity:1;fill-rule:nonzero;stroke:none"
             d="M 0,0 6.638,-13.787 19.404,-19.404 48,0 V 26.553 L 22.915,19.404 Z" /></g><g
           transform="translate(476.2753,746.1652)"
           id="g68"><path
             id="path70"
             style="fill:#ea5b0c;fill-opacity:1;fill-rule:nonzero;stroke:none"
             d="m 0,0 5.617,-30.128 -16.606,-31.659 20.18,-19.404 45.447,-5.969 49.022,10.054 35.234,17.872 5.106,25.532 13.787,26.17 V 5.043 Z" /></g><g
           transform="translate(476.2753,746.1652)"
           id="g72"><path
             id="path74"
             style="fill:none;stroke:#000000;stroke-width:5;stroke-linecap:butt;stroke-linejoin:miter;stroke-miterlimit:10;stroke-dasharray:none;stroke-opacity:1"
             d="m 0,0 5.617,-30.128 -16.606,-31.659 20.18,-19.404 45.447,-5.969 49.022,10.054 35.234,17.872 5.106,25.532 13.787,26.17 V 5.043 Z" /></g><g
           transform="translate(587.5498,462.8701)"
           id="g76"><path
             id="path78"
             style="fill:#ea5b0c;fill-opacity:1;fill-rule:nonzero;stroke:none"
             d="m 0,0 -38.706,11.828 -39.512,15.805 -111.032,27.468 -2.703,51.906 19.033,21.147 18.296,6.138 20.868,-8.025 28.368,-14.109 79.547,-14.164 61.779,33.183 25.915,20.732 29.226,3.372 7.938,-21.699 8.686,-3.201 45.946,-20.134 L 174.363,89.534 171.399,76.495 150.456,45.603 135.161,34.749 132.123,9.434 115.948,-6.184 h -14.924 l -30.001,3.051 -30.19,-3.07 z" /></g><g
           transform="translate(680.3004,620.8606)"
           id="g80"><path
             id="path82"
             style="fill:#000000;fill-opacity:1;fill-rule:nonzero;stroke:none"
             d="m 0,0 -3.915,-0.452 -26.556,-3.064 -1.428,-0.164 -1.122,-0.898 -25.176,-20.141 -60.812,-32.664 -78.338,13.949 -27.941,13.896 -0.211,0.106 -0.221,0.084 -19.917,7.66 -1.68,0.646 -1.705,-0.573 -16.82,-5.642 -1.247,-0.418 -0.88,-0.978 -17.9,-19.889 -1.385,-1.538 0.108,-2.067 2.553,-49.021 0.193,-3.703 3.6,-0.891 109.063,-26.981 39.254,-15.701 0.195,-0.078 0.201,-0.061 38.43,-11.745 0.35,-0.107 0.361,-0.055 40.34,-6.127 0.627,-0.096 0.63,0.065 29.622,3.012 29.622,-3.012 0.252,-0.026 h 0.253 13.788 2.02 l 1.453,1.403 14.808,14.298 1.28,1.235 0.212,1.766 2.799,23.332 14.024,9.952 0.737,0.524 0.507,0.748 20.426,30.128 0.528,0.779 0.209,0.918 2.553,11.234 0.612,2.692 -1.952,1.952 -19.404,19.404 -0.666,0.666 -0.863,0.378 -45.447,19.915 -0.137,0.06 -0.141,0.052 -7.53,2.774 -6.862,18.763 z m -3.342,-5.419 7.657,-20.936 9.702,-3.574 45.447,-19.915 19.405,-19.405 -2.554,-11.234 -20.425,-30.127 -15.83,-11.234 -3.064,-25.532 -14.808,-14.298 H 8.4 l -30.127,3.064 -30.128,-3.064 -40.34,6.128 -38.431,11.744 -39.575,15.83 -109.399,27.064 -2.553,49.021 17.901,19.89 16.82,5.642 19.918,-7.66 28.583,-14.215 80.757,-14.38 62.745,33.702 25.532,20.425 z" /></g><g
           transform="translate(594.3116,540.2884)"
           id="g84"><path
             id="path86"
             style="fill:#ffce00;fill-opacity:1;fill-rule:nonzero;stroke:none"
             d="m 0,0 -5.696,-31.57 2.848,-28.085 29.767,-20.351 -33.125,5.032 -38.431,11.744 -39.575,15.83 30.389,25.022 35.361,16.851 z" /></g><g
           transform="translate(642.9579,562.428)"
           id="g88"><path
             id="path90"
             style="fill:#ffce00;fill-opacity:1;fill-rule:nonzero;stroke:none"
             d="m 0,0 h 30.934 l 43.405,-19.752 18.893,-32.426 12.322,18.174 -11.3,26.762 -44.937,27.064 -38.296,6.639 -19.916,-9.663 4.085,-5.657 z" /></g><g
           transform="translate(389.6611,464.3457)"
           id="g92"><path
             id="path94"
             style="fill:#ea5b0c;fill-opacity:1;fill-rule:nonzero;stroke:none"
             d="m 0,0 h -40.411 l -18.833,15.511 -2.223,19.454 5.137,14.385 -0.97,22.802 -9.979,14.706 9.816,31.628 22.235,14.479 10.316,17.022 L 0.247,161.472 29.016,150.073 39.23,135.051 14.1,107.128 h 22.199 l 13.095,-2.518 58.627,8.592 60.118,18.457 3.239,-7.017 25.814,2.39 39.22,3.18 14.261,-19.746 7.841,-18.159 -29.976,-3.36 -17.298,-13.641 -22.552,-6.752 v -4.558 l -1.735,-0.557 c -15.449,-4.961 -32.841,-10.802 -34.642,-11.854 0.02,0.012 0.454,0.27 0.751,0.859 -0.573,-1.046 -3.88,-3.693 -43.133,-29.064 L 109.697,23.229 56.676,3.669 18.139,-4.664 Z" /></g><g
           transform="translate(389.8388,628.5345)"
           id="g96"><path
             id="path98"
             style="fill:#000000;fill-opacity:1;fill-rule:nonzero;stroke:none"
             d="m 0,0 -1.938,-0.885 -23.489,-10.723 -1.401,-0.64 -0.799,-1.317 -9.621,-15.875 -21.001,-13.675 -1.512,-0.985 -0.535,-1.723 -9.192,-29.617 -0.713,-2.299 1.351,-1.991 8.905,-13.122 0.919,-21.606 -4.778,-13.378 -0.391,-1.095 0.132,-1.155 2.042,-17.872 0.23,-2.008 1.56,-1.284 17.361,-14.298 1.385,-1.14 h 1.794 39.197 l 17.26,-4.439 1.145,-0.294 1.157,0.25 37.787,8.17 0.344,0.074 0.33,0.122 52.596,19.404 0.519,0.192 0.464,0.3 c 0.105,0.068 10.602,6.854 21.011,13.677 14.111,9.251 19.363,12.755 21.502,14.573 3.075,1.386 19.334,6.845 33.919,11.529 l 3.471,1.115 v 3.646 0.873 l 20.312,6.081 0.913,0.274 0.749,0.59 16.363,12.904 25.911,2.905 6.71,0.752 -2.676,6.198 -6.394,14.809 -0.217,0.502 -0.32,0.443 -13.276,18.383 -1.65,2.284 -2.808,-0.227 -37.787,-3.064 -0.028,-0.003 -0.029,-0.002 -24.055,-2.227 -1.582,3.428 -1.831,3.967 -4.177,-1.282 -57.848,-17.76 -58.018,-8.503 -12.445,2.393 -0.468,0.09 H 35.883 19.536 l 20.064,22.294 2.623,2.914 -2.205,3.242 -8.681,12.766 -0.864,1.271 -1.429,0.566 L 1.98,-0.785 Z M 0.139,-5.433 27.202,-16.156 35.883,-28.922 8.309,-59.561 h 27.574 l 13.277,-2.553 59.234,8.681 58.213,17.872 3.064,-6.638 27.574,2.553 37.787,3.064 13.277,-18.383 6.393,-14.808 -27.329,-3.064 -17.484,-13.788 -23.878,-7.148 v -4.596 c 0,0 -34.979,-11.234 -35.362,-12.256 -0.383,-1.021 -42.255,-28.085 -42.255,-28.085 l -52.596,-19.404 -37.787,-8.17 -17.872,4.596 h -39.83 l -17.362,14.297 -2.042,17.873 5.106,14.298 -1.021,24 -9.702,14.298 9.191,29.617 21.958,14.297 10.212,16.852 z" /></g><g
           transform="translate(438.9987,566.4205)"
           id="g100"><path
             id="path102"
             style="fill:#ffce00;fill-opacity:1;fill-rule:nonzero;stroke:none"
             d="m 0,0 -12.255,-29.106 6.125,-38.809 22.98,-24.318 42.384,15.637 42.255,28.085 35.362,12.256 v 4.595 l -6.511,27.364 -9.829,24.211 -3.064,6.638 L 59.234,8.681 Z" /></g><g
           transform="translate(331.1902,542.6758)"
           id="g104"><path
             id="path106"
             style="fill:#ffce00;fill-opacity:1;fill-rule:nonzero;stroke:none"
             d="M 0,0 9.255,18.128 38.872,29.362 66.957,26.298 84.858,46.187 62.362,56.936 25.085,52.851 3.128,38.553 -6.064,8.936 Z" /></g><g
           transform="translate(355.8789,685.0811)"
           id="g108"><path
             id="path110"
             style="fill:#ffce00;fill-opacity:1;fill-rule:nonzero;stroke:none"
             d="M 0,0 38.977,25.628 55.986,18.003 62.979,-0.558 0.663,-87.969 h -24.596 l -29.833,-17.9 z" /></g><g
           transform="translate(394.6275,713.5513)"
           id="g112"><path
             id="path114"
             style="fill:#000000;fill-opacity:1;fill-rule:nonzero;stroke:none"
             d="m 0,0 -2.291,-1.506 -37.276,-24.511 -1.11,-0.73 -0.601,-1.184 -49.532,-97.532 -7.867,-15.489 14.897,8.938 21.792,13.075 h 22.615 2.576 l 1.495,2.097 60.794,85.277 1.547,2.17 -0.939,2.495 -6.156,16.34 -0.734,1.949 -1.9,0.851 -14.808,6.639 z m 0.456,-5.684 14.809,-6.638 6.156,-16.341 -60.794,-85.276 h -24 l -22.979,-13.788 49.532,97.532 z" /></g><g
           transform="translate(769.4609,564.1733)"
           id="g116"><path
             id="path118"
             style="fill:#ffce00;fill-opacity:1;fill-rule:nonzero;stroke:none"
             d="m 0,0 -43.709,26.326 -43.119,1.577 -24.898,102.766 45.082,24.688 46.294,2.105 31.573,-17.702 17.24,-58.513 V 28.55 L 15.634,-35.016 Z" /></g><g
           transform="translate(749.7111,724.1654)"
           id="g120"><path
             id="path122"
             style="fill:#000000;fill-opacity:1;fill-rule:nonzero;stroke:none"
             d="m 0,0 -1.427,-0.065 -45.002,-2.047 -1.158,-0.052 -1.016,-0.557 -42.894,-23.489 -3.36,-1.84 0.902,-3.723 24,-99.064 0.892,-3.681 3.785,-0.138 40.582,-1.485 42.484,-25.587 12.126,-27.162 6.373,-14.276 3.093,15.326 11.234,55.659 0.099,0.49 v 0.499 52.085 0.722 l -0.204,0.692 -16.851,57.191 -0.575,1.953 -1.776,0.995 -30.061,16.856 z m -1.2,-5.06 30.062,-16.855 16.851,-57.192 v -52.085 l -11.234,-55.659 -12.766,28.596 -44.936,27.063 -41.872,1.532 -24,99.064 42.893,23.489 z" /></g><g
           transform="translate(398.1477,568.9738)"
           id="g124"><path
             id="path126"
             style="fill:#000000;fill-opacity:1;fill-rule:nonzero;stroke:none"
             d="m 0,0 -28.085,3.064 -29.617,-11.234 -9.255,-18.128 14.361,14.681 25.036,9.064 z" /></g><g
           transform="translate(416.0482,588.8632)"
           id="g128"><path
             id="path130"
             style="fill:#000000;fill-opacity:1;fill-rule:nonzero;stroke:none"
             d="m 0,0 -22.496,10.749 -37.277,-4.085 38.298,9.702 z" /></g><g
           transform="translate(438.9987,566.4205)"
           id="g132"><path
             id="path134"
             style="fill:#000000;fill-opacity:1;fill-rule:nonzero;stroke:none"
             d="m 0,0 -12.255,-29.106 6.125,-38.809 22.98,-24.318 -29.105,19.212 -6.639,52.595 z" /></g><g
           transform="translate(559.5093,586.3354)"
           id="g136"><path
             id="path138"
             style="fill:#000000;fill-opacity:1;fill-rule:nonzero;stroke:none"
             d="m 0,0 9.83,-24.211 6.51,-27.363 -2.553,30.127 z" /></g><g
           transform="translate(634.0626,579.2258)"
           id="g140"><path
             id="path142"
             style="fill:#000000;fill-opacity:1;fill-rule:nonzero;stroke:none"
             d="m 0,0 19.916,9.663 38.297,-6.638 44.936,-27.064 11.3,-26.763 -6.704,30.233 L 61.787,7.11 15.319,13.748 Z" /></g><g
           transform="translate(642.9579,562.428)"
           id="g144"><path
             id="path146"
             style="fill:#000000;fill-opacity:1;fill-rule:nonzero;stroke:none"
             d="M 0,0 H 30.934 L 74.339,-19.752 93.232,-52.178 72.296,-25.114 28.381,-5.071 Z" /></g><g
           transform="translate(594.3116,540.2884)"
           id="g148"><path
             id="path150"
             style="fill:#000000;fill-opacity:1;fill-rule:nonzero;stroke:none"
             d="M 0,0 -5.696,-31.57 -2.848,-59.655 26.919,-80.006 1.453,-54.549 -1.1,-30.038 Z" /></g><g
           transform="translate(686.1476,623.1014)"
           id="g152"><path
             id="path154"
             style="fill:#000000;fill-opacity:1;fill-rule:nonzero;stroke:none"
             d="M 0,0 62.364,2.553 87.83,-14.808 103.149,-51.064 85.277,-23.489 59.234,-9.702 Z" /></g><g
           transform="translate(681.0413,653.7397)"
           id="g156"><path
             id="path158"
             style="fill:#000000;fill-opacity:1;fill-rule:nonzero;stroke:none"
             d="M 0,0 49.021,5.266 99.574,-6.894 112.34,-30.638 91.404,-12.686 49.021,-0.511 Z" /></g><g
           transform="translate(369.2966,621.8248)"
           id="g160"><path
             id="path162"
             style="fill:#000000;fill-opacity:1;fill-rule:nonzero;stroke:none"
             d="M 0,0 -21.702,5.106 -45.957,-3.83 -20.17,12.255 Z" /></g><g
           transform="translate(379.5094,655.7822)"
           id="g164"><path
             id="path166"
             style="fill:#000000;fill-opacity:1;fill-rule:nonzero;stroke:none"
             d="M 0,0 H -23.234 L -44.426,-11.489 -26.298,7.149 Z" /></g><g
           transform="translate(464.2753,565.3993)"
           id="g168"><path
             id="path170"
             style="fill:#000000;fill-opacity:1;fill-rule:nonzero;stroke:none"
             d="M 0,0 V -41.362 L 18.383,-69.702 6.638,-37.277 Z" /></g><g
           transform="translate(634.3676,631.4213)"
           id="g172"><path
             id="path174"
             style="fill:#000000;fill-opacity:1;fill-rule:nonzero;stroke:none"
             d="m 0,0 -25.119,6.801 -1.477,23.99 24.17,7.227 20.022,-19.101 z M -5.241,44.786 -34.64,30.829 -28.05,0.531 5.312,-3.211 24.035,24.361 Z" /></g><g
           transform="translate(435.0715,631.9825)"
           id="g176"><path
             id="path178"
             style="fill:#000000;fill-opacity:1;fill-rule:nonzero;stroke:none"
             d="M 0,0 -22.668,10.762 -18.86,30.819 3.447,40.344 20.753,19.086 Z M 0.353,46.608 -24.498,29.927 V 4.736 l 29.957,-7.83 20.766,27.915 z" /></g><g
           transform="translate(524.7998,679.5288)"
           id="g180"><path
             id="path182"
             style="fill:#ea5b0c;fill-opacity:1;fill-rule:nonzero;stroke:none"
             d="m 0,0 -14.652,22.935 -28.035,4.695 -27.195,10.118 -12.72,25.451 -7.367,44.178 v 46.054 l -8.481,55.726 v 48.099 l 18.262,13.339 31.681,-23.441 27.961,-17.477 29.467,10.615 12.643,0.63 12.631,-0.63 29.468,-10.615 27.96,17.476 31.682,23.442 18.261,-13.339 v -48.099 l -8.481,-55.726 V 107.377 L 125.719,63.199 112.999,37.748 85.804,27.63 57.769,22.935 43.116,0 21.564,-5.219 Z" /></g><g
           transform="translate(648.0947,953.2267)"
           id="g184"><path
             id="path186"
             style="fill:#000000;fill-opacity:1;fill-rule:nonzero;stroke:none"
             d="m 0,0 -2.955,-2.186 -30.125,-22.291 -26.847,-16.78 -27.975,10.077 -0.701,0.253 -0.744,0.037 -12.135,0.605 -0.249,0.012 -0.248,-0.012 -12.147,-0.605 -0.744,-0.037 -0.702,-0.253 -27.974,-10.077 -26.847,16.78 -30.125,22.291 -2.955,2.186 -2.968,-2.168 -15.753,-11.506 -2.051,-1.498 v -2.54 -46.64 -0.378 l 0.057,-0.374 8.425,-55.353 v -45.656 -0.414 l 0.068,-0.409 7.271,-43.603 0.123,-0.741 0.336,-0.672 12.111,-24.234 0.881,-1.763 1.848,-0.688 26.048,-9.691 0.448,-0.166 0.47,-0.079 26.704,-4.472 13.512,-21.152 1.083,-1.694 1.955,-0.473 19.998,-4.84 1.177,-0.285 1.176,0.285 19.987,4.84 1.954,0.473 1.083,1.694 13.512,21.152 26.704,4.472 0.47,0.079 0.447,0.166 26.049,9.691 1.848,0.688 0.881,1.763 12.111,24.234 0.335,0.672 0.124,0.741 7.271,43.603 0.068,0.409 v 0.414 45.656 l 8.425,55.353 0.056,0.374 v 0.378 46.64 2.54 l -2.05,1.498 -15.753,11.506 z m 0.019,-6.206 15.752,-11.506 v -46.64 L 7.29,-120.078 v -46.035 l -7.271,-43.604 -12.111,-24.234 -26.048,-9.691 -28.895,-4.839 -14.709,-23.024 -19.987,-4.839 -19.998,4.839 -14.709,23.024 -28.895,4.839 -26.048,9.691 -12.111,24.234 -7.271,43.604 v 46.035 l -8.482,55.726 v 46.64 l 15.753,11.506 30.283,-22.407 29.073,-18.172 30.259,10.901 12.146,0.605 12.135,-0.605 30.259,-10.901 29.073,18.172 z" /></g><g
           transform="translate(487.6051,877.3675)"
           id="g188"><path
             id="path190"
             style="fill:#ffffff;fill-opacity:1;fill-rule:nonzero;stroke:none"
             d="M 0,0 -12.72,32.304 -37.554,58.551 -53.908,54.513 V 11.912 l 6.721,-48.704 z" /></g><g
           transform="translate(521.5245,754.4095)"
           id="g192"><path
             id="path194"
             style="fill:#ffffff;fill-opacity:1;fill-rule:nonzero;stroke:none"
             d="m 0,0 -9.868,13.931 -31.32,3.029 -28.468,4.24 -11.824,-4.771 4.556,-27.332 12.114,-24.228 26.045,-9.691 28.897,-4.846 14.714,-23.017 19.988,-4.845 v 49.236 l -12.138,3.46 z" /></g><g
           transform="translate(605.1118,877.3675)"
           id="g196"><path
             id="path198"
             style="fill:#ffffff;fill-opacity:1;fill-rule:nonzero;stroke:none"
             d="M 0,0 12.72,32.304 37.554,58.551 53.908,54.513 V 11.912 l -6.721,-48.704 z" /></g><g
           transform="translate(571.1923,754.4095)"
           id="g200"><path
             id="path202"
             style="fill:#ffffff;fill-opacity:1;fill-rule:nonzero;stroke:none"
             d="M 0,0 9.868,13.931 41.188,16.96 69.656,21.2 81.48,16.429 76.924,-10.903 64.81,-35.131 38.765,-44.822 9.868,-49.668 -4.846,-72.685 -24.834,-77.53 v 49.236 l 12.138,3.46 z" /></g><g
           transform="translate(422.3901,696.0552)"
           id="g204"><path
             id="path206"
             style="fill:#ffce00;fill-opacity:1;fill-rule:nonzero;stroke:none"
             d="m 0,0 -23.483,32.355 6.41,28.825 20.506,30.157 3.607,34.91 14.376,31.859 29.964,21.848 11.871,3.399 5.347,16.197 11.524,12.973 31.209,11.243 12.643,0.63 12.631,-0.63 31.209,-11.243 11.524,-12.973 5.347,-16.196 11.87,-3.4 29.966,-21.848 14.376,-31.859 3.605,-34.91 L 265.009,61.18 271.418,32.355 247.936,0 l -35.918,-15.489 9.383,45.889 -1.186,40.088 -15.089,32.781 -22.68,7.663 -38.281,-4.129 L 123.974,94.817 103.772,106.803 65.49,110.932 42.81,103.269 27.721,70.488 26.534,30.4 35.917,-15.489 Z" /></g><g
           transform="translate(546.3641,922.9541)"
           id="g208"><path
             id="path210"
             style="fill:#000000;fill-opacity:1;fill-rule:nonzero;stroke:none"
             d="m 0,0 -0.249,-0.012 -12.146,-0.605 -0.745,-0.037 -0.701,-0.253 -30.259,-10.901 -1.198,-0.432 -0.846,-0.951 -10.758,-12.111 -0.686,-0.773 -0.324,-0.981 -4.77,-14.45 -10.173,-2.914 -0.853,-0.244 -0.716,-0.522 -29.073,-21.197 -1.069,-0.779 -0.543,-1.205 -13.938,-30.888 -0.333,-0.738 -0.083,-0.805 -3.5,-33.879 -19.883,-29.24 -0.538,-0.792 -0.208,-0.934 -6.061,-27.259 -0.489,-2.199 1.323,-1.823 22.419,-30.888 0.806,-1.111 1.26,-0.543 30.888,-13.321 8.798,-3.794 -1.919,9.387 -8.365,40.912 1.163,39.288 14.426,31.34 21.138,7.143 37.194,-4.012 18.46,-10.952 2.552,-1.514 2.551,1.515 18.447,10.951 37.194,4.012 21.138,-7.143 14.426,-31.34 1.163,-39.288 -8.365,-40.912 -1.919,-9.387 8.798,3.794 30.888,13.321 1.26,0.543 0.806,1.111 22.419,30.888 1.323,1.823 -0.489,2.199 -6.061,27.259 -0.208,0.934 -0.539,0.792 -19.882,29.24 -3.5,33.879 -0.083,0.805 -0.333,0.738 -13.938,30.888 -0.543,1.205 -1.069,0.779 -29.073,21.197 -0.716,0.522 -0.853,0.244 -10.173,2.914 -4.77,14.45 -0.324,0.981 -0.686,0.773 -10.758,12.111 -0.846,0.951 -1.198,0.432 -30.259,10.901 -0.701,0.253 -0.745,0.037 -12.134,0.605 z m 0,-5.006 12.134,-0.605 30.26,-10.901 10.758,-12.111 5.599,-16.962 12.716,-3.642 29.073,-21.197 13.937,-30.887 3.63,-35.135 20.592,-30.283 6.061,-27.258 -22.418,-30.888 -30.888,-13.32 8.481,41.48 -1.21,40.887 -15.752,34.221 -24.222,8.185 -39.369,-4.247 L 0,-129.175 l -19.394,11.506 -39.369,4.247 -24.222,-8.185 -15.752,-34.221 -1.21,-40.887 8.481,-41.48 -30.888,13.32 -22.418,30.888 6.061,27.258 20.592,30.283 3.63,35.135 13.937,30.887 29.073,21.197 12.716,3.642 5.599,16.962 10.758,12.111 30.26,10.901 z" /></g><g
           transform="translate(482.1538,750.1696)"
           id="g212"><path
             id="path214"
             style="fill:#000000;fill-opacity:1;fill-rule:nonzero;stroke:none"
             d="m 0,0 23.017,-9.086 11.508,-33.919 29.68,-6.663 v -4.088 l -32.103,7.42 -10.145,34.373 z" /></g><g
           transform="translate(546.3584,737.7526)"
           id="g216"><path
             id="path218"
             style="fill:#000000;fill-opacity:1;fill-rule:nonzero;stroke:none"
             d="M 0,0 -14.569,-3.422 -17.111,-18.928 0,-29.831 Z" /></g><g
           transform="translate(544.5413,698.6847)"
           id="g220"><path
             id="path222"
             style="fill:#000000;fill-opacity:1;fill-rule:nonzero;stroke:none"
             d="M 0,0 V 12.72 L 1.817,11.357 V 0 Z" /></g><g
           transform="translate(483.2138,797.5659)"
           id="g224"><path
             id="path226"
             style="fill:#000000;fill-opacity:1;fill-rule:nonzero;stroke:none"
             d="m 0,0 26.954,-2.271 14.082,-13.477 v -10.449 l -6.359,6.814 -16.203,1.212 z" /></g><g
           transform="translate(526.9759,805.2886)"
           id="g228"><path
             id="path230"
             style="fill:#000000;fill-opacity:1;fill-rule:nonzero;stroke:none"
             d="m 0,0 -17.263,23.32 1.944,36.039 22.564,17.868 12.138,4.846 v -6.36 L 7.245,71.17 -9.994,56.633 V 25.742 Z" /></g><g
           transform="translate(445.8115,852.5336)"
           id="g232"><path
             id="path234"
             style="fill:#000000;fill-opacity:1;fill-rule:nonzero;stroke:none"
             d="M 0,0 29.074,21.2 41.794,24.834 76.016,27.56 44.519,21.503 28.165,15.748 Z" /></g><g
           transform="translate(431.8803,821.6427)"
           id="g236"><path
             id="path238"
             style="fill:#000000;fill-opacity:1;fill-rule:nonzero;stroke:none"
             d="m 0,0 16.354,-12.72 39.371,0.606 -41.794,-4.24 z" /></g><g
           transform="translate(546.3585,866.0627)"
           id="g240"><path
             id="path242"
             style="fill:#000000;fill-opacity:1;fill-rule:nonzero;stroke:none"
             d="M 0,0 -14.84,-8.078 -12.138,-27.46 0,-40.483 Z" /></g><g
           transform="translate(445.8115,927.8428)"
           id="g244"><path
             id="path246"
             style="fill:#000000;fill-opacity:1;fill-rule:nonzero;stroke:none"
             d="m 0,0 v -31.699 l 14.84,-29.83 6.562,3.785 -4.644,24.834 z" /></g><g
           transform="translate(610.5631,750.1696)"
           id="g248"><path
             id="path250"
             style="fill:#000000;fill-opacity:1;fill-rule:nonzero;stroke:none"
             d="m 0,0 -23.017,-9.086 -11.508,-33.919 -29.68,-6.663 v -4.088 l 32.103,7.42 10.145,34.373 z" /></g><g
           transform="translate(546.3585,737.7526)"
           id="g252"><path
             id="path254"
             style="fill:#000000;fill-opacity:1;fill-rule:nonzero;stroke:none"
             d="M 0,0 14.569,-3.422 17.111,-18.928 0,-29.831 Z" /></g><g
           transform="translate(548.1755,698.6847)"
           id="g256"><path
             id="path258"
             style="fill:#000000;fill-opacity:1;fill-rule:nonzero;stroke:none"
             d="M 0,0 V 12.72 L -1.817,11.357 V 0 Z" /></g><g
           transform="translate(609.5031,797.5659)"
           id="g260"><path
             id="path262"
             style="fill:#000000;fill-opacity:1;fill-rule:nonzero;stroke:none"
             d="m 0,0 -26.954,-2.271 -14.082,-13.477 v -10.449 l 6.359,6.814 16.203,1.212 z" /></g><g
           transform="translate(565.741,805.2886)"
           id="g264"><path
             id="path266"
             style="fill:#000000;fill-opacity:1;fill-rule:nonzero;stroke:none"
             d="m 0,0 17.263,23.32 -1.944,36.039 -22.564,17.868 -12.138,4.846 v -6.36 L -7.245,71.17 9.994,56.633 V 25.742 Z" /></g><g
           transform="translate(646.9053,852.5336)"
           id="g268"><path
             id="path270"
             style="fill:#000000;fill-opacity:1;fill-rule:nonzero;stroke:none"
             d="m 0,0 -29.074,21.2 -12.72,3.634 -34.222,2.726 31.497,-6.057 16.354,-5.755 z" /></g><g
           transform="translate(660.8365,821.6427)"
           id="g272"><path
             id="path274"
             style="fill:#000000;fill-opacity:1;fill-rule:nonzero;stroke:none"
             d="m 0,0 -16.354,-12.72 -39.371,0.606 41.794,-4.24 z" /></g><g
           transform="translate(546.3585,866.0627)"
           id="g276"><path
             id="path278"
             style="fill:#000000;fill-opacity:1;fill-rule:nonzero;stroke:none"
             d="M 0,0 14.84,-8.078 12.138,-27.46 0,-40.483 Z" /></g><g
           transform="translate(646.9053,927.8428)"
           id="g280"><path
             id="path282"
             style="fill:#000000;fill-opacity:1;fill-rule:nonzero;stroke:none"
             d="m 0,0 v -31.699 l -14.84,-29.83 -6.562,3.785 4.644,24.834 z" /></g><g
           transform="translate(479.5094,659.0057)"
           id="g284"><path
             id="path286"
             style="fill:#000000;fill-opacity:1;fill-rule:nonzero;stroke:none"
             d="m 0,0 -8.851,-24.5 6.808,2.894 5.958,20.085 z" /></g><g
           transform="translate(480.8711,633.3141)"
           id="g288"><path
             id="path290"
             style="fill:#000000;fill-opacity:1;fill-rule:nonzero;stroke:none"
             d="m 0,0 6.638,23.149 h 3.575 L 12.331,9.702 17.362,21.957 20.426,20.426 13.787,-3.064 9.021,-1.893 8.681,11.574 3.234,-1.332 Z" /></g><g
           transform="translate(516.0014,646.1041)"
           id="g292"><path
             id="path294"
             style="fill:#000000;fill-opacity:1;fill-rule:nonzero;stroke:none"
             d="M 0,0 3.295,2.451 0,6.977 l -8.787,-0.06 -3.479,-5.98 2.563,-8.101 4.211,-3.253 -2.197,-2.215 -4.577,1.697 -2.013,-5.113 4.393,-2.806 6.982,2.806 3.453,4.736 -1.647,5.374 -4.394,2.167 L -6.957,0 -3.922,1.73 Z" /></g><g
           transform="translate(576.9562,652.2089)"
           id="g296"><path
             id="path298"
             style="fill:#000000;fill-opacity:1;fill-rule:nonzero;stroke:none"
             d="M 0,0 -1.106,2.552 4.17,6.127 12.766,6.797 16,2.212 v -4.596 l -2.128,-2.979 5.617,-4.936 v -7.319 l -3.659,-3.17 -9.107,-0.915 -4.51,3.234 0.51,3.659 5.617,-2.127 5.107,1.021 1.021,3.873 -3.745,3.361 -3.404,0.255 -0.51,4.086 3.829,3.191 -1.447,3.447 -4.085,-0.085 -4,-3.362 z" /></g><g
           transform="translate(556.02,631.4213)"
           id="g300"><path
             id="path302"
             style="fill:#000000;fill-opacity:1;fill-rule:nonzero;stroke:none"
             d="M 0,0 -1.787,3.51 4.596,5.978 9.702,1.042 Z m 12.681,8.745 -7.575,1.829 -5.377,-1.829 -2.623,3.871 3.745,5.362 9.362,0.17 0.596,3.512 -9.788,2.531 -11.574,-7.575 3.83,-20.34 15.063,-1.192 7.234,7.575 z" /></g><g
           transform="translate(527.0839,638.5908)"
           id="g304"><path
             id="path306"
             style="fill:#000000;fill-opacity:1;fill-rule:nonzero;stroke:none"
             d="M 0,0 V 6.165 L 0.191,5.798 2.979,0.426 Z M 3.064,12.468 -1.426,11.894 -8.872,-13 l 5.234,-1.851 2.212,9.702 3.213,0.702 3.83,-9.957 4.851,0.574 z" /></g><g
           transform="translate(565.0294,334.5747)"
           id="g308"><path
             id="path310"
             style="fill:#000000;fill-opacity:1;fill-rule:nonzero;stroke:none"
             d="m 0,0 -38.385,-35.674 -55.219,36.65 5.137,58.989 54.245,22.537 L 2.919,49.8 Z m 10.665,77.446 -60.13,27.902 -64.34,-52.387 12.895,-80.287 85.399,-25.624 38.942,63.205 z" /></g><g
           transform="translate(423.7205,448.622)"
           id="g312"><path
             id="path314"
             style="fill:#000000;fill-opacity:1;fill-rule:nonzero;stroke:none"
             d="M 0,0 101.702,-16.87 247.234,0 109.361,-31.168 Z" /></g><g
           transform="translate(408.4285,379.6799)"
           id="g316"><path
             id="path318"
             style="fill:#000000;fill-opacity:1;fill-rule:nonzero;stroke:none"
             d="M 0,0 53.164,-18.906 H 22.015 Z" /></g><g
           transform="translate(376.9444,326.4821)"
           id="g320"><path
             id="path322"
             style="fill:#000000;fill-opacity:1;fill-rule:nonzero;stroke:none"
             d="m 0,0 28.989,-24.432 59.353,-24 -62.417,16.851 z" /></g><g
           transform="translate(343.635,281.6245)"
           id="g324"><path
             id="path326"
             style="fill:#000000;fill-opacity:1;fill-rule:nonzero;stroke:none"
             d="m 0,0 42.527,-29.106 60.171,-10.708 -64.4,3.048 z" /></g><g
           transform="translate(603.6643,234.0187)"
           id="g328"><path
             id="path330"
             style="fill:#000000;fill-opacity:1;fill-rule:nonzero;stroke:none"
             d="M 0,0 93.843,13.393 147.715,46.074 103.184,2.84 Z" /></g><g
           transform="translate(575.8498,288.0075)"
           id="g332"><path
             id="path334"
             style="fill:#000000;fill-opacity:1;fill-rule:nonzero;stroke:none"
             d="m 0,0 71.615,3.319 69.958,44.17 -54.298,-52 z" /></g><g
           transform="translate(583.2168,394.8809)"
           id="g336"><path
             id="path338"
             style="fill:#ffce00;fill-opacity:1;fill-rule:nonzero;stroke:none"
             d="m 0,0 6.679,15.865 -25.306,27.243 18.203,17.298 26.589,-30.842 16.229,-1.521 222.59,-220.535 -2.841,-27.843 -23.914,-7.582 z" /></g><g
           transform="translate(582.9742,458.9067)"
           id="g340"><path
             id="path342"
             style="fill:#000000;fill-opacity:1;fill-rule:nonzero;stroke:none"
             d="m 0,0 -3.805,-3.615 -14.51,-13.787 -3.584,-3.406 3.365,-3.622 22.525,-24.249 -5.385,-12.791 -1.336,-3.173 2.488,-2.38 235.915,-225.702 2.142,-2.049 2.825,0.896 20.936,6.638 3.13,0.993 0.333,3.266 2.553,25.021 0.243,2.378 -1.698,1.682 -221.106,219.063 -1.271,1.26 -1.781,0.167 -14.336,1.344 -24.216,28.091 z m -0.36,-7.24 25.532,-29.617 16.34,-1.532 221.106,-219.063 -2.553,-25.022 -20.936,-6.638 -235.915,225.702 6.638,15.768 -24.723,26.615 z" /></g><g
           transform="translate(592.8265,411.2646)"
           id="g344"><path
             id="path346"
             style="fill:#000000;fill-opacity:1;fill-rule:nonzero;stroke:none"
             d="M 0,0 10.043,3.807 15.319,10.785 13.191,0.743 Z" /></g><g
           transform="translate(656.401,326.4821)"
           id="g348"><path
             id="path350"
             style="fill:#000000;fill-opacity:1;fill-rule:nonzero;stroke:none"
             d="M 0,0 28.851,4.164 41.106,24.845 30.383,-3.241 Z" /></g><g
           transform="translate(708.9683,278.0319)"
           id="g352"><path
             id="path354"
             style="fill:#000000;fill-opacity:1;fill-rule:nonzero;stroke:none"
             d="M 0,0 33.677,3.593 42.411,20.869 39.092,0 Z" /></g><g
           transform="translate(371.3365,888.2471)"
           id="g356"><path
             id="path358"
             style="fill:#ffffff;fill-opacity:1;fill-rule:nonzero;stroke:none"
             d="m 0,0 -80.936,-35.714 -8.425,-21.257 23.872,9.299 8.681,-11.546 12.127,9.191 12.458,-12.64 7.576,26.953 z" /></g><g
           transform="translate(639.0393,473.0864)"
           id="g360"><path
             id="path362"
             style="fill:#000000;fill-opacity:1;fill-rule:nonzero;stroke:none"
             d="M 0,0 C 0.766,0.255 42.002,1.277 42.002,1.277 L 67.915,32.936 37.787,6.638 Z" /></g><g
           transform="translate(352.9949,514.0961)"
           id="g364"><path
             id="path366"
             style="fill:#000000;fill-opacity:1;fill-rule:nonzero;stroke:none"
             d="m 0,0 c 0,0 24.032,-20.426 24.144,-20.681 0.111,-0.255 40.962,0 40.962,0 l -38.297,3.83 z" /></g></g></g></g></svg>