<?xml version="1.0" encoding="UTF-8"?>
<svg id="Calque_3" xmlns="http://www.w3.org/2000/svg" viewBox="0 0 465 838.04">
  <defs>
    <style>
      .cls-1, .cls-2 {
        stroke: #fff;
      }

      .cls-1, .cls-2, .cls-3 {
        stroke-width: 4px;
      }

      .cls-1, .cls-2, .cls-3, .cls-4, .cls-5 {
        stroke-miterlimit: 10;
      }

      .cls-6 {
        fill: #fff;
      }

      .cls-2, .cls-3, .cls-5 {
        fill: none;
      }

      .cls-3, .cls-4, .cls-5 {
        stroke: #000;
      }

      .cls-4 {
        stroke-width: 10px;
      }

      .cls-5 {
        stroke-width: 3px;
      }
    </style>
  </defs>
  <polygon points="194.89 463.28 170.86 453.01 141.33 470.05 140.09 470.77 112.33 472.52 109.66 470.91 82.96 454.84 81.18 441.28 88.86 436.62 111.61 422.83 113.66 421.58 143.73 383.61 129.13 349.77 100 338.93 86.84 354.42 97.76 371.89 102.83 367.37 118.59 373.79 118.48 392.45 101.82 407.27 96.44 412.06 74.85 413.5 75.34 403.21 58.06 388.33 55 391.94 55.12 414.82 53.67 414.92 37.76 397.06 45.24 376.86 27.82 342.98 17.55 352.54 4.81 402.84 29.94 437.3 55.26 441.02 55.31 451.19 64.18 474.2 96.36 493.73 119.13 486.53 119.13 486.53 146.3 477.94 157.54 474.39 194.89 463.28"/>
  <polygon points="271.3 469.84 295.04 458.92 325.01 475.15 326.28 475.84 354.08 476.82 356.7 475.14 382.95 458.35 384.36 444.74 376.55 440.29 353.44 427.13 351.35 425.94 320.26 388.8 333.93 354.58 362.75 342.95 376.32 358.08 365.89 375.84 360.69 371.46 345.12 378.3 345.74 396.96 362.8 411.32 368.3 415.95 389.92 416.81 389.16 406.53 406.02 391.18 409.18 394.71 409.69 417.59 411.14 417.65 426.55 399.36 418.52 379.37 435.02 345.03 445.54 354.3 459.65 404.24 435.47 439.36 410.26 443.78 410.48 453.95 402.25 477.19 370.61 497.59 347.66 491.02 347.66 491.02 320.26 483.17 308.93 479.93 271.3 469.84"/>
  <path class="cls-4" d="M412.72,300.51l-24.51-11.23-32.17,3.57-28.6,28.09-90.38-11.23-89.87,12.77-28.6-26.04-31.66-7.15-36.26,16.34-8.17,35.23,13.28,31.66,49.02,44.43,13.79,20.43-7.15,17.87,9.19,13.79-9.7,46.98,1.53,35.23,8.68,44.43,15.83,28.09,26.55,36.77,26.04,17.36-5.11,32.68-15.83,22.47-29.11,12.26,29.62,16.34h126.64l32.68-13.28-16.34-8.68-25.02-16.85-10.21-44.43,27.06-15.32,35.23-48.51,13.79-66.89v-55.15l-5.11-20.43,6.13-6.64-2.04-19.91-1.02-12.77,9.7-12.77,43.92-39.32,21.45-45.45-13.28-34.72ZM139.53,431.23l-10.72-16.85-25.53-22.98-36.26-42.89-3.57-28.6,16.85-10.21,17.87-3.57,10.47,5.62,5.36,22.47,20.94,10.21,15.32,26.04,3.57,27.06-14.3,33.7ZM387.7,366.38l-43.92,38.3-16.34,26.55-13.79-31.15,2.55-26.55,15.32-27.57,21.96-13.28,2.04-17.36,9.19-5.62h30.13l8.17,23.49-15.32,33.19Z"/>
  <polygon class="cls-6" points="352.98 547.66 352.98 492.51 347.87 472.09 327.45 431.23 238.06 424.49 139.53 431.23 120.64 469.02 110.93 516 112.47 551.23 121.15 595.66 136.98 623.74 144.95 634.78 232.25 638.45 324.05 635.39 324.05 635.39 339.19 614.55 352.98 547.66"/>
  <polygon class="cls-6" points="153.83 397.53 234.25 390.28 313.66 404.57 316.21 373.53 331.53 345.96 242.68 332.57 187 335.13 134.94 344.43 150.25 370.47 153.83 397.53"/>
  <polygon class="cls-6" points="143.73 421.34 238.57 411.21 324.46 424.49 238.06 415.3 143.73 421.34"/>
  <polygon class="cls-6" points="153.83 647.08 237.55 654.28 315.57 647.08 237.04 651.98 153.83 647.08"/>
  <polygon class="cls-6" points="189.57 677.87 235.76 681.85 276.89 678.38 287.11 722.81 312.13 739.66 277.89 745.68 186.23 745.68 155.15 738.7 168.64 733.02 184.47 710.55 189.57 677.87"/>
  <polyline class="cls-5" points="143.73 354.28 173.47 349.17 174.74 377.51 203.34 377.51 203.34 346.62 213.04 346.62 214.32 375.47 249.3 374.7 249.3 344.57 259.76 345.6 259.76 379.04 283.76 379.04 283.76 347.89 294.49 349.68 292.7 381.6 309.81 382.62 317.21 355.81 301.64 352.23 299.34 375.47 307.51 377.26 309.3 360.4"/>
  <polyline class="cls-5" points="203.34 346.62 182.15 347.89 183.17 370.47 194.91 370.47 196.19 356.83 188.02 356.57"/>
  <polyline class="cls-5" points="249.3 344.57 220.19 346.62 220.19 368.57 240.36 368.57 239.85 353.51 230.47 354.53 230.47 359.89"/>
  <polyline class="cls-5" points="283.76 347.89 267.42 349.17 267.42 370.47 277.64 370.47 277.89 359.18 273.3 359.18 272.02 363.6"/>
  <polyline class="cls-5" points="161.72 351.19 163.76 381.09 157.38 382.62"/>
  <polyline class="cls-5" points="152.02 371.89 155.34 370.47 153.83 360.91 148.7 360.91"/>
  <polyline class="cls-5" points="157.38 391.3 231.68 383.89 304.7 389.26"/>
  <path d="M209.47,469.94l3.06,1.02-8.13,38.04-17.91.51-3.57-13.79-4.6-11.49,6.38-7.91,2.3-7.66-3.06-6.64,7.15-8.43-7.66-5.62-15.83,2.3-7.91,10.21,6.13,5.36v14.3l-15.83,12.26-11.49,29.11,13.28,6.13,4.34,17.11v66.13h16.09l-8.43-11.23,6.64-41.62,17.62,41.11-1.02,11.74h12.26l7.66-2.81-10.21-9.19-2.3-20.68,19.4-103.15,2.55.26,2.55-19.15-9.45,13.79ZM191.34,573.09l-12.64-38.81v-20.94l10.6,10.47,12-5.11-9.96,54.38Z"/>
  <polygon class="cls-6" points="159.17 501.09 149.21 515.38 160.96 523.3 152.53 513.34 159.17 501.09"/>
  <polyline class="cls-3" points="165.55 482.02 156.7 482.02 144.45 526.96 141.38 558.96 129.13 585.68 142.23 587.04 175.59 585.17 177.98 553.51"/>
  <polygon points="256.96 614.45 251.85 614.45 250.06 520.23 241.13 523.3 234.7 514.87 231.96 523.3 226.57 522.28 241.76 458.96 236.28 506.19 241.76 509.26 252.36 489.85 262.57 484.74 262.57 480.91 257.98 480.66 255.42 470.19 256.19 464.06 262.57 458.96 262.57 456.91 256.45 459.98 249.04 453.09 259 444.66 272.02 443.38 283 449.77 276.36 458.19 268.7 456.15 268.45 459.21 275.59 462.28 277.89 469.94 277.38 477.34 272.79 477.85 274.32 482.02 281.98 483.72 289.38 490.62 305.47 491.89 319.76 504.66 324.46 521 321.81 539.64 310.57 550.87 296.79 553.68 286.06 551.89 304.19 601.94 303.94 610.87 298.32 610.87 294.74 601.17 267.17 553.68 256.96 614.45"/>
  <polygon class="cls-6" points="289.38 490.62 271.25 506.96 267.42 533 286.06 551.89 273.04 531.47 272.53 508.49 289.38 490.62"/>
  <path class="cls-6" d="M309.04,514.36l-14.04-5.87-8.94,7.66v17.36l13.53,5.36,11.74-13.43-2.3-11.09ZM305.99,526.61l-9.69,6.82-7.79-5.64,2.81-11.25,6.96-3.53,8.04,6.05-.32,7.55Z"/>
  <polygon class="cls-1" points="99.83 193.25 47.39 173.74 29.1 138.98 46.79 102.06 80.35 102.48 90.99 122.52 85.19 141.42 108.36 170.69 122.39 132.89 112.02 123.13 106.53 100.57 71.78 78.62 30.93 87.16 2.28 131.06 27.88 187.15 87.63 212.76 119.11 237.75 124.6 273.72 97.17 313.96 79.63 318.66 78.25 344.57 118.5 334.69 138.1 311.46 154.04 293.23 158.57 246.9 153.48 238.36 134.19 206.05 99.83 193.25"/>
  <polygon class="cls-1" points="363.95 193.31 415.83 172.38 433.16 137.14 414.47 100.72 380.94 102.05 370.85 122.38 377.16 141.11 354.8 171 339.75 133.59 349.84 123.56 354.71 100.86 388.85 77.97 429.92 85.39 459.76 128.49 435.7 185.26 376.67 212.48 345.88 238.33 341.38 274.44 369.9 313.92 387.56 318.13 389.65 344 349.14 335.22 328.91 312.53 312.49 294.75 306.69 248.55 311.55 239.88 329.95 207.05 363.95 193.31"/>
  <g>
    <polygon points="186.91 0 139.19 36.12 186.91 77.39 163.05 38.7 186.91 0"/>
    <path d="M217.63,0l-30.72,31.63,30.72,45.77,30.89-42.71L217.63,0ZM217.71,59.33l-15.94-27.9,16.43-16.24,16.43,19.68-16.92,24.46Z"/>
    <polygon points="253.17 77.39 271.14 0 285.85 28.38 309.36 0 320.44 77.39 302.67 30.29 284.32 46.72 275.72 33.54 253.17 77.39"/>
  </g>
  <g>
    <path d="M134.08,83.67l-7.59,107.51,17.19-54.82,22.58-22.56-32.18-30.13ZM140.28,122.03l1-14.6,7.39,7.3-8.39,7.3Z"/>
    <path d="M218.42,111.41l-38.77-27.74-4.4,107.51,12.39-40.48,29.18,40.48s-19.99-53.75-19.99-53.75l21.58-26.01ZM187.44,122.03l-1-18.58,14.19,12.74-13.19,5.84Z"/>
    <polygon points="276.58 83.67 229.81 137.42 279.78 191.18 256.59 143.26 278.78 137.42 255.99 128.66 276.58 83.67"/>
    <polygon points="294.16 83.67 321.94 191.18 340.53 83.67 320.35 138.75 294.16 83.67"/>
  </g>
  <polygon points="214.13 191.54 214.13 232.07 184.78 232.07 179.89 265.62 217.62 265.62 217.62 297.06 255.34 297.06 255.34 265.62 289.6 262.82 287.5 227.88 256.06 229.98 251.17 191.54 214.13 191.54"/>
  <polyline class="cls-2" points="53.12 412.82 94.44 410.06 116.48 390.45"/>
  <polyline class="cls-2" points="45.14 441.53 81.18 443.28 113.66 423.58 136.18 397.13"/>
  <polyline class="cls-2" points="346.74 393.96 369.3 412.95 412.14 414.65"/>
  <polyline class="cls-2" points="329.53 404.27 351.44 429.13 382.36 446.74 408.26 445.78 433.47 441.36"/>
</svg>