<?xml version="1.0" encoding="UTF-8"?>
<svg viewBox="0 0 614.17 741.97" xmlns="http://www.w3.org/2000/svg">
<defs>
<style>svg {
	fill: #fff;
	stroke: #000;
      }
      .cls-1 {
        fill: #000;
      }

      .cls-2 {
        stroke-width: 5px;
      }

      .cls-2, .cls-3, .cls-4 {
        stroke-miterlimit: 10;
      }

      .cls-3 {
        stroke-width: 4px;
      }
      .cls-4 {
        stroke-width: 3px;
      }
      </style>
</defs>
<polyline points="546.92 95.92 556.7 72 546.92 44.8 495.21 24 470.91 0.17 398.74 0.17 369.8 24.34 365.38 42.04 325.55 35.23 284.02 62.81 275.5 77.79 252.62 97.87 235.67 103.34 235.68 143.67 211.67 178.72 218.39 201.7 225.12 206.13 223.76 236.43 231.93 271.34 247.67 296.43 302.82 296.43 312.63 275.13 337 250.33 351.76 185.36 546.92 95.92"/>
<polygon class="cls-1" points="455.76 0 445.85 18.38 447.33 33.7 462.4 29.11 451.67 28.6 449.12 18.38"/>
<path class="cls-1" d="m519.33 33.7c-1.28 0.51-11.74 4.6-11.74 4.6s0.77 9.19 0 9.7 4.09-8.17 4.09-8.17l7.66-6.13z"/>
<polygon class="cls-1" points="365.38 42.04 373.29 57.96 367.67 72.26 350.31 79.15 337.29 74.3 337.29 63.32 335.5 77.87 352.1 81.96 373.29 71.23 376.87 55.4"/>
<polygon class="cls-1" points="247.67 296.43 249.97 275.13 261.55 265.36 275.5 269.11 263.93 271.83 253.39 277.81"/>
<polyline points="277.23 391.07 274.22 423.59 288.15 470.65 314.88 498.46 316.76 523.7 314.88 542.1 483.93 504.45 493.72 503.59 520.07 518.14 547.56 521.99 552.08 530.98 537.77 533.97 536.64 545.52 541.53 557.08 541.53 570.34 550.57 574.62 561.86 571.62 559.98 552.8 573.16 566.06 586.71 587.88 592.36 587.88 601.02 593.87 610.43 591.73 605.16 583.17 613.07 581.89 613.07 575.47 596.88 560.93 581.07 537.39 556.7 480.49 543.05 462.89 523.9 449.41 505.77 452.68 483.18 428.29 472.26 415.03 465.86 398.34 451.17 382.51 437.62 380.25 433.47 371.81 431.22 367.11"/>
<polygon points="314.88 417.49 299.75 423.27 260.44 424.27 229.59 416.92 205.26 426.87 194.76 412.17 170.29 384.4 159.1 340.58 155.06 320.32 151.18 310.08 137.52 316.4 128.83 320.84 121.22 324.13 109.04 323.81 95.42 310.05 95.45 297.8 101.33 294.46 101.29 286.41 106.48 284.41 109.23 279.05 117.32 273.89 123.36 271.49 127.93 273.83 124.65 275.54 127.6 279.16 135.27 288.59 145.85 292.33 167.81 283.27 180.13 301.44 196.27 306.54 217.21 317.27 234.43 334.78 243.29 332.98 265.27 333.24 412.33 373.31"/>
<polygon class="cls-1" points="308.73 381.23 333.33 448.26 357.93 472.5 389.55 472.5 361.19 466.51 338.35 443.41"/>
<polygon class="cls-1" points="217.97 352.99 214.05 345.63 201.95 342.1 199.77 354.1 219.08 373.31 238.21 370.56 242.14 346.47 239.35 333.78 238.25 348.44 234.29 366.16 221.26 369.07 203.2 353.04 204.12 345.61 211.98 346.54"/>
<polygon class="cls-1" points="194.76 412.17 190.47 403.49 190.24 395.19"/>
<polygon class="cls-1" points="229.59 416.92 236.77 415.1 240.09 408.62"/>
<polygon class="cls-1" points="472.26 415.03 464.16 405.94 452.68 400.91"/>
<polygon class="cls-1" points="505.77 452.68 507.84 462.41 502.09 470.11 495.98 462.73 495.98 458.67 494.47 464.02 502.19 473.11 510.38 461.24"/>
<line class="cls-4" x1="571.41" x2="608.64" y1="566.06" y2="585.97"/>
<polygon class="cls-1" points="547.56 521.99 555.73 523.28 560.25 527.7"/>
<polygon class="cls-1" points="314.88 498.46 325.69 503.87 342.37 505.24 322.63 507.28"/>
<polygon class="cls-2" points="429.18 398.68 401.95 472.5 367.56 520.21 314.88 542.1 316.76 523.7 315.21 502.87 278.03 521.99 230.03 538.6 176.93 545.07 221.18 583.87 316.5 600.21 424.76 580.81 455.05 529.75 465.27 534.51 452.68 572.64 465.27 576.01 474.12 576.01 475.82 585.97 478.54 585.97 480.93 571.96 478.54 560.04 498.05 551.53 466.63 459.28 438.04 397.32 438.04 385.41 434.77 374.46 425.1 374.46 423.39 385.41"/>
<polygon class="cls-1" points="430.2 406.51 426.8 458.6 395.14 524.85 345.44 587.96 403.56 524.85 433.88 455.19"/>
<polygon class="cls-1" points="433.88 415.03 446.2 472.5 454.03 524.85 448.93 468.13"/>
<polygon class="cls-1" points="468.09 533.15 484.54 539.43 495.45 550.42"/>
<polygon class="cls-1" points="475.59 558.62 465.82 563.6 455.8 570.94"/>
<polygon class="cls-1" points="314.88 517.96 286.33 548.98 225.44 583.83 294.25 547.32"/>
<polygon points="351.62 376.45 314.48 317.28 335.78 235.12 347.98 168.32 340.42 148.56 340.42 112.91 361.61 79.13 398.77 77.76 409.88 89.06 420.77 79.59 447.2 70.97 464.88 38.76 497.18 49.29 528.61 77.7 551.92 93.24 551.92 136.63 538.22 150.33 546.07 164.97 542.9 211.23 530.28 228.58 511.23 221.21 511.49 227.43 515.59 257.46 493.92 264.69 453.95 249.63 454.94 260.52 460.37 273.17 486.25 271.36 491.09 285.88 525.44 285.88 561.8 383.93 511.59 398.66 432.74 405.33"/>
<path class="cls-1" d="m467.27 44.8 27.34 8.92 30.91 27.94 21.4 14.27v38.64l-14.86 14.86 8.92 16.64-2.97 43.39-9.51 13.08-22.59-8.74 0.59 14.09 3.57 26.15-16.05 5.35-45.77-17.24 1.78 19.62 7.13 16.64 25.56-1.78 4.76 14.27h34.48l33.29 89.76-44.58 13.08-77.27 6.54-78.46-27.94-35.07-55.87 20.8-80.25 12.48-68.36-7.73-20.21v-33.29l19.02-30.31 32.31-1.19 12.87 13.08 13.67-11.89 27.34-8.92 16.64-30.31m-4.77-12.1-3.99 7.26-14.74 26.85-23.58 7.69-1.93 0.63-8.11 7.05-6.27-6.37-3.09-3.14-4.4 0.16-32.31 1.19-5.29 0.19-2.81 4.48-19.02 30.31-1.53 2.44v38.01l0.66 1.72 6.73 17.6-11.91 65.24-20.71 79.89-1.08 4.17 2.29 3.65 35.07 55.87 1.85 2.94 3.27 1.16 78.46 27.94 2.04 0.73 2.16-0.18 77.27-6.54 1-0.08 0.97-0.28 44.58-13.08 10.29-3.02-3.73-10.05-33.29-89.76-2.42-6.52h-34.22l-2.48-7.43-1.55-4.65 3.15 1.19 3.37-1.12 16.05-5.35 7.87-2.62-1.12-8.22-3.27-23.99 8.18 3.17 7.17 2.78 4.52-6.22 9.51-13.08 1.69-2.33 0.2-2.87 2.97-43.39 0.2-2.87-1.36-2.54-5.41-10.1 12.54-12.54v-48.13l-4.45-2.97-20.79-13.86-30.36-27.44-1.58-1.43-2.02-0.66-27.34-8.92-7.88-2.57zm-2.65 226.56-0.2-2.15 24.82 9.35-2.45 0.17-18.47 1.29-3.71-8.66z"/>
<polyline class="cls-3" points="509.03 217.62 434.58 176.76 382.67 132.97 414.37 85.02"/>
<polyline class="cls-3" points="509.03 219.36 487.68 195.19 486.1 178.15 494.81 167.84"/>
<polyline class="cls-3" points="452.81 246.9 403.08 213.79 414.37 246.3 422.69 294.45 437.55 303.37 466.09 300.4 509.03 282.56"/>
<line class="cls-3" x1="462.82" x2="420.28" y1="275.13" y2="280.49"/>
<line class="cls-3" x1="354.93" x2="363.85" y1="372.32" y2="339.33"/>
<line class="cls-3" x1="434.28" x2="433.39" y1="353.3" y2="400.26"/>
<line class="cls-3" x1="497.56" x2="510.67" y1="326.75" y2="393.72"/>
<line class="cls-3" x1="403.08" x2="389.45" y1="325.36" y2="384.61"/>
<line class="cls-3" x1="384.65" x2="406.1" y1="176.56" y2="152.73"/>
<polygon class="cls-1" points="495.21 113.16 495.21 133.37 509.03 143.67 509.03 130.2"/>
<polygon class="cls-1" points="275.5 77.79 291.85 92.43 302.57 113.16 300.53 118.98 295.42 118.98 302.57 122.04 307.93 111.32 291.72 85.02"/>
<polygon points="136.98 293.24 126.11 282.84 127.53 267.69 142.34 255.46 121.21 249.56 249.76 145.54 255.3 165.17 280.64 138.47 257.82 139.17 338.03 79.54 344.65 86.99 312.46 121.03 329.17 119.62 249.26 206.18 244.35 192.46 195.93 234.94 213.41 239.49 150.03 294.2"/>
<path class="cls-1" d="M341.01,83.56l-41.19,43.55,16.95-1.42-65.59,71.04-4.61-12.87-61.03,53.55,17.39,4.53-54.61,47.13-9.19-.68-7.83-7.49,1-10.67,20.61-17-21.03-5.87,115.12-93.16,5.86,20.79,39.76-41.88-19.05.58,67.44-50.13M335.05,75.53l-67.44,50.13-15.09,11.22h0s-.04.03-.04.03l-10.41,7.74.88-.03-2.22,1.8-115.12,93.16-15.07,12.2,18.68,5.21,2.57.72-5.82,4.81-3.2,2.64-.39,4.14-1,10.67-.45,4.82,3.5,3.34,7.83,7.49,2.59,2.48,3.58.27,9.19.68,4.13.31,3.14-2.71,54.61-47.13,14.42-12.45-17.57-4.58,35.8-31.41,5.21,14.57,11.2-12.13,65.59-71.04,17.45-18.9-16.49,1.38,23.19-24.52-13.23-14.9h0ZM254.6,144.27l14.04-.43-10.92,11.5-1.09-3.86-2.03-7.21h0Z"/>
<polygon points="60.51 362.16 30.97 388.95 6.42 349.72 88.04 273.15 92.96 299.38 100.89 289.29 105.04 307.92 102.05 311.74 103.73 319.4 122.6 331.53 61.77 391.04"/>
<path class="cls-1" d="M84.81,283.03l5.28,28.11,8.22-10.46,1.34,6.02-2.98,3.82,2.63,11.97,15.33,9.85-48.34,47.3-1.24-28.34-32.99,29.92-19.2-30.68,71.97-67.51M91.27,263.26l-13.3,12.48L6,343.26l-6,5.63,4.36,6.97,19.2,30.68,6.34,10.13,8.85-8.03,17.22-15.62.31,7.06.98,22.37,16-15.66,48.35-47.3,8.97-8.78-10.56-6.78-11.86-7.62-.73-3.34.09-.11,2.91-3.72-1.03-4.61-1.34-6.02-4.59-20.6-7.63,9.72-1.21-6.43-3.37-17.93h0Z"/>
<polygon points="598.73 616.67 536.57 667.35 584.87 703.37 534.59 737.42 614.17 703.77 558.74 667.74"/>
<polygon points="518.59 620.19 508.59 641.24 529.53 620.19"/>
<path d="m434.6 621.98 1.3 119.99 19.96-56.92 36.66 54.53-26.02-67.57s25.58-52.71 24.76-52.77-41.34 48.09-41.34 48.09l-15.31-45.36z"/>
<polygon points="405.88 621.18 350.95 678.36 412.63 740.04 376.33 682.06 416.48 678.68 383.72 670.49"/>
<path d="m341.7 652.72-68.57-36.05-9.08 121.68 23.94-44.17 53.71 40.56-38.82-52.28 38.82-29.74zm-57.43 16.53v-27.84l28.64 16.42-28.64 11.42z"/>
<polygon points="206.81 616.67 134.81 672.59 190.73 732.33 252.26 690.97 208.35 674.5 221.58 694.8 193.54 707.82 158.13 674.5"/>
<polygon points="116.43 597.11 104.61 626.67 128.58 625.03 113.8 619.77"/>
<polygon points="143.08 595.7 126.28 613.18 145.14 632.03 134.04 614.31 146.32 613.27 136.3 610.77"/>
<polygon points="168.08 597.21 152.97 609.53 164.71 618.29 152.48 626.57 171.84 618.39 158.36 609.63"/>
</svg>
