<?xml version="1.0" encoding="UTF-8"?>
<svg xmlns="http://www.w3.org/2000/svg" viewBox="0 0 680 1040">
  <defs>
    <style>
      .cls-1 {
        fill: #fff;
      }

      .cls-2 {
        fill: none;
      }

      .cls-2, .cls-3, .cls-4 {
        stroke: #fff;
        stroke-miterlimit: 10;
      }

      .cls-3 {
        stroke-width: 3px;
      }
    </style>
  </defs>
  <g id="Calque_11">
    <rect class="cls-1" x="0" width="706.28" height="1080"/>
  </g>
  <g id="Logo">
    <g id="Moitié_1">
      <path d="M286.46,200.23l-11.12,3.12s-9.69,8.31-9.69,9.87,2.51,16.1,2.51,16.1c0,0,10.4,8.31,11.48,8.83s16.5,0,16.5,0c0,0,8.61-3.12,10.04-4.16s7.53-7.79,7.53-9.35-1.43-17.66-1.43-17.66l-6.82-6.75h-19.01Z"/>
      <path d="M320.54,194.51l-10.04-5.71-20.45-3.64h-22.6l-11.48,15.07-2.15,10.39v21.82l3.23,12.18,12.2,11.2h32.64l11.84-6.23,5.02-4.96s2.15-6.98,2.87-8.54,3.23-12.99,3.23-12.99v-15.07l-4.3-13.51ZM318.75,227.24l-12.56,17.14s-11.48-.52-12.56,0c-1.08.52-17.22,0-17.22,0l-9.33-6-5.74-11.14v-22.34l7.53-4.68,12.56-5.71h25.11l7.17,5.71,5.02,11.95v15.07Z"/>
      <polygon points="345.52 184.78 339.88 264.27 328.61 257.5 317.33 264.27 304.37 275.54 309.82 284 331.99 284 336.19 279.36 342.01 278.86 346.27 286.06 353.79 286.82 353.79 184.78 345.52 184.78"/>
      <polygon points="345.52 184.78 313.73 167.5 274.49 165.62 245.93 176.89 232.4 184.78 232.4 163.36 261.35 150.21 290.05 145.7 324.85 145.7 345.52 161.48 353.79 167.12 353.79 184.78 345.52 184.78"/>
      <polygon points="230.56 186.62 209.89 187 211.77 194.16 220.23 196.02 220.23 229.47 226.8 260.66 241.08 282.08 270.77 288.66 287.49 290.35 297.45 288.66 300.84 279.82 294.82 273.81 288.21 275.69 288.21 280.95 263.82 275.69 243.34 260.66 230.56 210.68 230.56 186.62"/>
      <polygon points="297.45 288.66 286.89 294.89 277.12 302.39 272.99 312.23 272.99 323.24 272.99 339.88 277.12 349.25 285.22 355.35 293.09 356.75 293.09 361.91 278.62 363.08 265.66 354.88 257.96 342.93 257.96 330.04 261.35 306.37 272.24 296.76 287.49 289.71 297.45 288.66"/>
      <polygon points="304.37 308.58 324.85 305.41 353.79 301.61 353.79 295.27 318.75 297.17 295.91 300.98 290.05 310.48 287.64 325.69 287.64 340.59 293.09 347.87 329.08 351.36 353.79 351.36 353.79 343.12 324.85 343.12 304.37 339.95 297.45 332.66 297.45 318.4 304.37 308.58"/>
      <polygon points="304.37 307.81 304.37 319.49 319.33 320.87 317.66 305.5 304.37 307.81"/>
      <polygon points="325.86 304.23 324.4 319.55 342.59 318.55 340.22 302.11 325.86 304.23"/>
      <polygon points="345.91 300.97 343.97 317.8 353.39 317.8 353.39 300.17 345.91 300.97"/>
      <polygon points="276.28 102.83 277.7 125.38 284.45 133.27 324.85 134.96 353.79 149.62 353.79 129.6 293.09 125.09 285.86 117.77 285.86 101.98 297.45 98.6 353.79 101.98 353.79 93.24 289.69 91.27 276.28 102.83"/>
      <path d="M324.85,121.71l-6.1-10.99h-14.38v5.5l10.66,1.55s.99,4.79,0,5.07-21-2.4-21-2.4l-3.98-11.98,4.54-6.76,59.19,3.95v20.58l-28.94-4.51Z"/>
      <polygon points="223.01 165.24 209.89 162.61 209.89 149.62 265.66 137.81 268.48 120.44 271.11 91.27 277.7 83.69 353.39 85.57 353.39 58.89 227.14 58.89 216.62 66.03 213.99 79.56 215.86 99.85 218.87 126.22 245.18 130.29 261.35 128.04 259.83 120.44 232.4 120.44 229.02 103.61 225.26 81.44 230.52 70.16 250.81 67.91 342.59 67.53 345.52 74.3 342.59 80.69 276.28 78.43 261.35 88.2 257.96 108.87 255.36 132.17 226.76 139.31 204.21 142.32 200.08 156.6 203.46 173.51 218.87 175.77 227.89 172.01 223.01 165.24"/>
      <polygon points="241.29 121.77 239.04 109.5 239.04 97.1 244.55 93.59 262.72 94.97 264.59 101.7 255.57 101.7 246.56 105.87 246.81 117.33 248.69 122.9 240.54 123.9 241.29 121.77"/>
      <path d="M223.01,200.23c-1.13,1.47-14.9,2.97-14.9,2.97l-12.53,8.27v10.9l4.51,10.15,9.81,3.29h15.37l3.76-7.05-11.27-1.13-7.85-1.13s-1.28-5.26-1.79-6.01,1.79-5.64,1.79-5.64l8.6-5.26,10.52-.38-6.01-8.99Z"/>
      <path d="M257.6,303.91l-3.55-8.64h-20.92l-15.78-8.46-5.22-15.6-4.92-5.26v34.21l7.33,28.18,6.95,14.28,9.77,2.63,15.41,6.11-3.01-15.88,6.01-20.29,7.93-11.27ZM239.04,323.32l-10.02,9.16-7.14-12.93-3.01-14.05,14.09-3.39,14.09,3.39-8.02,17.82Z"/>
      <polygon points="339.88 389.6 321.92 389.6 311.85 389.6 307.56 386.97 307.56 379.26 309.19 368.93 313.73 363.08 324.4 363.08 345.52 364.8 351.15 364.8 353.12 368.78 353.79 358.78 320.71 356.15 302.68 358.78 300.84 367.43 290.05 371.56 274.11 371.56 264.59 382.83 265.66 397.87 282.01 400.5 311.85 397.87 338.38 400.5 353.39 400.5 353.39 389.6 339.88 389.6"/>
      <path d="M261.15,368.78l-11.65-2.67-3.19-9.96-13.34-6.2-11.27-1.88-8.27,6.95-1.88,17.47,3.95,10.33,7.33,13.34,19.82,1.88,14.96,1.32v-6.01l2.05-13.34,3.95-7.14-2.44-4.1ZM245.74,387.72l-14.47,1.69-9.77-12.4-.94-13.93,6.39-6.18,11.65,3.38,2.25,8.49s12.03,6.91,12.97,7.1c.94.19-8.08,11.84-8.08,11.84Z"/>
      <path d="M322.78,367.43l-8.27,1.35-2.67,5.98v6.58l3.79,3.38h6.39l3.95-3.38-1.13-5.26-3.38,2.25-2.55,2.25-1.77-5.45,7.26-3.19,5.71,1.79,2.44,7.42v3.57s3.95,1.5,4.51,1.69,5.53,0,5.53,0c0,0,6.24-.19,6.09-.94s0-6.57,0-6.57h4.91l.57-7.71-18.98-3.76h-12.4Z"/>
    </g>
    <g id="Calque_3">
      <path d="M420.35,200.23l11.12,3.12s9.69,8.31,9.69,9.87-2.51,16.1-2.51,16.1c0,0-10.4,8.31-11.48,8.83s-16.5,0-16.5,0c0,0-8.61-3.12-10.04-4.16s-7.53-7.79-7.53-9.35,1.43-17.66,1.43-17.66l6.82-6.75h19.01Z"/>
      <path d="M381.96,208.02v15.07s2.51,11.43,3.23,12.99,2.87,8.54,2.87,8.54l5.02,4.96,11.84,6.23h14.71s17.94,0,17.94,0l12.2-11.2,3.23-12.18v-21.82s-2.15-10.39-2.15-10.39l-11.48-15.07h-22.6s-20.45,3.64-20.45,3.64l-10.04,5.71-4.3,13.51ZM388.06,212.17l5.02-11.95,7.17-5.71h8.25s16.86,0,16.86,0l12.56,5.71,7.53,4.68v10.39s0,11.95,0,11.95l-5.74,11.14-9.33,6s-16.14.52-17.22,0c-1.08-.52-12.56,0-12.56,0l-12.56-17.14v-15.07Z"/>
      <polygon points="361.29 184.78 366.93 264.27 378.2 257.5 389.48 264.27 402.44 275.54 396.99 284 374.82 284 370.63 279.36 364.8 278.86 360.54 286.06 353.03 286.82 353.03 184.78 361.29 184.78"/>
      <polygon points="361.29 184.78 393.08 167.5 432.32 165.62 460.88 176.89 474.41 184.78 474.41 163.36 445.46 150.21 416.76 145.7 381.96 145.7 361.29 161.48 353.03 167.12 353.03 184.78 361.29 184.78"/>
      <polygon points="476.25 186.62 496.92 187 495.04 194.16 486.59 196.02 486.59 229.47 480.01 260.66 465.73 282.08 436.04 288.66 419.32 290.35 409.36 288.66 405.98 279.82 411.99 273.81 418.6 275.69 418.6 280.95 442.99 275.69 463.47 260.66 476.25 210.68 476.25 186.62"/>
      <polygon points="409.36 288.66 419.92 294.89 429.69 302.39 433.82 312.23 433.82 323.24 433.82 339.88 429.69 349.25 421.59 355.35 413.72 356.75 413.72 361.91 428.19 363.08 441.15 354.88 448.86 342.93 448.86 330.04 445.46 306.37 434.58 296.76 419.32 289.71 409.36 288.66"/>
      <polygon points="402.44 308.58 381.96 305.41 353.03 301.61 353.03 295.27 388.06 297.17 410.9 300.98 416.76 310.48 419.17 325.69 419.17 340.59 413.72 347.87 377.73 351.36 353.03 351.36 353.03 343.12 381.96 343.12 402.44 339.95 409.36 332.66 409.36 318.4 402.44 308.58"/>
      <polygon points="402.44 307.81 402.44 319.49 387.48 320.87 389.15 305.5 402.44 307.81"/>
      <polygon points="380.96 304.23 382.41 319.55 364.22 318.55 366.59 302.11 380.96 304.23"/>
      <polygon points="360.91 300.97 362.85 317.8 353.43 317.8 353.43 300.17 360.91 300.97"/>
      <polygon points="430.54 102.83 429.11 125.38 422.36 133.27 381.96 134.96 353.03 149.62 353.03 129.6 413.72 125.09 420.95 117.77 420.95 101.98 409.36 98.6 353.03 101.98 353.03 93.24 417.12 91.27 430.54 102.83"/>
      <path d="M381.96,121.71l6.1-10.99h14.38v5.5s-10.66,1.55-10.66,1.55c0,0-.99,4.79,0,5.07s21-2.4,21-2.4l3.98-11.98-4.54-6.76-59.19,3.95v20.58s28.94-4.51,28.94-4.51Z"/>
      <polygon points="483.81 165.24 496.92 162.61 496.92 149.62 441.15 137.81 438.33 120.44 435.7 91.27 429.11 83.69 353.43 85.57 353.43 58.89 479.67 58.89 490.19 66.03 492.83 79.56 490.95 99.85 487.94 126.22 461.63 130.29 445.46 128.04 446.98 120.44 474.41 120.44 477.79 103.61 481.55 81.44 476.29 70.16 456 67.91 364.22 67.53 361.29 74.3 364.22 80.69 430.54 78.43 445.46 88.2 448.86 108.87 451.45 132.17 480.05 139.31 502.6 142.32 506.73 156.6 503.35 173.51 487.94 175.77 478.92 172.01 483.81 165.24"/>
      <polygon points="465.52 121.77 467.77 109.5 467.77 97.1 462.26 93.59 444.1 94.97 442.22 101.7 451.24 101.7 460.26 105.87 460 117.33 458.13 122.9 466.27 123.9 465.52 121.77"/>
      <path d="M483.81,200.23c1.13,1.47,14.9,2.97,14.9,2.97l12.53,8.27v10.9s-4.51,10.15-4.51,10.15l-9.81,3.29h-15.37s-3.76-7.05-3.76-7.05l11.27-1.13,7.85-1.13s1.28-5.26,1.79-6.01-1.79-5.64-1.79-5.64l-8.6-5.26-10.52-.38,6.01-8.99Z"/>
      <path d="M457.14,315.19l6.01,20.29-3.01,15.88,15.41-6.11,9.77-2.63,6.95-14.28,7.33-28.18v-34.21s-4.92,5.26-4.92,5.26l-5.22,15.6-15.78,8.46h-20.92s-3.55,8.64-3.55,8.64l7.93,11.27ZM459.75,305.5l14.09-3.39,14.09,3.39-3.01,14.05-7.14,12.93-10.02-9.16-8.02-17.82Z"/>
      <polygon points="366.93 389.6 384.89 389.6 394.96 389.6 399.25 386.97 399.25 379.26 397.62 368.93 393.08 363.08 382.41 363.08 361.29 364.8 355.66 364.8 353.12 368.78 353.03 358.78 386.1 356.15 404.14 358.78 405.98 367.43 416.76 371.56 432.7 371.56 442.22 382.83 441.15 397.87 424.8 400.5 394.96 397.87 368.43 400.5 353.39 400.5 353.3 389.6 366.93 389.6"/>
      <path d="M443.22,372.87l3.95,7.14,2.05,13.34v6.01s14.96-1.32,14.96-1.32l19.82-1.88,7.33-13.34,3.95-10.33-1.88-17.47-8.27-6.95-11.27,1.88-13.34,6.2-3.19,9.96-11.65,2.67-2.44,4.1ZM452.99,375.88c.94-.19,12.97-7.1,12.97-7.1l2.25-8.49,11.65-3.38,6.39,6.18-.94,13.93-9.77,12.4-14.47-1.69s-9.02-11.65-8.08-11.84Z"/>
      <path d="M384.03,367.43l8.27,1.35,2.67,5.98v6.58s-3.79,3.38-3.79,3.38h-6.39s-3.95-3.38-3.95-3.38l1.13-5.26,3.38,2.25,2.55,2.25,1.77-5.45-7.26-3.19-5.71,1.79-2.44,7.42v3.57s-3.95,1.5-4.51,1.69-5.53,0-5.53,0c0,0-6.24-.19-6.09-.94s0-6.57,0-6.57h-4.91s-.57-7.71-.57-7.71l18.98-3.76h12.4Z"/>
      <polygon points="379.22 427.36 265.63 434.5 206.53 412.04 150.02 323.88 127.65 265.34 101.31 253.83 71.38 272.12 86.81 288.36 113.28 311.2 140.81 376.34 183.23 444.26 234.57 489.65 278.4 513.72 275.36 584.21 226.46 599.32 205.28 629.57 195.88 674.5 166.63 686.76 171.94 703.1 244.48 703.1 248.45 672.46 282.38 636.72 316.02 619.74 384.74 621.52 469.84 636.72 528.72 659.19 556.56 672.46 575.29 630.59 582.54 603.95 555.68 603.95 532.12 621.52 485.22 599.32 442.11 579.09 442.11 510.08 459.75 540 477.79 560.06 499.61 575.38 521.26 560.83 543.47 534.02 545.07 512.2 525.09 515.7 506.73 527.34 486.25 505.23 459.75 456.73 433.94 434.45 379.22 427.36"/>
      <polygon points="88.49 145.7 94.5 600.66 118.36 600.66 113 145.7 88.49 145.7"/>
    </g>
    <polygon class="cls-3" points="273.18 570.79 342.59 575.89 406.62 573.34 442.11 565.68 442.11 579.09 406.11 583.04 419.17 605 397.62 598.87 394.96 585.34 373.81 587.64 378.02 605 378.54 621.36 362.69 620.95 357.65 603.98 354.16 589.17 302.96 585.6 273.18 578.96 273.18 570.79"/>
    <polygon points="99.04 53.51 82.02 85.16 76.57 119.25 80.32 145.7 95.64 156.26 113.15 158.72 124.23 150.9 125.94 129.48 120.83 99.51 99.04 53.51"/>
    <polygon class="cls-4" points="76.57 131.47 129 135.55 129 145.7 125.94 158.72 118.79 161.43 117.43 170.62 87.13 170.62 85.09 155.98 76.57 147.47 76.57 131.47"/>
    <line class="cls-2" x1="76.57" y1="137.94" x2="129" y2="142.7"/>
    <line class="cls-2" x1="127.5" y1="152.07" x2="81.94" y2="152.83"/>
    <line class="cls-2" x1="85.82" y1="161.27" x2="118.22" y2="165.24"/>
    <polygon class="cls-1" points="99.04 63.72 87.3 84.83 85.09 111.38 95.98 87.55 99.04 63.72"/>
    <polygon class="cls-3" points="273.18 570.79 342.59 575.89 406.62 573.34 442.11 565.68 442.11 579.09 406.11 583.04 419.17 605 397.62 598.87 394.96 585.34 373.81 587.64 378.02 605 378.54 621.36 362.69 620.95 357.65 603.98 354.16 589.17 302.96 585.6 273.18 578.96 273.18 570.79"/>
  </g>
  <g id="Titre">
    <g>
      <path d="M61.37,779.94v-.29c0-7.84,3.33-11.75,9.98-11.75h46.43c6.57,0,9.85,3.68,9.85,11.03v1.02l-8.13,205.06c-.33,7.64-3.69,11.46-10.1,11.46h-35.84c-6.57,0-9.89-3.92-9.98-11.76l-2.22-204.77Z"/>
      <path d="M166.38,958.35c-3.61,0-5.41-1.8-5.41-5.41v-112.2c0-4.12,2.06-6.17,6.17-6.17h15.55c2.54,0,4.67,1.07,6.4,3.2l26.98,33.62,1.75-32.62c.2-3.51,2.03-5.26,5.49-5.26h10.75c3.61,0,5.41,1.8,5.41,5.41v112.35c0,3.56-1.04,5.34-3.12,5.34h-12.88c-3.25,0-5.62-1.27-7.09-3.81l-24.7-42.68-4.5,43.14c-.36,3.4-2.26,5.11-5.72,5.11h-15.09Z"/>
      <path d="M278.23,979.05c-3.37,0-5.05-1.87-5.05-5.61v-202.24c0-7.29,3.24-11.03,9.73-11.21l40.89-1.09h.49c6.32,0,9.48,3.28,9.48,9.85v1.09l-3.82,73.16,58.99-101.05c.9-1.55,2.26-2.32,4.06-2.32h36.09c3.53,0,5.3,1.78,5.3,5.33,0,1.19-.29,2.24-.86,3.15l-57.52,112.81,42.86,111.72c1.15,2.92,1.72,5.38,1.72,7.38,0,4.65-2.96,6.97-8.87,6.97h-37.32c-5.34,0-9.07-2.33-11.21-6.97l-41.88-92.16-6.28,86.01c-.25,3.47-1.93,5.2-5.05,5.2h-31.78Z"/>
      <path d="M525.7,896.29c.31,1.07.46,2.03.46,2.9,0,2.95-1.78,4.42-5.34,4.42h-23.4c-2.24,0-3.91-1.09-5.03-3.28l-5.87-11.59-29.04-4.19-5.87,14.86c-1.12,2.8-3.2,4.19-6.25,4.19h-19.44c-3.1,0-4.65-1.3-4.65-3.89,0-1.02.23-2.24.69-3.66l35.98-112.58c.96-2.95,2.97-4.42,6.02-4.42h26.22c3.1,0,5.06,1.52,5.87,4.57l29.65,112.66ZM482.03,861.91l-7.7-24.32c-.46-1.47-1.4-2.21-2.82-2.21-1.58,0-2.62.84-3.12,2.52l-7.32,23.1c-.15.51-.23.97-.23,1.37,0,1.58,1.02,2.47,3.05,2.67l12.81,1.3c.46.05.91.08,1.37.08,2.74,0,4.12-1.02,4.12-3.05,0-.46-.05-.94-.15-1.45Z"/>
      <path d="M597.35,854.04c-3.75,0-5.62,1.47-5.62,4.42s2.09,5.1,6.26,6.08l17.59,4.24c9.21,2.21,15.87,5.71,19.99,10.5,2.95,3.44,4.42,9.89,4.42,19.34v29.2c0,9.46-3.62,16.92-10.87,22.38-6.51,4.91-14.68,7.37-24.5,7.37h-158.44c-4.36,0-6.54-2.18-6.54-6.54v-25.06c0-4.36,2.18-6.54,6.54-6.54h149.23c4.36,0,6.54-2.49,6.54-7.46,0-4.11-1.66-6.76-4.97-7.92l-22.48-7.74c-17.81-6.14-26.71-18.27-26.71-36.39v-17.32c0-9.83,2.78-17.39,8.34-22.71,5.56-5.31,13.25-7.97,23.07-7.97h57.29c4.36,0,6.54,2.18,6.54,6.54v29.02c0,4.36-2.18,6.54-6.54,6.54h-39.15Z"/>
      <g>
        <path d="M158.71,724.13c.91,0,1.38.45,1.43,1.36l1.92,74.09h11.89c1.88,0,2.82.94,2.82,2.82v15.48c0,1.88-.94,2.82-2.82,2.82h-22.76c-1.84,0-2.75-.89-2.75-2.68v-.21l2.13-92.32c.02-.91.5-1.36,1.43-1.36h6.73Z"/>
        <path d="M213.65,797.39l-.07,7.11c-.02,1.65-.85,2.47-2.47,2.47h-26.56c-2.56,0-3.85-1.29-3.87-3.87l-.28-48.38c-.02-2.32,1.15-3.49,3.52-3.49l26.49-.1c2.11,0,3.17,1.05,3.17,3.14v.03l-.07,11.02c-.02,2.12-1.08,3.17-3.17,3.17h-15.83c-.93,0-1.39.48-1.39,1.43v4.57c0,.86.42,1.34,1.25,1.43l15.23,1.85c.84.09,1.25.54,1.25,1.32v.03l-.07,4.95c-.02,1.65-.85,2.47-2.47,2.47l-13.25-.07c-1.65,0-2.47.83-2.47,2.47v4.46c0,.95.48,1.43,1.43,1.43l17.15.07c1.65,0,2.47.81,2.47,2.44v.03Z"/>
        <path d="M238.5,806.13c1.88,0,2.82-.94,2.82-2.82v-1.78c0-1.88-.94-2.82-2.82-2.82h-5.37c-3.58,0-6.61-1.23-9.1-3.69l-2.72-2.68c-2.23-2.21-3.35-5-3.35-8.37v-6.94c0-3.69,1.05-6.55,3.15-8.56,2.1-2.01,5-3.02,8.7-3.02h24.23c1.88,0,2.82.94,2.82,2.82v8.85c0,1.88-.94,2.82-2.82,2.82h-15.83c-1.88,0-2.82.94-2.82,2.82v1.05c0,1.88.94,2.82,2.82,2.82h4.5c3.35,0,6.04.79,8.09,2.37l1.67,1.29c2.16,1.67,3.24,4.28,3.24,7.81v11.29c0,3.49-1.31,6.22-3.94,8.19-2.63,1.98-5.71,2.96-9.24,2.96h-23.15c-.95,0-1.43-.48-1.43-1.43v-11.57c0-.95.48-1.43,1.43-1.43h19.1Z"/>
      </g>
    </g>
  </g>
</svg>