<svg xmlns="http://www.w3.org/2000/svg" viewBox="0 0 597.3119507 240"><path d="M-1.344 236.953h60.94V4.043h-60.94v232.91zm185.792-89.382h-.656L144.467 4.043h-68.15v232.909h57.018V93.112h.656l40.63 143.84h66.838V4.042h-57.01v143.529zm222.99-12.234c-4.913-8.803-11.09-15.926-18.51-21.359a107.625 107.625 0 0 0-23.92-13.22c-8.53-3.378-16.5-6.691-23.943-9.956-7.419-3.257-13.58-7.107-18.494-11.572-4.914-4.45-7.379-10.491-7.379-18.094 0-5.242 1.52-9.963 4.602-14.196 3.04-4.242 7.842-6.362 14.413-6.362 5.881 0 10.25 2.432 13.092 7.346 2.833 4.881 4.281 10.811 4.281 17.765v5.555h57.011c0-25.009-5.962-43.23-17.87-54.643C378.805 5.181 359.527-.54 332.886-.54c-25.776 0-44.999 6.21-57.667 18.606-12.676 12.396-19.014 30.458-19.014 54.154 0 13.692 2.336 24.808 7.05 33.26 4.69 8.498 10.587 15.34 17.686 20.566 7.098 5.225 14.805 9.46 23.12 12.716a611.189 611.189 0 0 1 23.095 9.627c7.09 3.153 12.98 6.97 17.686 11.428 4.69 4.45 7.058 10.5 7.058 18.086 0 6.338-1.704 11.652-5.073 15.997-3.417 4.346-8.251 6.538-14.597 6.538-5.898 0-10.692-2.016-14.42-6.057-3.706-4.018-5.563-11.02-5.563-21.04v-5.561h-58.971v8.17c0 12.172 1.744 22.392 5.233 30.65 3.482 8.283 8.563 14.973 15.23 20.071 6.65 5.122 14.86 8.707 24.568 10.78 9.73 2.049 20.927 3.089 33.595 3.089 26.873 0 47.408-5.578 61.62-16.798 14.189-11.187 21.295-29.193 21.295-53.986 0-14.14-2.457-25.616-7.378-34.42zM541.63 4.038h-76.674l-56.042 232.917h63.893l6.234-40.765h48.496l6.242 40.765h64.862L541.63 4.038zm-55.38 146.457l16.71-98.825h.632l16.742 98.825H486.25z" fill="#f4332f"/><path d="M598.656 178.837V3.93H557.37l41.286 174.906z" fill="#5e5f61"/></svg>