<?xml version="1.0" encoding="UTF-8"?>
<svg id="Calque_1" xmlns="http://www.w3.org/2000/svg" viewBox="0 0 724.81 819.58">
  <defs>
    <style>
      .cls-1 {
        fill: #fff;
      }

      .cls-2 {
        fill: #adadad;
      }

      .cls-2, .cls-3 {
        stroke: #000;
        stroke-miterlimit: 10;
        stroke-width: 5px;
      }

      .cls-3, .cls-4 {
        fill: #ea5b0c;
      }

      .cls-5 {
        fill: #ffce00;
      }

      .cls-6 {
        fill: #9e8169;
      }
    </style>
  </defs>
  <polygon points="338.59 129.76 159.14 181.07 38.28 311.21 0 487.86 54.94 654.8 192.93 775.19 359.8 807.98 516.11 757.86 614.99 665.39 677.7 495.93 647.32 328.38 576.01 226.74 494.32 167.55 338.59 129.76"/>
  <g>
    <polygon class="cls-5" points="81.51 640.69 601.51 115.49 623.2 132.38 93.8 657.5 81.51 640.69"/>
    <path d="M601.73,118.83l17.7,13.78L94.1,653.68l-9.32-12.75L601.73,118.83M601.3,112.16l-3.12,3.15L81.23,637.41l-3,3.03,2.52,3.44,9.32,12.75,3.43,4.69,4.13-4.09L622.94,136.16l4.04-4-4.48-3.49-17.7-13.78-3.5-2.73h0Z"/>
  </g>
  <g>
    <polygon class="cls-4" points="242.4 459.88 114.49 441.6 78.2 397.07 57.43 328.07 51.26 268.5 58.2 181.29 90.88 98.82 180.85 59.12 151.41 101.77 139.37 144.61 145.2 217.83 182.24 274.29 510.66 395.85 557.98 435.82 608.21 477.61 629.18 549.89 635.38 643.18 592.29 707.94 507.63 733.93 242.4 459.88"/>
    <path d="M173.77,64.98l-24.65,35.71-12.28,43.68,5.92,74.3,37.84,57.68,328.78,121.7,46.98,39.69,49.66,41.31,20.68,71.29,6.13,92.17-42.13,63.32-82.34,25.28L243.6,457.53l-127.79-18.27-35.36-43.39-20.56-68.3-6.13-59.1,6.89-86.61,32.17-81.16,80.94-35.71M187.92,53.27l-16.18,7.14-80.94,35.71-1.87.83-.76,1.9-32.17,81.16-.28.7-.06.75-6.89,86.61-.04.46.05.46,6.13,59.1.05.47.14.45,20.56,68.3.29.95.63.77,35.36,43.39,1.23,1.51,1.93.28,126.1,18.03,263.57,272.33,2.13,2.2,2.93-.9,82.34-25.28,1.71-.52.99-1.49,42.13-63.32.94-1.41-.11-1.69-6.13-92.17-.04-.54-.15-.52-20.68-71.29-.43-1.47-1.18-.98-49.66-41.31-46.95-39.67-.67-.57-.82-.3-327.24-121.12-36.24-55.23-5.75-72.13,11.81-42.01,24.17-35.03,10.04-14.55h0Z"/>
  </g>
  <polygon points="461.13 799.77 592.03 752.33 530.23 742.58 464.19 771.18 461.13 799.77"/>
  <g>
    <polygon class="cls-5" points="261.15 817.08 264.91 685.94 205.02 800.45 101.15 739.57 206.53 581.5 226.43 491.81 189.82 456.67 272.85 422.61 420.5 422.3 468.66 467.93 479.36 552.49 522.04 616.5 585.52 752.09 519.19 764.87 460.31 797.82 421.58 754.74 380.78 675.53 380.78 817.08 261.15 817.08"/>
    <path d="M419.51,424.8l46.78,44.33,10.66,84.26,42.89,64.34,62.04,132.51-63.57,12.26-57.49,32.17-37.17-41.36-45.38-88.09v149.36h-114.55l3.99-139.4-63.69,121.79-99.32-58.21,104.17-156.26,20.3-91.52-34.85-33.45,79.02-32.43,146.17-.3M421.5,419.8h-2s-146.17.31-146.17.31h-.98s-.91.37-.91.37l-79.02,32.43-7.11,2.92,5.54,5.32,32.83,31.5-19.49,87.86-103.65,155.48-2.94,4.41,4.57,2.68,99.32,58.21,4.53,2.65,2.43-4.65,53.65-102.57-3.37,117.73-.15,5.14h124.7v-133.74l35.94,69.75.3.57.43.48,37.17,41.36,2.67,2.97,3.49-1.95,56.78-31.78,62.78-12.1,6.3-1.22-2.72-5.81-62.04-132.51-.16-.34-.21-.31-42.24-63.36-10.51-83.09-.22-1.77-1.3-1.23-46.78-44.33-1.45-1.37h0Z"/>
  </g>
  <path class="cls-3" d="M243.55,245.7h-21.93l-16.37,9.53-6.47,16,28.26,3.74s30.3-9.53,30.3-10.55-13.79-18.72-13.79-18.72Z"/>
  <g>
    <polygon class="cls-5" points="248.64 393.79 154.71 325.57 199.41 263.65 217.73 265.74 243.03 245.69 279.99 242.86 420.96 248.49 464.36 257.38 535.38 337.28 499.37 427.84 248.64 393.79"/>
    <path d="M280.04,245.36l140.63,5.62,42.38,8.68,69.45,78.13-34.72,87.32-248.17-33.7-91.4-66.39,42.38-58.72,17.9,2.04,25.5-20.22,36.05-2.76M279.94,240.35l-.29.02-36.05,2.76-1.53.12-1.2.95-23.88,18.93-15.85-1.81-2.91-.33-1.71,2.37-42.38,58.72-2.92,4.04,4.03,2.93,91.4,66.39,1.02.74,1.25.17,248.17,33.7,3.87.53,1.44-3.63,34.72-87.32,1.14-2.86-2.05-2.3-69.45-78.13-1.1-1.24-1.63-.33-42.38-8.68-.4-.08-.41-.02-140.63-5.62h-.29Z"/>
  </g>
  <polygon points="555.24 418.47 572.58 420.93 586.62 415.91 581 372.13 542.45 351.57 502.11 354.38 509 395.49 555.24 418.47"/>
  <polygon points="110.7 367.4 117.34 381.19 130.11 386.81 158.7 367.4 158.7 340.85 133.62 348 110.7 367.4"/>
  <polygon class="cls-3" points="278.7 207.06 284.32 237.19 267.72 268.85 287.9 288.25 333.34 294.22 382.36 284.17 417.6 266.3 422.7 240.76 436.49 214.59 436.49 202.02 278.7 207.06"/>
  <g>
    <polygon class="cls-4" points="389.98 490.36 351.27 478.53 311.76 462.72 200.73 435.26 198.03 383.35 217.06 362.2 235.35 356.06 256.22 364.09 284.59 378.2 364.14 392.36 425.92 359.18 451.83 338.45 481.06 335.08 488.99 356.78 497.68 359.98 543.63 380.11 564.34 400.82 561.38 413.86 540.43 444.75 525.14 455.61 522.1 480.92 505.93 496.54 491 496.54 461 493.49 430.81 496.56 389.98 490.36"/>
    <path d="M479.39,337.78l7.66,20.94,9.7,3.57,45.45,19.91,19.4,19.4-2.55,11.23-20.43,30.13-15.83,11.23-3.06,25.53-14.81,14.3h-13.79l-30.13-3.06-30.13,3.06-40.34-6.13-38.43-11.74-39.57-15.83-109.4-27.06-2.55-49.02,17.9-19.89,16.82-5.64,19.92,7.66,28.58,14.22,80.76,14.38,62.74-33.7,25.53-20.43,26.56-3.06M482.73,332.37l-3.92.45-26.56,3.06-1.43.16-1.12.9-25.18,20.14-60.81,32.66-78.34-13.95-27.94-13.9-.21-.11-.22-.08-19.92-7.66-1.68-.65-1.71.57-16.82,5.64-1.25.42-.88.98-17.9,19.89-1.38,1.54.11,2.07,2.55,49.02.19,3.7,3.6.89,109.06,26.98,39.25,15.7.19.08.2.06,38.43,11.74.35.11.36.05,40.34,6.13.63.1.63-.06,29.62-3.01,29.62,3.01.25.03h16.06l1.45-1.4,14.81-14.3,1.28-1.24.21-1.77,2.8-23.33,14.02-9.95.74-.52.51-.75,20.43-30.13.53-.78.21-.92,2.55-11.23.61-2.69-1.95-1.95-19.4-19.4-.67-.67-.86-.38-45.45-19.91-.14-.06-.14-.05-7.53-2.77-6.86-18.76-1.35-3.7h0Z"/>
  </g>
  <polygon class="cls-5" points="396.74 412.94 391.04 444.51 393.89 472.59 423.66 492.94 390.53 487.91 352.1 476.17 312.53 460.34 342.92 435.32 378.28 418.47 396.74 412.94"/>
  <polygon class="cls-5" points="445.39 390.8 476.32 390.8 519.73 410.55 538.62 442.98 550.94 424.8 539.64 398.04 494.7 370.98 456.41 364.34 436.49 374 440.58 379.66 445.39 390.8"/>
  <g>
    <path class="cls-4" d="M192.09,488.88h-40.41l-18.83-15.51-2.22-19.45,5.14-14.39-.97-22.8-9.98-14.71,9.82-31.63,22.24-14.48,10.32-17.02,25.16-11.49,28.77,11.4,10.22,15.02-25.13,27.92h22.2l13.09,2.52,58.63-8.59,60.12-18.46,3.24,7.02,25.81-2.39,39.22-3.18,14.26,19.75,7.84,18.16-29.98,3.36-17.3,13.64-22.55,6.75v4.56l-1.74.56c-15.45,4.96-32.84,10.8-34.64,11.86.02-.01.45-.27.75-.86-.57,1.04-3.89,3.7-43.13,29.06l-.23.15-53.02,19.56-38.54,8.33-18.14-4.66Z"/>
    <path d="M192.41,330.13l27.06,10.72,8.68,12.77-27.57,30.64h27.57l13.28,2.55,59.23-8.68,58.21-17.87,3.06,6.64,27.57-2.55,37.79-3.06,13.28,18.38,6.39,14.81-27.33,3.06-17.48,13.79-23.88,7.15v4.6s-34.98,11.23-35.36,12.26c-.38,1.02-42.26,28.09-42.26,28.09l-52.6,19.4-37.79,8.17-17.87-4.6h-39.83l-17.36-14.3-2.04-17.87,5.11-14.3-1.02-24-9.7-14.3,9.19-29.62,21.96-14.3,10.21-16.85,23.49-10.72M192.27,324.69l-1.94.88-23.49,10.72-1.4.64-.8,1.32-9.62,15.88-21,13.68-1.51.98-.53,1.72-9.19,29.62-.71,2.3,1.35,1.99,8.9,13.12.92,21.61-4.78,13.38-.39,1.09.13,1.15,2.04,17.87.23,2.01,1.56,1.28,17.36,14.3,1.38,1.14h40.99l17.26,4.44,1.15.29,1.16-.25,37.79-8.17.34-.07.33-.12,52.6-19.4.52-.19.46-.3c.1-.07,10.6-6.85,21.01-13.68,14.11-9.25,19.36-12.75,21.5-14.57,3.08-1.39,19.33-6.85,33.92-11.53l3.47-1.11v-4.52l20.31-6.08.91-.27.75-.59,16.36-12.9,25.91-2.9,6.71-.75-2.68-6.2-6.39-14.81-.22-.5-.32-.44-13.28-18.38-1.65-2.28-2.81.23-37.79,3.06h-.03s-.03,0-.03,0l-24.05,2.23-1.58-3.43-1.83-3.97-4.18,1.28-57.85,17.76-58.02,8.5-12.45-2.39-.47-.09h-16.82l20.06-22.29,2.62-2.91-2.2-3.24-8.68-12.77-.86-1.27-1.43-.57-27.06-10.72-1.98-.78h0Z"/>
  </g>
  <polygon points="242.47 282.26 275.9 308.93 312.14 312.65 312.14 395.87 331.68 425.1 352.1 405.32 356.21 312.65 385.43 306.38 423.66 282.26 406.48 280.19 384.7 294.22 347.88 300.13 337.47 308.05 334.91 392.53 330.58 392.68 330.06 309.32 320.87 299.62 289.72 295.79 263.94 280.98 242.47 282.26"/>
  <polygon class="cls-5" points="241.43 386.81 229.17 415.91 235.3 454.72 258.28 479.04 300.66 463.4 342.92 435.32 378.28 423.06 378.28 418.47 371.77 391.1 361.94 366.89 358.87 360.25 300.66 378.13 241.43 386.81"/>
  <polygon class="cls-5" points="133.62 410.55 142.87 392.42 172.49 381.19 200.58 384.25 218.48 364.36 195.98 353.61 158.7 357.7 136.75 372 127.56 401.61 133.62 410.55"/>
  <g>
    <polygon class="cls-5" points="158.31 268.15 197.28 242.52 214.29 250.14 221.29 268.7 158.97 356.11 134.38 356.11 104.54 374.01 158.31 268.15"/>
    <path d="M197.51,245.36l14.81,6.64,6.16,16.34-60.79,85.28h-24l-22.98,13.79,49.53-97.53,37.28-24.51M197.06,239.68l-2.29,1.51-37.28,24.51-1.11.73-.6,1.18-49.53,97.53-7.87,15.49,14.9-8.94,21.79-13.07h25.19l1.5-2.1,60.79-85.28,1.55-2.17-.94-2.49-6.16-16.34-.73-1.95-1.9-.85-14.81-6.64-2.5-1.12h0Z"/>
  </g>
  <g>
    <polygon class="cls-5" points="571.89 389.05 528.18 362.73 485.06 361.15 460.16 258.38 505.25 233.7 551.54 231.59 583.11 249.29 600.35 307.81 600.35 360.5 587.52 424.07 571.89 389.05"/>
    <path d="M550.94,234.12l30.06,16.86,16.85,57.19v52.09l-11.23,55.66-12.77-28.6-44.94-27.06-41.87-1.53-24-99.06,42.89-23.49,45-2.05M552.14,229.06l-1.43.06-45,2.05-1.16.05-1.02.56-42.89,23.49-3.36,1.84.9,3.72,24,99.06.89,3.68,3.78.14,40.58,1.48,42.48,25.59,12.13,27.16,6.37,14.28,3.09-15.33,11.23-55.66.1-.49v-53.31l-.2-.69-16.85-57.19-.58-1.95-1.78-1-30.06-16.86-1.25-.7h0Z"/>
  </g>
  <polygon points="200.58 384.25 172.49 381.19 142.87 392.42 133.62 410.55 147.98 395.87 173.02 386.81 200.58 384.25"/>
  <polygon points="218.48 364.36 195.98 353.61 158.7 357.7 197 348 218.48 364.36"/>
  <polygon points="241.43 386.81 229.17 415.91 235.3 454.72 258.28 479.04 229.17 459.83 222.53 407.23 241.43 386.81"/>
  <polygon points="361.94 366.89 371.77 391.1 378.28 418.47 375.73 388.34 361.94 366.89"/>
  <polygon points="436.49 374 456.41 364.34 494.7 370.98 539.64 398.04 550.94 424.8 544.24 394.57 498.28 366.89 451.81 360.25 436.49 374"/>
  <polygon points="445.39 390.8 476.32 390.8 519.73 410.55 538.62 442.98 517.68 415.91 473.77 395.87 445.39 390.8"/>
  <polygon points="396.74 412.94 391.04 444.51 393.89 472.59 423.66 492.94 398.19 467.49 395.64 442.98 396.74 412.94"/>
  <polygon points="488.58 330.13 550.94 327.57 576.41 344.93 591.73 381.19 573.85 353.61 547.81 339.83 488.58 330.13"/>
  <polygon points="483.47 299.49 532.49 294.22 583.04 306.38 595.81 330.13 574.87 312.17 532.49 300 483.47 299.49"/>
  <polygon points="171.73 331.4 150.02 326.3 125.77 335.23 151.56 319.15 171.73 331.4"/>
  <polygon points="181.94 297.44 158.7 297.44 137.51 308.93 155.64 290.3 181.94 297.44"/>
  <polygon points="266.7 387.83 266.7 429.19 285.09 457.53 273.34 425.1 266.7 387.83"/>
  <g>
    <polygon class="cls-4" points="327.23 273.7 312.58 250.76 284.54 246.07 257.35 235.95 244.63 210.5 237.26 166.32 237.26 120.27 228.78 64.54 228.78 16.44 247.04 3.1 278.72 26.54 306.68 44.02 336.15 33.41 348.79 32.78 361.42 33.41 390.89 44.02 418.85 26.54 450.53 3.1 468.79 16.44 468.79 64.54 460.31 120.27 460.31 166.32 452.95 210.5 440.23 235.95 413.03 246.07 385 250.76 370.35 273.7 348.79 278.92 327.23 273.7"/>
    <path d="M450.54,6.21l15.75,11.51v46.64l-8.48,55.73v46.04l-7.27,43.6-12.11,24.23-26.05,9.69-28.9,4.84-14.71,23.02-19.99,4.84-20-4.84-14.71-23.02-28.9-4.84-26.05-9.69-12.11-24.23-7.27-43.6v-46.04l-8.48-55.73V17.71l15.75-11.51,30.28,22.41,29.07,18.17,30.26-10.9,12.15-.6,12.13.6,30.26,10.9,29.07-18.17,30.28-22.41M450.52,0l-2.95,2.19-30.13,22.29-26.85,16.78-27.97-10.08-.7-.25-.74-.04-12.13-.6h-.25s-.25,0-.25,0l-12.15.6-.74.04-.7.25-27.97,10.08-26.85-16.78-30.13-22.29-2.95-2.19-2.97,2.17-15.75,11.51-2.05,1.5v49.56l.06.37,8.42,55.35v46.07l.07.41,7.27,43.6.12.74.34.67,12.11,24.23.88,1.76,1.85.69,26.05,9.69.45.17.47.08,26.7,4.47,13.51,21.15,1.08,1.69,1.95.47,20,4.84,1.18.28,1.18-.28,19.99-4.84,1.95-.47,1.08-1.69,13.51-21.15,26.7-4.47.47-.08.45-.17,26.05-9.69,1.85-.69.88-1.76,12.11-24.23.34-.67.12-.74,7.27-43.6.07-.41v-46.07l8.42-55.35.06-.37V15.17l-2.05-1.5-15.75-11.51-2.97-2.17h0Z"/>
  </g>
  <polygon class="cls-1" points="290.03 75.86 277.31 43.55 252.48 17.31 236.13 21.35 236.13 63.95 242.85 112.65 290.03 75.86"/>
  <polygon class="cls-1" points="323.95 198.82 314.09 184.89 282.77 181.86 254.3 177.62 242.47 182.39 247.03 209.72 259.14 233.95 285.19 243.64 314.09 248.48 328.8 271.5 348.79 276.35 348.79 227.11 336.65 223.65 323.95 198.82"/>
  <polygon class="cls-1" points="407.54 75.86 420.26 43.55 445.09 17.31 461.45 21.35 461.45 63.95 454.73 112.65 407.54 75.86"/>
  <polygon class="cls-1" points="373.62 198.82 383.49 184.89 414.81 181.86 443.28 177.62 455.1 182.39 450.55 209.72 438.43 233.95 412.39 243.64 383.49 248.48 368.78 271.5 348.79 276.35 348.79 227.11 360.93 223.65 373.62 198.82"/>
  <g>
    <polygon class="cls-5" points="224.82 257.17 201.34 224.82 207.75 195.99 228.25 165.83 231.86 130.92 246.23 99.07 276.2 77.22 288.07 73.82 293.42 57.62 304.94 44.65 336.15 33.41 348.79 32.78 361.42 33.41 392.63 44.65 404.16 57.62 409.5 73.82 421.37 77.22 451.34 99.07 465.72 130.92 469.32 165.83 489.83 195.99 496.24 224.82 472.75 257.17 436.84 272.66 446.22 226.77 445.04 186.68 429.95 153.9 407.26 146.24 368.98 150.37 348.79 162.35 328.59 150.37 290.31 146.24 267.63 153.9 252.54 186.68 251.35 226.77 260.74 272.66 224.82 257.17"/>
    <path d="M348.79,35.28l12.13.6,30.26,10.9,10.76,12.11,5.6,16.96,12.72,3.64,29.07,21.2,13.94,30.89,3.63,35.13,20.59,30.28,6.06,27.26-22.42,30.89-30.89,13.32,8.48-41.48-1.21-40.89-15.75-34.22-24.22-8.18-39.37,4.25-19.38,11.51-19.39-11.51-39.37-4.25-24.22,8.18-15.75,34.22-1.21,40.89,8.48,41.48-30.89-13.32-22.42-30.89,6.06-27.26,20.59-30.28,3.63-35.13,13.94-30.89,29.07-21.2,12.72-3.64,5.6-16.96,10.76-12.11,30.26-10.9,12.15-.6M348.79,30.27h-.25s-12.15.62-12.15.62l-.74.04-.7.25-30.26,10.9-1.2.43-.85.95-10.76,12.11-.69.77-.32.98-4.77,14.45-10.17,2.91-.85.24-.72.52-29.07,21.2-1.07.78-.54,1.2-13.94,30.89-.33.74-.08.8-3.5,33.88-19.88,29.24-.54.79-.21.93-6.06,27.26-.49,2.2,1.32,1.82,22.42,30.89.81,1.11,1.26.54,30.89,13.32,8.8,3.79-1.92-9.39-8.36-40.91,1.16-39.29,14.43-31.34,21.14-7.14,37.19,4.01,18.46,10.95,2.55,1.51,2.55-1.51,18.45-10.95,37.19-4.01,21.14,7.14,14.43,31.34,1.16,39.29-8.36,40.91-1.92,9.39,8.8-3.79,30.89-13.32,1.26-.54.81-1.11,22.42-30.89,1.32-1.82-.49-2.2-6.06-27.26-.21-.93-.54-.79-19.88-29.24-3.5-33.88-.08-.8-.33-.74-13.94-30.89-.54-1.2-1.07-.78-29.07-21.2-.72-.52-.85-.24-10.17-2.91-4.77-14.45-.32-.98-.69-.77-10.76-12.11-.85-.95-1.2-.43-30.26-10.9-.7-.25-.74-.04-12.13-.6h-.25Z"/>
  </g>
  <polygon points="284.58 203.06 307.6 212.14 319.11 246.06 348.79 252.72 348.79 256.81 316.69 249.39 306.54 215.02 284.58 203.06"/>
  <polygon points="348.79 215.47 334.22 218.9 331.68 234.4 348.79 245.3 348.79 215.47"/>
  <polygon points="346.97 254.54 346.97 241.82 348.79 243.19 348.79 254.54 346.97 254.54"/>
  <polygon points="285.64 155.66 312.6 157.93 326.68 171.41 326.68 181.86 320.32 175.04 304.12 173.83 285.64 155.66"/>
  <polygon points="329.4 147.94 312.14 124.62 314.09 88.58 336.65 70.71 348.79 65.87 348.79 72.22 336.65 76.77 319.41 91.3 319.41 122.2 329.4 147.94"/>
  <polygon points="248.24 100.69 277.31 79.49 290.03 75.86 324.26 73.13 292.76 79.19 276.41 84.94 248.24 100.69"/>
  <polygon points="234.31 131.58 250.66 144.3 290.03 143.7 248.24 147.94 234.31 131.58"/>
  <polygon points="248.24 25.38 248.24 57.08 263.08 86.91 269.64 83.13 265 58.29 248.24 25.38"/>
  <polygon points="412.99 203.06 389.98 212.14 378.47 246.06 348.79 252.72 348.79 256.81 380.89 249.39 391.04 215.02 412.99 203.06"/>
  <polygon points="348.79 215.47 363.36 218.9 365.9 234.4 348.79 245.3 348.79 215.47"/>
  <polygon points="350.6 254.54 350.6 241.82 348.79 243.19 348.79 254.54 350.6 254.54"/>
  <polygon points="411.93 155.66 384.98 157.93 370.9 171.41 370.9 181.86 377.26 175.04 393.46 173.83 411.93 155.66"/>
  <polygon points="368.17 147.94 385.43 124.62 383.49 88.58 360.93 70.71 348.79 65.87 348.79 72.22 360.93 76.77 378.16 91.3 378.16 122.2 368.17 147.94"/>
  <polygon points="449.33 100.69 420.26 79.49 407.54 75.86 373.32 73.13 404.82 79.19 421.17 84.94 449.33 100.69"/>
  <polygon points="463.27 131.58 446.91 144.3 407.54 143.7 449.33 147.94 463.27 131.58"/>
  <polygon points="449.33 25.38 449.33 57.08 434.49 86.91 427.93 83.13 432.58 58.29 449.33 25.38"/>
  <polygon class="cls-1" points="48.5 476.2 10.5 482.64 19.19 489.3 49.4 482.35 48.5 476.2"/>
  <polygon class="cls-1" points="16.41 496.66 51.06 488.35 53.66 492.96 37.88 505.48 57.33 503.03 57.59 508.1 22.5 516.65 20.54 509.66 37.64 499.42 17.05 501.8 16.41 496.66"/>
  <polygon class="cls-1" points="58.47 532.6 64.02 535.06 67.45 527.51 60.97 516.24 50.74 516.12 42.17 525.32 41.05 533.11 36.6 531.89 35.45 524.76 27.4 525.89 26.98 533.6 35.68 540.54 44.3 541.54 50.02 535.51 49.61 528.27 53.4 523.64 57.84 526.29 58.47 532.6"/>
  <polygon points="322.5 575.17 320.37 570.26 330.51 563.38 347.02 562.09 353.23 570.91 353.23 579.76 349.15 585.49 359.94 594.99 359.94 609.08 352.91 615.18 335.41 616.94 326.75 610.72 327.73 603.68 338.52 607.77 348.33 605.8 350.29 598.35 343.1 591.88 336.56 591.39 335.58 583.53 342.93 577.39 340.15 570.75 332.31 570.91 324.62 577.39 322.5 575.17"/>
  <path d="M320.06,591.02l-10.99-3.43-7.8,3.43-3.81-7.25,5.43-10.04,13.58-.32.86-6.58-14.2-4.74-16.79,14.19,5.56,38.1,21.86,2.23,10.5-14.19-4.2-11.4ZM301.66,607.4l-2.59-6.57,9.26-4.62,7.41,9.25-14.08,1.95Z"/>
  <polygon class="cls-1" points="84.67 594.51 87.32 591.71 94.76 596.47 100.31 607.06 96.22 613.68 90.36 616.19 85.4 615.11 82.16 624.96 72.82 628.96 66.78 626.03 60.65 614.94 62.31 607.42 67.26 606.07 67.61 614.39 71.7 620.34 77.2 619.52 79.44 612.91 77.91 608.44 82.85 605.56 89.01 608.69 92.62 604.96 90.28 599.81 83.81 596.55 84.67 594.51"/>
  <path class="cls-1" d="M73.47,597.4l-.85-8.26-4.49-4.2,3.73-4.58,8.2.75,4.07,8.91,4.61-1.29-.89-10.76-14.17-7.1-23.68,14.5,4.73,15.12,12.39,2.93,6.36-6.02ZM57.39,589.85l3.62-3.59,5.69,4.83-4.03,7.54-5.29-8.78Z"/>
  <path class="cls-1" d="M75.15,547.21l-4.01-5.36-37.49,8.54,1.43,8.09,14.11-4.22,3.24,3.63-10.04,12.19,4.27,5.83,28.48-28.69ZM56.86,552.34l7.94-4.49-.33.51-4.89,7.5-2.72-3.53Z"/>
  <path d="M378.12,541.21l-60.13-27.9-64.34,52.39,12.9,80.29,85.4,25.62,38.94-63.21-12.77-67.19ZM367.46,618.65l-38.39,35.67-55.22-36.65,5.14-58.99,54.24-22.54,37.14,32.7-2.92,49.8Z"/>
  <polygon points="226.15 504.6 327.85 521.47 473.38 504.6 335.51 535.77 226.15 504.6"/>
  <polygon points="210.86 573.55 264.02 592.45 232.87 592.45 210.86 573.55"/>
  <polygon points="179.37 626.74 208.36 651.18 267.72 675.18 205.3 658.33 179.37 626.74"/>
  <polygon points="146.06 671.6 188.59 700.71 248.76 711.42 184.36 708.37 146.06 671.6"/>
  <polygon points="406.09 719.21 499.94 705.81 553.81 673.13 509.28 716.37 406.09 719.21"/>
  <polygon points="378.28 665.22 449.89 661.9 519.85 617.73 465.55 669.73 378.28 665.22"/>
  <g>
    <polygon class="cls-5" points="385.65 558.35 392.33 542.48 367.02 515.24 385.22 497.94 411.81 528.78 428.04 530.3 650.63 750.84 647.79 778.68 623.87 786.26 385.65 558.35"/>
    <path d="M385.04,501.56l25.53,29.62,16.34,1.53,221.11,219.06-2.55,25.02-20.94,6.64-235.91-225.7,6.64-15.77-24.72-26.62,14.51-13.79M385.4,494.32l-3.8,3.61-14.51,13.79-3.58,3.41,3.36,3.62,22.52,24.25-5.39,12.79-1.34,3.17,2.49,2.38,235.91,225.7,2.14,2.05,2.83-.9,20.94-6.64,3.13-.99.33-3.27,2.55-25.02.24-2.38-1.7-1.68-221.11-219.06-1.27-1.26-1.78-.17-14.34-1.34-24.22-28.09-3.43-3.97h0Z"/>
  </g>
  <polygon points="395.26 541.96 405.3 538.16 410.57 531.18 408.45 541.22 395.26 541.96"/>
  <polygon points="458.83 626.74 487.68 622.58 499.94 601.9 489.21 629.99 458.83 626.74"/>
  <polygon points="511.4 675.19 545.07 671.6 553.81 654.33 550.49 675.19 511.4 675.19"/>
  <polygon class="cls-1" points="173.77 64.98 92.83 100.69 84.4 121.95 108.28 112.65 116.96 124.2 129.08 115.01 141.54 127.65 149.12 100.69 173.77 64.98"/>
  <path d="M441.47,480.14c.77-.26,42-1.28,42-1.28l25.91-31.66-30.13,26.3-37.79,6.64Z"/>
  <path d="M155.42,439.13s24.03,20.43,24.14,20.68,40.96,0,40.96,0l-38.3-3.83-26.81-16.85Z"/>
  <polygon class="cls-2" points="601.73 118.83 597.85 100.69 612.79 73.13 718.4 15.2 663.51 113.75 637.97 131.94 619.42 132.61 601.73 118.83"/>
  <polygon class="cls-1" points="681.83 44.93 623.41 84.26 613.53 102.88 616.55 80.49 681.83 44.93"/>
  <g>
    <polygon class="cls-6" points="604.09 159.65 574.68 133.48 577.73 120.99 585.72 119.7 587.99 111.88 596.71 109.96 627.2 133.68 627.2 148.58 616.72 150.17 614.09 159.65 604.09 159.65"/>
    <path d="M596.11,112.65l28.6,22.25v11.53l-9.96,1.51-2.55,9.22h-7.15l-27.57-24.55,2.3-9.41,7.91-1.28,2.3-7.91,6.13-1.35M597.32,107.26l-2.29.51-6.13,1.35-2.9.64-.83,2.85-1.42,4.88-4.79.77-3.27.53-.79,3.22-2.3,9.41-.71,2.92,2.25,2,27.57,24.55,1.42,1.27h12.86l1.02-3.67,1.69-6.09,6.75-1.02,4.25-.64v-18.27l-1.93-1.5-28.6-22.25-1.85-1.44h0Z"/>
  </g>
  <polygon points="587.68 121.92 597.64 134.9 614.74 147.94 598.4 132.61 587.68 121.92"/>
  <polygon points="344.42 86.91 363.77 86.91 353.26 108.59 363.77 106.6 333.81 145.87 341.3 116.39 333.81 117.68 344.42 86.91"/>
</svg>