<?xml version="1.0" encoding="UTF-8"?>
<svg viewBox="470 380 660 770" xmlns="http://www.w3.org/2000/svg">
<defs>
<style>
      .cls-1, .cls-3, .cls-4, .cls-5 {
        stroke-miterlimit: 10;
      }
      .cls-1 {
        stroke-width: 3px;
	fill: #fff;
	stroke: #000;
      }
      .cls-2{
        fill: #000;
	stroke: #000;
      }
      .cls-3 {
        stroke-width: 4px;
	fill: #fff;
	stroke: #000;
      }

      .cls-4 {
	fill: #fff;
	stroke: #000;
        stroke-width: 5px;
      }

      .cls-5 {
        stroke-width: 6px;
	fill: #fff;
	stroke: #000;
      }
      .cls-6 {
	fill: #fff;
	stroke: #000;
}</style>
</defs>
<polygon class="cls-5" points="735.99 775.82 698.89 829.77 704.68 862.96 716.25 871.14 719.99 883.73 716.25 886.11 717.44 890.54 706.04 900.41 691.4 906.2 676.42 881.01 676.42 867.73 665.87 837.77 665.87 812.92 694.12 777.86 708.42 765.94 727.48 765.94"/>
<polygon class="cls-6" points="835.4 780.24 865.36 873.86 835.4 886.11 788.76 886.11 738.72 871.14 756.42 773.43 802.04 780.58"/>
<polygon class="cls-6" points="738.72 871.14 711.48 910.96 696.16 948.41 732.25 953.86 752.33 907.22 769.7 875.56"/>
<polygon class="cls-6" points="831.31 880.33 851.4 920.16 865.36 953.86 900.76 947.73 881.36 901.77 855.82 858.54"/>
<polygon class="cls-5" points="896.33 826.2 859.91 834.37 824.85 843.56 804.42 834.88 790.46 840.5 777.53 858.54 775.48 868.07 799.65 883.39 811.91 882.03 829.95 862.96 875.91 875.22 926.29 879.65 938.89 871.14 942.29 836.07 929.7 806.79"/>
<polygon class="cls-6" points="766.63 772.75 739.4 741.43 700.93 727.14 684.93 736.33 686.97 746.88 679.48 753.01 681.53 769.01 652.93 825.52 661.1 837.77 661.1 831.31 662.46 823.14 675.06 823.14 690.72 831.65 725.1 777.18 752.33 780.58 754.38 771.39"/>
<polygon class="cls-6" points="905.53 849.01 912.33 844.24 953.87 854.45 955.91 862.96 962.38 856.84 962.38 846.28 929.02 776.16 933.95 779.22 940.59 763.56 933.95 748.92 939.91 738.71 923.23 724.07 874.21 734.96 827.23 776.5 837.1 777.86 841.87 785.35 855.14 780.58"/>
<polygon class="cls-5" points="756.34 951.14 756.34 968.84 783.35 978.71 820.14 975.99 841.95 969.86 839.67 925.94 831.86 890.88 801.91 895.65 769.36 888.84"/>
<polygon class="cls-6" points="724.76 956.92 722.97 972.24 727.48 980.41 732.93 983.14 756.34 988.24 769.7 988.24 777.55 976.59 756.34 968.84 756.34 951.14 769.36 888.84 763.57 888.84 750.26 920.5 735.99 957.6"/>
<polygon class="cls-6" points="841.95 969.86 820.14 975.99 825.87 984.5 836.42 988.24 856.16 985.52 873.87 979.05 876.59 972.58 873.53 955.9 865.36 958.28 848.37 923.22 832.78 895.02 839.67 925.94"/>
<polygon class="cls-6" points="732.93 1003.9 731.23 1007.3 714.55 1014.1 705.7 1026.7 711.48 1040 746.55 1038.3 754.72 1021.9 750.26 1010 748.93 1003.9 741.1 1001.9"/>
<polygon class="cls-6" points="848.37 1004.2 850.04 1008 845.27 1018.2 850.04 1035.2 887.82 1041.7 892.59 1029.4 882.72 1014.4 866.04 1007 865.36 1001.9 855.82 1001.9"/>
<polygon class="cls-2" points="741.11 999.79 734.93 1001.3 734.93 982.77 746.15 980.75 753.76 982.54 747.61 1001.5"/>
<path class="cls-6" d="m746.1 982.79 5.09 1.2-4.9 15.09-4.18-1.09-0.99-0.26-0.99 0.25-3.2 0.8v-14.34l9.17-1.65m0.11-4.08-13.28 2.38v22.81l8.17-2.04 7.83 2.04 7.4-22.81-10.13-2.38z"/>
<polygon class="cls-2" points="847.46 983.34 853.15 980.87 861.87 984.17 863.18 999.86 855.51 999.86 850.02 1001.6"/>
<path class="cls-6" d="m853.21 983.03 6.78 2.57 1.02 12.27h-5.81l-0.59 0.19-2.94 0.94-2.02-14.42 3.55-1.54m-0.1-4.33-7.83 3.4 3.09 22.13 7.46-2.38h9.53l-1.6-19.12-10.66-4.03z"/>
<polyline class="cls-3" points="732.93 780.27 722.97 853.09 740.04 872.65"/>
<line class="cls-3" x1="872.95" x2="876.59" y1="804.77" y2="830.63"/>
<polygon class="cls-6" points="869.64 770.63 876.15 727.94 870.01 725.71 863.72 742.32 851.32 756.88 831.64 768.58 820.99 764.79 799.01 768.33 776.17 763.87 769.82 768.36 739.71 749.96 729.81 725.21 723.94 727.42 729.34 771.17 709.76 780.16 605.57 730.54 639.9 640.21 665.38 607.6 671.63 588.02 663.78 588.02 648.01 597.12 635.47 559.49 634.91 523.94 653.05 519.61 699.95 534.58 709.62 523.27 696.85 514.21 665.62 504.35 637.27 508.51 648.13 472.94 677.72 450.09 708.02 413.42 745.4 401.2 774.74 404.78 741.61 428.09 728.37 469.26 734.98 500.09 750.18 490.8 774.86 485.37 778.53 478.55 788.88 477.46 792.48 474.37 789.38 472.05 800.01 450.79 808.18 469.57 806.17 474.59 807.02 476.28 819.26 479.71 823.87 484.32 845.97 490.85 864.43 501.83 871.31 478.59 865.91 442.23 848.43 419.41 816.07 403.65 875.41 406.41 908.29 430.27 918.52 447.16 945.12 467.62 960.1 494.37 960.1 505.47 930.1 503.8 892.02 521.11 889.63 523.77 897.74 532.99 922.67 523.88 949.06 520.19 963.16 523.4 963.16 564.57 952.29 597.2 934.93 590.01 928.53 589.43 930.74 597.02 939.11 609.57 935.5 612.67 962.84 655.64 992.58 728.93 890.26 780.18"/>
<path class="cls-2" d="M745.7,404.26l20.94,2.55-27.57,19.4-13.79,42.89,7.66,35.74,18.38-11.23,25.53-5.62,3.57-6.64,9.7-1.02,7.15-6.13-4.09-3.06,6.64-13.28,5.11,11.74-2.04,5.11,2.04,4.09,12.77,3.57,4.6,4.6,22.47,6.64,21.45,12.77,8.17-27.57-5.62-37.79-18.38-24-19.91-9.7,43.91,2.04,31.66,22.98,10.21,16.85,26.55,20.43,14.3,25.53v7.15l-27.57-1.53-39.32,17.87-4.6,5.11,11.23,12.77,26.55-9.7,25.53-3.57,11.23,2.55v38.3l-9.7,29.11-14.81-6.13-11.23-1.02,3.57,12.26,7.15,10.72-3.57,3.06,28.6,44.94,28.6,70.47-98.55,49.36-17.26-8,6.53-42.89-11.23-4.09-7.15,18.89-11.74,13.79-18.04,10.72-10.04-3.57-22.21,3.57-23.57-4.6-5.79,4.09-27.57-16.85-10.62-26.55-10.83,4.09,5.42,43.91-16.31,7.49-100.43-47.83,33.19-87.32,25.53-32.68,7.66-24h-12.77l-13.28,7.66-11.23-33.7-.51-32.68,14.98-3.57,48,15.32,13.11-15.32-15.83-11.23-32.34-10.21-24.34,3.57,9.19-30.13,29.11-22.47,29.96-36.26,35.91-11.74M745.1,398.14l-1.27.41-35.91,11.74-1.65.54-1.11,1.34-29.53,35.74-28.57,22.06-1.51,1.17-.56,1.83-9.19,30.13-2.77,9.06,9.38-1.38,22.98-3.37,30.13,9.51,9.7,6.89-6.25,7.3-44.21-14.11-1.59-.51-1.63.39-14.98,3.57-4.68,1.12.08,4.81.51,32.68v.93s.31.88.31.88l11.23,33.7,2.32,6.97,6.37-3.67,11.89-6.86h2.95l-4.84,15.15-24.87,31.83-.56.71-.32.85-33.19,87.32-1.97,5.17,4.99,2.38,100.43,47.83,2.53,1.21,2.55-1.17,16.31-7.49,3.99-1.83-.54-4.36-4.84-39.23.91-.34,8.43,21.09.74,1.85,1.7,1.04,27.57,16.85,3.37,2.06,3.22-2.27,3.69-2.61,21.06,4.11,1.05.2,1.05-.17,20.7-3.33,8.59,3.06,2.65.94,2.42-1.44,18.04-10.72.86-.51.65-.76,11.74-13.79.68-.79.37-.97,5.05-13.35,1.05.38-5.79,38.03-.68,4.45,4.09,1.89,17.26,8,2.62,1.22,2.59-1.3,98.55-49.36,4.96-2.48-2.08-5.14-28.6-70.47-.21-.51-.29-.46-25.8-40.55,3.66-3.14-2.95-4.42-6.64-9.96-.85-2.92,1.56.14,13.97,5.78,5.95,2.46,2.04-6.11,9.7-29.11.31-.92v-44.06l-4.67-1.06-11.23-2.55-1.07-.24-1.09.15-25.53,3.57-.63.09-.6.22-22.7,8.29-5-5.68.19-.21,36.84-16.74,26.1,1.45,6.33.35v-15.06l-.76-1.37-14.3-25.53-.6-1.07-.98-.75-25.66-19.74-9.63-15.89-.63-1.04-.98-.71-31.66-22.98-1.45-1.05-1.79-.08-43.91-2.04-29.05-1.35,26.15,12.74,18.64,9.08,16.58,21.64,5.19,34.94-5.6,18.9-14.82-8.82-.65-.39-.72-.21-21-6.21-3.52-3.52-1.11-1.11-1.51-.42-9.64-2.7.82-2.06.93-2.32-1-2.3-5.11-11.74-5.12-11.78-5.75,11.49-6.64,13.28-2.24,4.48,2.11,1.58-.05.04-7.84.83-3.15.33-1.5,2.79-2.27,4.21-22.84,5.03-.98.22-.86.52-11.16,6.82-5.55-25.9,12.68-39.45,25.93-18.25,12.75-8.97-15.48-1.89-20.94-2.55-1.32-.16h0Z"/>
<polygon class="cls-2" points="732.93 504.85 749.27 525.28 799.06 536.51 851.91 523.75 866.21 506.39 848.33 520.68 799.57 531.92 752.85 523.24"/>
<polygon class="cls-2" points="714.04 522.73 753.36 556.43 799.57 574.3 851.91 553.87 885.61 523.75 858.89 557.96 802.04 581.96 750.29 562.56"/>
<polygon class="cls-2" points="714.04 605.45 700.93 590.56 675.74 585.02 698.72 595.24"/>
<polygon class="cls-2" points="885.61 605.45 902.82 588.6 924.42 586.04 905.02 593.19"/>
<polygon class="cls-2" points="716.08 603.41 757.95 626.9 807.99 633.02 845.78 624.85 882.55 603.41 844.25 621.28 805.95 627.92 759.48 624.34"/>
<polygon class="cls-2" points="726.09 769.36 714.04 682.56 716.08 603.41 720.06 683.58"/>
<polygon class="cls-2" points="882.55 603.41 882.55 681.02 872.95 768.85 879.57 681.11"/>
<polygon class="cls-2" points="722.97 610.04 756.42 629.19 792.42 635.07 789.61 638.39 770.72 637.36 752.59 642.73 733.19 640.43 722.97 624.34"/>
<polygon class="cls-2" points="876.16 610.04 847.82 627.66 810.04 635.32 810.04 637.62 825.1 637.62 843.1 642.73 861.1 642.73 872.95 629.45"/>
<polygon class="cls-2" points="748.44 677.65 746.46 692.64 747.45 711.22 755.79 726.22 785.19 718.39 815.16 719.37 842.01 726.22 850.78 712.2 851.91 685.79 849.36 674.39 827.03 685.79 799.33 691.01 773.6 685.79"/>
<polygon class="cls-6" points="786.2 698.28 785.24 691.03 800.07 692.29 797.52 698.95 791 700.1"/>
<path class="cls-2" d="M786.97,692.68l10.98.94-1.53,4-5.28.94-3.57-1.36-.6-4.51M783.51,689.38l.49,3.7.6,4.51.23,1.77,1.67.64,3.57,1.36.78.3.82-.14,5.28-.94,1.67-.3.61-1.58,1.53-4,1.43-3.72-3.97-.34-10.98-.94-3.72-.32h0Z"/>
<polygon class="cls-6" points="799.77 698.16 798.26 692.72 813.24 690.52 813.24 693.37 811.85 699.24 804.92 700.09"/>
<path class="cls-2" d="M811.74,692.26v.94l-1.11,4.68-5.53.68-4.09-1.53-.85-3.06,11.57-1.7M814.74,688.78l-3.44.51-11.57,1.7-3.36.49.91,3.28.85,3.06.41,1.47,1.43.54,4.09,1.53.69.26.73-.09,5.53-.68,2.07-.26.48-2.03,1.11-4.68.08-.34v-4.76h0Z"/>
<polygon class="cls-6" points="764.97 712.19 780.58 708.84 784.34 716.63 765.94 719.79"/>
<path class="cls-2" d="m779.74 710.56 2.38 4.94-14.89 2.55-0.6-4.68 13.11-2.81m1.68-3.43-2.31 0.49-13.11 2.81-2.7 0.58 0.95 7.41 0.4 3.11 3.09-0.53 14.89-2.55 3.93-0.67-1.73-3.59-2.38-4.94-1.02-2.12z"/>
<polygon class="cls-6" points="781.46 709.17 798.79 707.85 800.12 716.25 781.46 716.85"/>
<path class="cls-2" d="M797.53,709.45l.84,5.36-15.41.49v-4.74l14.57-1.11M800.06,706.25l-2.76.21-14.57,1.11-2.77.21v10.62l3.1-.1,15.41-.49,3.4-.11-.53-3.36-.84-5.36-.43-2.73h0Z"/>
<polygon class="cls-6" points="798.66 715.7 798.66 709.01 802.31 707.93 816.47 709.17 817.24 714.81 815.32 716.84"/>
<path class="cls-2" d="M802.46,709.45l12.68,1.11.51,3.74-.94,1-14.55-1v-4.17l2.3-.68M802.16,706.41l-.55.16-2.3.68-2.15.64v9.21l2.79.19,14.55,1,1.42.1.97-1.04.94-1,.98-1.04-.19-1.42-.51-3.74-.32-2.37-2.39-.21-12.68-1.11-.57-.05h0Z"/>
<polygon class="cls-6" points="814.55 716.36 816.71 708.85 833.15 711.71 831.49 720.79"/>
<path class="cls-2" d="M817.78,710.56l13.62,2.37-1.09,6-13.88-3.63,1.36-4.74M815.64,707.14l-.74,2.59-1.36,4.74-.85,2.95,2.97.78,13.88,3.63,3.13.82.58-3.18,1.09-6,.54-2.98-2.98-.52-13.62-2.37-2.65-.46h0Z"/>
<polygon class="cls-6" points="759.94 701.01 768.85 720.29 759.94 721.46"/>
<path class="cls-2" d="m761.44 707.83 5.19 11.23-5.19 0.68v-11.91m-3-13.64v28.98l3.39-0.44 5.19-0.68 4.04-0.53-1.71-3.7-5.19-11.23-5.72-12.38z"/>
<polygon class="cls-6" points="829.09 719.86 837.92 705.14 837.92 722.24"/>
<path class="cls-2" d="m836.42 710.56v9.72l-5.02-1.35 5.02-8.37m3-10.84-5.57 9.29-5.02 8.37-2.04 3.41 3.84 1.03 5.02 1.35 3.78 1.02v-24.47z"/>
<polygon class="cls-6" points="732.47 709.33 753.28 692.74 760.39 682.97 776.05 687.37 776.05 695.57 770.46 699.69 749.2 709.33"/>
<path class="cls-2" d="M760.99,684.7l13.56,3.81v6.3l-4.85,3.57-20.82,9.45h-12.11l17.62-14.04,6.61-9.09M759.79,681.25l-1.23,1.69-6.37,8.76-17.3,13.79-6.71,5.35h21.34l.59-.27,20.82-9.45.29-.13.25-.19,4.85-3.57,1.22-.9v-10.09l-2.19-.61-13.56-3.81-2.01-.56h0Z"/>
<polygon class="cls-6" points="847.78 709.33 828.89 701.59 821.69 695.11 823.02 687.8 837.33 682.95 849.1 696.75 867.16 709.33"/>
<path class="cls-2" d="M836.85,684.7l11.23,13.18,14.3,9.96h-14.3l-18.38-7.53-6.38-5.74,1.02-5.62,12.51-4.24M837.81,681.21l-1.93.65-12.51,4.24-1.67.57-.32,1.74-1.02,5.62-.3,1.65,1.24,1.12,6.38,5.74.39.35.48.2,18.38,7.53.55.22h24.45l-7.84-5.46-13.98-9.74-10.98-12.88-1.32-1.55h0Z"/>
<polygon class="cls-6" points="773.08 694.9 772.34 687.27 789.57 691.17 777.09 702.75"/>
<path class="cls-2" d="M774.04,689.19l12.43,2.81-8.94,8.3-2.98-5.83-.51-5.28M770.65,685.35l.4,4.13.51,5.28.05.57.26.51,2.98,5.83,1.81,3.53,2.91-2.7,8.94-8.3,4.17-3.87-5.55-1.25-12.43-2.81-4.05-.91h0Z"/>
<polygon class="cls-6" points="809.58 690.86 826.54 687.63 820.8 703.13"/>
<path class="cls-2" d="m824.21 689.6-3.97 10.7-7.74-8.47 11.71-2.23m4.67-3.95-5.22 1-11.71 2.23-5.28 1.01 3.63 3.96 7.74 8.47 3.32 3.63 1.71-4.61 3.97-10.7 1.85-4.99z"/>
<polygon class="cls-2" points="786.46 673.53 779.74 667.24 774.04 667.75 774.55 675.58 777.27 679.49 790.8 680.94 797.36 683.24 805.61 682.56 808.42 680.94 820.76 679.66 825.19 671.83 823.82 667.24 819.14 667.24 817.02 668.43 808.42 679.15 804.25 681.53 797.02 682.13 791.23 679.49"/>
<polygon class="cls-2" points="786.46 660.77 778.04 654.98 764.93 657.02 759.14 667.83 754.29 669.11 758.12 657.45 770.38 650.13 781.02 651.49"/>
<polygon class="cls-2" points="811.74 661.11 821.44 654.39 831.57 655.92 837.02 661.11 838.63 666.81 844.16 669.87 841.87 660.43 834.21 651.75 821.7 650.13 814.12 654.13"/>
<polygon class="cls-6" points="760.5 737.96 750.04 741.92 737.65 756.6 751.44 749.32 761.44 748.43 762.93 742.81"/>
<polygon class="cls-6" points="838.89 737.96 836.42 741.02 836.97 748.43 845.91 748.43 857.27 754.17 850.5 743.96 844.38 739.36"/>
<g data-name="Épée">
<polygon class="cls-4" points="795.23 822.06 802.04 831.45 793 851.73 774.16 867.36 765.28 867.36 759.95 859.34 772.36 832.34"/>
<polyline class="cls-6" points="786.97 831.66 584.42 667.24 576.76 678.66 576.76 694.81 773.78 854.64"/>
<polygon class="cls-4" points="593.23 674.39 589.44 686.13 787.07 845.23 792.46 830.63"/>
<polygon class="cls-6" points="827.23 865.84 840.42 876.67 828.54 890.14 814.99 878.78"/>
<path class="cls-6" d="M504.67,1142.41c-.08-.2-.12-.33-.12-.41.08-.43.37-.67.88-.7.23.04.29.2.18.47l-.06.06c-.19.47-.45.7-.76.7-.04-.04-.08-.08-.12-.12ZM507.37,1144.16c.63-.47,1.11-.89,1.46-1.26.35-.37.61-.81.76-1.32.12-.23,1.25-.93,3.4-2.08,2.15-1.15,3.38-1.63,3.69-1.44-.04.27-.3.62-.79,1.05-.49.43-1.24,1.02-2.26,1.76-1.52,1.17-2.67,2.12-3.43,2.84-.76.72-1.06,1.34-.91,1.85-.08.12-.21.21-.41.29-.47-.23-.86-.29-1.17-.18-.31.12-.68.35-1.11.7-.7.59-1.29.88-1.76.88.16-.67.44-1.21.85-1.64.41-.43.97-.92,1.67-1.46ZM515.28,1131.8c-.16.94-.59,1.39-1.29,1.35-.23,0-.31-.14-.23-.41.23-.51.74-.82,1.52-.94ZM519.61,1133.32s.04.1.12.18l.18.18v.06c-.23.31-.43.49-.59.53-.43.08-.57-.1-.41-.53.08-.31.31-.45.7-.41ZM524.59,1128.11c.47-.39,1.14-.44,2.02-.15s1.42.75,1.61,1.38c.08.23.02.45-.18.64-.19.2-.35.23-.47.12-.82-.62-1.47-.84-1.96-.64-.49.2-1.03.66-1.61,1.41-.23.23-.41.43-.53.59-.04.04-.21.08-.53.12-.19,0-.35.02-.47.06.04-.74.24-1.38.62-1.9.37-.53.87-1.06,1.49-1.61ZM524.13,1135.14c.63-1.29,1.83-2.48,3.6-3.57,1.78-1.09,3.23-1.54,4.37-1.35-.51.7-1.92,1.81-4.25,3.31-2.32,1.5-3.56,2.04-3.72,1.61ZM540.3,1126.88c-1.25-.04-2.36-.59-3.34-1.64,0-.27.19-.61.59-1,.31-.35.49-.64.53-.88-.16-.2-.43-.27-.82-.23-1.68.51-3.24,1.25-4.69,2.23-.7.43-1.21.74-1.52.94-1.13.66-1.86.94-2.17.82-.31-.12-.55-.8-.7-2.05-.04-.23-.08-.57-.12-1,.23-.16.41-.21.53-.15s.23.21.35.44c.12.2.21.31.29.35.47.27.83.35,1.08.23.25-.12.3-.47.15-1.05,0-.04-.02-.12-.06-.23-.12-.39-.16-.67-.12-.85.04-.18.21-.3.53-.38,1.13-.27,2.12-.75,2.96-1.44.84-.68,1.77-1.59,2.78-2.72.27-.31.53-.49.76-.53h.12c.98-.16,1.56-.32,1.76-.5.19-.18.31-.71.35-1.61.04-.08.04-.23,0-.47-.04-.12-.08-.21-.12-.29-.63-.04-1.56.16-2.81.59-.86.27-1.61.48-2.26.62-.64.14-1.34.15-2.08.03,1.56-.55,3.63-1.52,6.21-2.93,1.88-.98,3.3-1.68,4.28-2.11.39-.16.9-.53,1.52-1.11.12-.08.19-.16.23-.23.66-.55,1.27-.97,1.82-1.26.55-.29,1.17-.44,1.88-.44.66,0,1.56-.31,2.7-.94.23-.12.41-.21.53-.29.31-.16.74-.47,1.29-.94.31-.27.86-.53,1.64-.76.31-.08.55-.16.7-.23.16-.04.41-.1.76-.18.74-.16,1.25-.41,1.52-.76l-.18-.12c-.35-.12-.58-.26-.67-.44-.1-.18.13-.4.67-.67.23-.12.55-.41.94-.88.35-.43.64-.7.88-.82.66-.43,1.33-1.17,1.99-2.23.74-1.21,1.69-2.24,2.84-3.08,1.15-.84,2.57-1.65,4.25-2.43.39-.12.59.06.59.53.04.27.11.46.21.56.1.1.28.05.56-.15.35-.23.86-.51,1.52-.82.19-.12.35-.2.47-.23.19-.12.53-.29,1-.53.43-.23.76-.41,1-.53,2.7-1.37,5.03-2.43,7-3.19,1.97-.76,4.03-1.24,6.18-1.44.08,0,.21-.02.41-.06.55-.04.94-.06,1.17-.06h.23c.31-.04.55-.02.7.06.16.08.25.27.29.59,0,.2-.14.37-.41.53-.39.23-.63.55-.7.94,3.16-1.44,6.25-1.54,9.26-.29.12.04.33-.02.64-.18.27-.12.47-.18.59-.18.74,0,1.23.33,1.46,1,.04.27-.01.45-.15.53-.14.08-.34.14-.62.18-.16,0-.27.02-.35.06-.7.16-1.08.47-1.14.94s.13.86.56,1.17c.47.31,1.11.86,1.93,1.64.78.74,1.47,1.32,2.08,1.73.6.41,1.32.69,2.14.85,1.37.31,2.21,1.01,2.52,2.08.31,1.08.06,2.22-.76,3.43-.31.47-.43.86-.35,1.17.23.9.18,1.52-.18,1.88s-1,.68-1.93,1c-.12.04-.2.08-.23.12-2.46.86-5,1.49-7.62,1.88-2.62.39-5.51.67-8.67.82-6.17,1.17-12.18,2.89-18.02,5.16-5.84,2.26-12.51,5.29-20.01,9.08-.86.7-1.67,1.22-2.43,1.55-.76.33-1.59.42-2.49.26-1.45-.27-2.85.31-4.22,1.76v-.18ZM532.8,1129.57c.23-.16.57-.45,1-.88.43-.43.78-.72,1.05-.88.27-.16.57-.14.88.06.04.04.25.08.64.12.55,0,.76.06.64.18-.39.51-1.04.94-1.93,1.29-.9.35-1.66.39-2.29.12ZM533.27,1132.44c-.08,0,.25-.35,1-1.05.74-.7,1.37-1.08,1.88-1.11.08,0,.35-.06.82-.18,1.44-.35,2.17-.49,2.17-.41-.31.31-1.29.92-2.93,1.82-1.64.9-2.62,1.21-2.93.94ZM557.05,1043.26c-.51.31-1.35.64-2.52,1-.74.23-1.29.43-1.64.59-.23.08-.61.21-1.11.41-2.31.94-4.18,1.8-5.62,2.58-1.45.78-2.75,1.82-3.93,3.11.7-1.91,2.3-3.63,4.8-5.16,3.94-2.42,8.07-4.12,12.36-5.1,5.86-1.33,12.15-.9,18.87,1.29.74.23,1.29.51,1.64.82.35.31.51.84.47,1.58,0,.55.22.93.67,1.14.45.21.93.23,1.44.03,1.8-.66,3.5-.45,5.1.64.43.31.96.47,1.58.47s1.37-.06,2.23-.18c.47-.08,1.19-.18,2.17-.29,1.02-.12,1.76-.21,2.23-.29.59-.08,1.09,0,1.52.21.43.21.92.56,1.46,1.03.47.43.84.72,1.11.88.43.23.47.84.12,1.82-.47,1.21-.9,2.2-1.29,2.96-.39.76-.94,1.51-1.64,2.26-.98.98-2.01,1.71-3.11,2.2-1.09.49-2.5.99-4.22,1.49-1.6.47-2.81.88-3.63,1.23-1.29.51-2.79.99-4.51,1.44-1.72.45-4.02.99-6.91,1.61-4.84,1.05-8.76,2.04-11.75,2.96-2.99.92-5.47,2.19-7.44,3.81-1.97,1.62-2.78,3.64-2.43,6.06.04.08.08.16.12.23.35,1.13.71,2.05,1.08,2.75.37.7.95,1.27,1.73,1.7.12.08.33.23.64.47.51.43.94.67,1.29.73s.78-.24,1.29-.91c.16-.2.49-.21,1-.06.51.16.94.39,1.29.7-.04.04-.12.1-.23.18-.78.62-1.49,1.14-2.14,1.55s-1.4.73-2.26.97c-.31.08-.92.12-1.82.12s-1.46.06-1.7.18c-.27.23-.25.51.06.82.35.39.43.7.23.94-.27.31-.7.39-1.29.23h-.18c-1.33-.27-2.34-.8-3.05-1.58-.35-.39-.64-.59-.88-.62-.23-.02-.74.11-1.52.38-.12.04-.2.08-.23.12-.27.04-.47.04-.59,0-.31-.2-.78-.45-1.41-.76-.9-.47-1.62-.88-2.17-1.23-.55-.35-1.04-.78-1.46-1.29-1.09-1.33-1.96-2.76-2.61-4.31-.64-1.54-1.26-3.39-1.85-5.54-.39-1.37-.56-2.7-.5-3.98s.24-2.89.56-4.8c.31-1.84.49-3.22.53-4.16.04-.59.48-1.59,1.32-3.02.84-1.43,1.51-2.24,2.02-2.43.08-.04,0,.27-.23.94-.23.67-.37,1.11-.41,1.35-.08.43.16.49.7.18,1.91-1.21,3.63-2.66,5.16-4.34,1.05-1.05,1.88-1.84,2.46-2.34,1.48-1.33,3.24-2.29,5.27-2.87,1.64-.51,4.12-1.31,7.44-2.4,1.17-.35,2.03-.62,2.58-.82.08,0,.16-.02.23-.06.43-.12.68-.33.76-.64-1.41-.27-2.7-.35-3.87-.23s-2.31.55-3.4,1.29ZM540.18,1126.94c.31,0,.74-.06,1.29-.18.78-.2,1.39-.25,1.82-.18.04.04.1.08.18.12.08.12.16.2.23.23-.47,1.13-1.31,1.68-2.52,1.64-.31,0-.52-.1-.62-.29-.1-.2-.17-.49-.21-.88-.04-.27-.06-.45-.06-.53l-.12.06ZM540.59,1075.43c-.35,2.31.57,4.38,2.75,6.21.23.12.51.1.82-.06.31-.23.33-.51.06-.82-1.76-1.68-2.97-3.46-3.63-5.33ZM544.69,1128.64c.16.47-.11.97-.79,1.49-.68.53-1.38.95-2.08,1.26-.27.16-.57.14-.88-.06-.27-.23-.27-.49,0-.76.27-.31.86-.71,1.76-1.2.9-.49,1.56-.73,1.99-.73ZM544.87,1085.92c.31.35.6.57.88.64-.78.04-1.33-.16-1.64-.59-.43-.35-.8-.57-1.11-.64.47-.08.83-.07,1.08.03.25.1.52.28.79.56ZM546.92,1127.87c.23-.55.54-1,.91-1.35.37-.35.85-.76,1.44-1.23.27-.2.47-.35.59-.47.35-.27.74-.23,1.17.12.51.43.57.9.18,1.41-1.17,1.44-2.6,1.95-4.28,1.52ZM551.37,1119.85c-.12.16-.2.27-.23.35.04.04.1.06.18.06.16.08.27.12.35.12.27-.08,1.12-.48,2.55-1.2,1.43-.72,2.12-1.16,2.08-1.32l-1.76.64c-1.88.7-2.87,1.03-2.99,1-.04.08-.1.2-.18.35ZM553.77,1122.01c.35.04.53.23.53.59.04.47-.16.92-.59,1.35-.43.43-.82.59-1.17.47-.12-.08-.23-.23-.35-.47-.08-.12-.14-.2-.18-.23.31-1.02.9-1.58,1.76-1.7ZM557.52,1100.33c-.63.16-1.37.7-2.23,1.64-.47.51-.9.92-1.29,1.23-.39.31-.88.51-1.46.59.59-1.25,1.13-2.05,1.64-2.4.51-.35,1.62-.7,3.34-1.05ZM556.76,1086.51c.31-.2.82-.24,1.52-.15.7.1,1.74.3,3.11.62,1.41.31,2.56.54,3.46.67.9.14,1.64.15,2.23.03-1.52.82-3.09,1.38-4.69,1.67-1.6.29-2.93.21-3.98-.26s-1.6-1.33-1.64-2.58ZM562.56,1084.05s-.12.08-.23.12c-.23.2-.43.31-.59.35-.16.04-.41.16-.76.35-.35.2-.66.31-.94.35-.27.04-.55-.06-.82-.29-.12-.23-.12-.53,0-.88.23-.31.47-.47.7-.47s.53.08.88.23c.39.16.68.23.88.23.12-.04.29-.04.53,0h.35ZM563.38,1084.46c1.13-.55,3.01.08,5.62,1.88-.31-.04-.96-.08-1.93-.12-2.97-.2-4.69-.43-5.16-.7l1.46-1.05ZM574.16,1094.65c1.88-.78,3.3-1.33,4.28-1.64.19-.04.33-.16.41-.35.08-.2.02-.45-.18-.76-1.09.67-2.87,1.37-5.33,2.11-1.6.43-2.93.86-3.98,1.29-1.05.43-2.09,1.04-3.11,1.82,1.33-.16,2.58-.43,3.75-.82,1.17-.39,2.56-.94,4.16-1.64ZM569.59,1042.74c.12,0,.27.02.47.06.55.12.94.02,1.17-.29-.55-.35-1.09-.27-1.64.23ZM570.82,1086.33c-.04-.2.33-.27,1.11-.23.55.04.88.04,1,0,.19-.12.85-.05,1.96.21,1.11.25,1.69.46,1.73.62,0,.16-.7.2-2.11.12-1.13-.08-1.78-.08-1.93,0-.2,0-.54-.08-1.03-.23-.49-.16-.73-.31-.73-.47ZM580.84,1086.8c-.43-.12-.68-.41-.76-.88-.04-.51.19-.78.7-.82.43,0,.66.27.7.82.08.51-.14.8-.64.88ZM584.24,1089.91c-.2,0-.47.08-.82.23-.2.2-.2.35,0,.47.16,0,.33-.04.53-.12.12-.04.19-.06.23-.06.31-.35.33-.53.06-.53ZM590.86,1105.32c-1.29-.39-2.44-.35-3.46.12,1.05.35,2.21.31,3.46-.12Z"/>
<path class="cls-6" d="M611.25,1099.98c-.39.04-.57-.18-.53-.64.04-.47.21-.98.5-1.52.29-.55.56-.88.79-1,.19.2.19.77,0,1.73-.2.96-.45,1.44-.76,1.44ZM624.97,1119.14c-1.99-.39-3.6-1.13-4.83-2.23-1.23-1.09-2.59-2.66-4.07-4.69-1.09-2.23-1.77-3.75-2.02-4.57-.25-.82-.44-2.01-.56-3.57,0-.2-.02-.35-.06-.47-.04-.7.31-1.39,1.05-2.05.23-.23.36-.4.38-.5.02-.1-.13-.22-.44-.38-.86-.35-1.38-.7-1.55-1.05s-.03-1.02.44-1.99c1.09-2.19,1.52-2.19,1.29,0-.08.7.04.88.35.53.31-.35.65-.93,1.03-1.73.37-.8.6-1.42.67-1.85.12-.7.09-1.12-.09-1.26-.18-.14-.44-.17-.79-.09-.35.08-.5,0-.44-.23s.48-.92,1.26-2.05c1.88-2.85,4.48-5.56,7.82-8.12,3.34-2.56,6.44-4.42,9.29-5.6,1.17-.47,2.69-.9,4.54-1.29,1.85-.39,3.23-.61,4.13-.64.27-.04.42-.12.44-.23.02-.12-.01-.27-.09-.47-.23-.39-.14-.59.29-.59,1.05.12,2.06.41,3.02.88.96.47,1.98,1.05,3.08,1.76.19.12.51.2.94.23.62.04,1.22.23,1.79.59.57.35,1.24,1.19,2.02,2.52.62.98,1.37,1.68,2.23,2.11.31.2.51.37.59.53.31.55.19.86-.38.94-.57.08-1.42.06-2.55-.06-1.02-.08-1.54-.06-1.58.06-.39.74-1.17,1.25-2.34,1.52-1.21.27-2.32.74-3.34,1.41-1.02.67-2.13,1.7-3.34,3.11-.27.31-.66.78-1.17,1.41-.98,1.21-1.83,2.19-2.55,2.93-.72.74-1.55,1.45-2.49,2.11-.04-.74.17-1.5.62-2.29.45-.78,1.08-1.68,1.9-2.7.19-.23.33-.39.41-.47-.51-.31-1.17-.1-1.99.64-.82.74-1.82,1.91-2.99,3.52l-.06.12c-1.76,2.38-1.95,3.22-.59,2.52.43-.23.6-.17.53.21-.08.37-.27.91-.59,1.61-.27.62-.36.93-.26.91.1-.02.6-.58,1.49-1.67.66-.78,1.03-1.11,1.08-1s-.01.62-.21,1.52c-.39,1.8-.59,3.39-.59,4.78s.49,2.49,1.46,3.31c1.05.82,2.43,1.06,4.13.73,1.7-.33,3.54-1,5.54-2.02-.12-2.38-.53-4.84-1.23-7.38-.2-.62-.24-1.16-.15-1.61.1-.45.32-.97.67-1.55.16-.27.31-.72.47-1.35.19-1.02.55-1.8,1.05-2.34.47.35,1.02,1.08,1.64,2.17.51.86.92,1.45,1.23,1.76.59-1.29,1.04-1.99,1.38-2.11.33-.12.79.31,1.38,1.29,2.19,3.98,4.24,7.39,6.15,10.22,1.91,2.83,3.83,5.11,5.74,6.83.12.12.43.41.94.88.98.82,1.67,1.5,2.08,2.05.41.55.34.92-.21,1.11-.66.2-1.04.45-1.11.76-.08.31-.02.72.18,1.23.23.62.27,1.07.12,1.35-.35.62-1.54.76-3.57.41-2.03-.35-3.98-.92-5.86-1.7-1.52-.62-3.59-1.56-6.21-2.81-.43-.2-1.29-1.15-2.58-2.87-.55.31-1.23.74-2.05,1.29.43.59.8.8,1.11.64.19-.04.35.06.47.29.35.62-1.09,1.58-4.34,2.87-3.24,1.29-5.43,2.07-6.56,2.34-1.8.35-3.62.49-5.48.41-1.86-.08-3.98-.31-6.36-.7l-.76-.12ZM617.93,1085.1c.47-1.33,1.43-2.13,2.87-2.4-.31.78-.65,1.36-1.03,1.73-.37.37-.99.6-1.85.67ZM620.69,1112.7v-.12c-.04-.16-.08-.27-.12-.35-.2-.12-.33-.06-.41.18-.04.16,0,.31.12.47.16.16.29.1.41-.18ZM627.72,1116.57c-.51-.2-1.02-.51-1.52-.94-.39-.35-.76-.58-1.11-.67-.35-.1-.94-.05-1.76.15.98.74,1.76,1.23,2.34,1.46s1.39.25,2.4.06l-.35-.06ZM631.7,1082.23c.23-.31.13-.36-.32-.15-.45.21-1.02.57-1.7,1.05-.68.49-1.18.89-1.49,1.2-.31.31-.23.39.23.23.66-.23,1.76-1.02,3.28-2.34ZM629.95,1100.16c0,.51.13.6.38.26.25-.33.44-.72.56-1.17.12-.45.02-.56-.29-.32-.31.2-.53.61-.64,1.23ZM631.64,1097.23c.43-.16.74-.5.94-1.03.19-.53-.02-.52-.64.03-.47.43-.57.76-.29,1ZM632.7,1103.79c.08.39.3.33.67-.18.37-.51.38-1.05.03-1.64-.27-.47-.46-.43-.56.12-.1.55-.15,1.11-.15,1.7ZM644.42,1115.28c-.74-.04-1.9.18-3.46.64-1.56.47-2.57.87-3.02,1.2-.45.33.22.36,2.02.09,2.38-.35,3.93-.94,4.63-1.76l-.18-.18ZM641.2,1089.55c.86-.7,1.74-1.58,2.64-2.64.9-1.05,1.35-1.74,1.35-2.05-1.02.39-2.09,1.16-3.22,2.31-1.13,1.15-1.54,1.88-1.23,2.2l.47.18Z"/>
<path class="cls-6" d="M694.34,1098.69c-.16,1.29-.43,2.98-.82,5.07-.39,2.09-.78,3.58-1.17,4.48-.35.9-.76,1.99-1.23,3.28-.55,1.49-1.05,2.75-1.52,3.81-.16.27-.23.61-.23,1,.08,2.5-.76,4.59-2.52,6.27-.47.62-.66,1.33-.59,2.11-.04.39-.06.66-.06.82-.04.16-.02.41.06.76.12.55.06.96-.18,1.23-.51-.16-.83-.43-.97-.82-.14-.39-.19-.98-.15-1.76-.23.27-.63.64-1.17,1.11-.7.47-1.11,1.02-1.23,1.64-.04.31-.14.78-.29,1.41-.16.74-.23,1.36-.23,1.85s.19.97.59,1.44c.04,0,.06.02.06.06l-.06-.12v.06c0,.2.06.53.18,1,.27.86.31,1.56.12,2.11-.39-.2-.68-.44-.88-.73-.2-.29-.37-.67-.53-1.14-.12-.31-.29-.78-.53-1.41-.59-1.72-1.15-2.99-1.7-3.81-.66-.94-.63-1.82.12-2.64.39-.43.53-1.08.41-1.93-.2-1.21-.68-1.31-1.46-.29-.2-.31-.29-.84-.29-1.58.04-.78-.1-1.33-.41-1.64-.31.08-.5.21-.56.38s-.05.42.03.73v.06c.04.2.1.47.18.82.12.62.18,1.15.18,1.58s-.18.86-.53,1.29c-.2.35-.14.68.18,1,.47.43.66.85.59,1.26-.08.41-.33.95-.76,1.61-.04.08-.08.16-.12.23-.39-.43-.64-.87-.73-1.32-.1-.45-.15-1.03-.15-1.73,0-.27-.02-.47-.06-.59,0-.43.02-1.05.06-1.88.04-.67.06-1.15.06-1.46-.04-.39-.2-.96-.47-1.7-.23-.67-.37-1.19-.41-1.58-.12-1.09-.41-2.15-.88-3.16-.23-.59-.43-1.09-.59-1.52-.7-2.58-.96-5.49-.76-8.73-.51-2.93-.74-5.94-.7-9.02-.04-2.15-.1-3.75-.18-4.8-.04-.74-.16-1.85-.35-3.34-.31-2.3-.45-4.06-.41-5.27,0-.78.02-1.95.06-3.52.04-3.55.12-6.51.23-8.88.12-2.36.33-4.7.64-7,.16-2.46.76-5.57,1.82-9.32s2.48-6.78,4.28-9.08c.16-.08.39-.18.7-.29.78-.27,1.31-.57,1.58-.88.43-.39.74-.29.94.29.04,0,.06.04.06.12.12.31.24.52.38.62.14.1.34.03.62-.21.78-.74,1.19-.59,1.23.47,0,.27.12.33.35.18h.06c.78-.31,1.24-.42,1.38-.32.14.1.13.54-.03,1.32-.08.51-.23,1.31-.47,2.4-.2.7-.33,1.25-.41,1.64v.18c-.2.67-.14,1.19.18,1.58.31-.39.53-1.02.64-1.88.16-.9.41-1.46.76-1.7.43-.35,1.21-.68,2.34-1,.51-.16.88-.27,1.11-.35.08,1.68.22,2.72.44,3.11.21.39.77.76,1.67,1.11.12-.27.1-.68-.06-1.23-.2-.7-.16-1.23.12-1.58.7.67,1.07,1.66,1.11,2.99.04,1.45.33,3.57.88,6.39.31,1.8.53,3.14.64,4.04.23,1.95.28,3.69.15,5.21-.14,1.52-.6,2.99-1.38,4.39-.04,0-.08.04-.12.12-.31.59-.41,1.04-.29,1.35.43,1.41.08,2.54-1.05,3.4-.2.12-.27.45-.23,1v.47c-.16,2.38-.29,4.18-.41,5.39-.08.74.12,1.27.59,1.58-.39.59-.64,1.2-.73,1.85-.1.64-.15,1.46-.15,2.43v1.7c-.04.16.1.43.41.82.04,0,.06.02.06.06.16.2.37.29.64.29.35.04.55-.18.59-.64.04-.59.21-1.44.53-2.58.27-.86.45-1.59.53-2.2.08-.61,0-1.22-.23-1.85-.08-.12-.31-.12-.7,0-.39.12-.64.12-.76,0,.86-.94,1.4-1.79,1.61-2.55.21-.76.34-1.75.38-2.96,0-.43.02-.76.06-1,.04-.94.18-2.32.41-4.16,0-.31.02-.57.06-.76v-.12c.04-.31.11-.56.21-.73.1-.18.32-.3.67-.38.19.23.29.64.29,1.23-.04.16-.06.27-.06.35v5.57c-.04.39,0,.68.15.88.14.2.46.21.97.06.59-.16.82.04.7.59-.2.27-.49.68-.88,1.23-.27.35-.49.62-.64.82-.39.98-.63,2.54-.7,4.69-.04,1.45-.12,2.52-.23,3.22-.04.16-.06.37-.06.64v.41c-.08,1.76-.25,3.93-.53,6.5ZM675.12,1071.27c.08-.51.18-1.25.29-2.23.51-3.95.9-6.93,1.17-8.96-.7.78-1.22,1.52-1.55,2.23-.33.7-.42,1.49-.26,2.34.27,1.41.23,2.68-.12,3.81-.31,1.09-.16,2.03.47,2.81ZM676.76,1109.01c0-.78-.03-1.28-.09-1.49-.06-.21-.24-.58-.56-1.08-.12.9.1,1.76.64,2.58ZM677.76,1111.53c.31,0,.49-.14.53-.41,0-.35-.2-.61-.59-.76-.31-.12-.45.02-.41.41.08.39.23.64.47.76ZM678.29,1115.04c-.23.55-.25,1.21-.06,1.99.23-.59.25-1.25.06-1.99ZM682.62,1132.44c.39-.51.7-.51.94,0,.04.23.04.39,0,.47-.2.04-.39-.06-.59-.29-.16-.16-.29-.25-.41-.29l.06.12ZM684.85,1079.53c-.16.2-.45.41-.88.64-.31.2-.54.38-.67.56-.14.18-.13.46.03.85.27.86.47,2.17.59,3.93.08.9.16,1.56.23,1.99.51-2.54.74-5.19.7-7.97ZM686.43,1059.14c-.35.55-.72,1.43-1.11,2.64-.31.98-.61,1.68-.88,2.11-.2.43-.14.84.18,1.23.59.7.9,1.52.94,2.46.04.27.06.47.06.59.43-1.29.69-2.63.79-4.01.1-1.39.11-3.06.03-5.01ZM687.13,1053.4c-.04-.16-.06-.27-.06-.35-.04.04-.08.08-.12.12-.12.08-.2.14-.23.18-.16.27-.08.43.23.47l.18-.18s.06-.08.06-.12-.02-.08-.06-.12ZM687.54,1104.91l.06.06c.04.23.16.31.35.23.19-.16.21-.39.06-.7,0-.04-.08-.1-.23-.18l-.06-.06c-.16.12-.22.33-.18.64ZM688.89,1091.37c.23-.59.37-1.09.41-1.52.04-.43-.1-.84-.41-1.23-.43.86-.43,1.78,0,2.75ZM689.18,1084.69l.06.06c.04-.39.1-1.02.18-1.88.04-.82.08-1.44.12-1.88h-.35v3.69ZM689.65,1109.18c.51-.74.84-1.7,1-2.87.04-.35.08-.61.12-.76.04-.35-.16-.57-.59-.64-.35-.04-.57.16-.64.59-.16,1.13-.12,2.36.12,3.69ZM691.94,1094.53c-.04-.31-.2-.47-.47-.47-.39.04-.55.33-.47.88.08.39.23.53.47.41.31-.16.47-.43.47-.82ZM698.15,1102.09c1.05.74,1.74,1.37,2.05,1.88.08.16-.39.18-1.41.06-.98-.12-1.41-.1-1.29.06,1.21,1.64,2.79,3.32,4.75,5.04.35-.16.73-.1,1.14.18.41.27.69.61.85,1,.31-.08.96.21,1.93.88.43.31.74.55.94.7.23.12.43.21.59.29.12,0,.31.2.59.59h.06l.23.47c.39,0,.68.05.88.15.19.1.37.24.53.44.23.27.45.49.64.64.19.16.31.33.35.53,1.8.78,3.39,1.22,4.78,1.32,1.39.1,2.45-.24,3.19-1.03.23-.16.62-.41,1.17-.76,1.41-.9,2.5-1.48,3.28-1.76,2.38-.82,3.81-2.97,4.28-6.45.47-3.48.4-7.19-.21-11.13-.61-3.95-1.34-7.38-2.2-10.31v-.06c-.04-.66.16-.94.59-.82.35.12.6.15.73.09.14-.06.21-.26.21-.62,0-.43-.08-.92-.23-1.46-.16-.55-.29-.8-.41-.76-.63.23-1.03.25-1.2.06-.18-.2-.28-.53-.32-1-.04-.27-.08-.45-.12-.53-.23-.66-.45-1.7-.64-3.11-.27-1.56-.57-2.73-.88-3.52-.66-1.64-1.48-2.67-2.43-3.08-.96-.41-2.41-.44-4.37-.09-1.29.27-2.38.8-3.28,1.58-1.13.82-2.13,1.41-2.99,1.76-.27,0-.56.23-.85.67-.29.45-.48.93-.56,1.44-.16.31-.3.48-.44.5-.14.02-.4-.03-.79-.15-.43-.16-.8-.27-1.11-.35-.7-.16-1.48,0-2.34.44-.86.45-1.43.97-1.7,1.55.7.12,1.41.31,2.11.59.9.35,1.71.83,2.43,1.44.72.61,1.18,1.24,1.38,1.9-.04.04-.08.08-.12.12-.16.12-.27.2-.35.23-.98.43-1.49.76-1.55,1s.28.7,1.03,1.41c1.09,1.05,1.82,2.23,2.17,3.52.16.59.53,1.43,1.11,2.52.23.43.41.74.53.94,1.52,3.09,2.42,6.35,2.7,9.79.16,2.27-1.35,3.18-4.51,2.75-1.76-.27-5.04-1.21-9.84-2.81-1.99-.7-3.09-1.05-3.28-1.05.16.43.4.81.73,1.14.33.33.83.73,1.49,1.2ZM700.26,1081.17c-.35.43-.84.76-1.46,1-.35.35-.96.59-1.82.7.23-.31.67-.71,1.32-1.2.64-.49,1.18-.77,1.61-.85.39-.08.51.04.35.35ZM701.72,1077.6c-.04.08-.14.18-.29.29-1.68,1.64-2.85,2.44-3.52,2.4,0-.62.42-1.22,1.26-1.79.84-.57,1.69-.87,2.55-.91ZM707.41,1072.74c.39-.74,1.11-1.19,2.17-1.35-.27.43-.58.73-.91.91-.33.18-.75.32-1.26.44ZM710.34,1082.46c.04.31-.08.45-.35.41-.39-.04-.62-.23-.67-.59s.07-.51.38-.47c.31,0,.53.21.64.64ZM711.8,1086.45c-.23.04-.41.06-.53.06-.35-.08-.57-.29-.64-.64-.04-.08-.02-.14.06-.18.23-.16.47-.1.7.18.04.04.08.08.12.12.08.08.18.23.29.47h.06-.06ZM711.98,1086.51c.43-.23.7-.23.82,0,.08.08.18.2.29.35.7.98,1.25,1.82,1.64,2.52.39.7.62,1.49.7,2.34-.7-.51-1.41-1.31-2.11-2.4-.7-1.09-1.15-2.03-1.35-2.81ZM723.05,1108.07c.35.59.47,1.05.35,1.41s-.39.78-.82,1.29c-.16.2-.27.33-.35.41-.23-1.09.04-2.13.82-3.11Z"/>
<path class="cls-6" d="M745.55,1077.83c.51.16,1.42.47,2.72.94,1.31.47,2.04.84,2.2,1.11.31.55.68.62,1.11.23.35-.31.33-.72-.06-1.23-.31-.43-1.27-1.07-2.87-1.93-1.48-.78-2.38-1.37-2.7-1.76-.39-.59.06-1.04,1.35-1.38,1.29-.33,3.02-.49,5.19-.47,2.17.02,4.31.23,6.42.62,1.09.2,3.73,1.31,7.91,3.34.55.27,1.03.68,1.44,1.23.41.55.87,1.27,1.38,2.17.51.86.88,1.46,1.11,1.82.23.31.59.76,1.05,1.35.9,1.09,1.61,2.03,2.14,2.81.53.78.97,1.64,1.32,2.58.78,2.11,1.12,4.25,1.03,6.42-.1,2.17-.48,4.48-1.14,6.94-.94,3.48-3.38,6.5-7.32,9.08-1.13.74-2.99,1.64-5.57,2.7-.23.12-.43.2-.59.23-2.03.86-4.04,1.21-6.04,1.05-.59-.04-1.43-.04-2.52,0-.9.04-1.58.06-2.05.06-.2-.04-.51-.06-.94-.06-1.41.04-2.38-.08-2.93-.35-.59-.27-1.45-.62-2.58-1.05-2.19-.9-3.95-1.74-5.27-2.52-1.33-.78-2.48-1.82-3.46-3.11-3.55-4.73-5.21-9.41-4.98-14.06,0-.08.06-.18.18-.29.12-.08.2-.16.23-.23.47,1.52.88,2.75,1.23,3.69-.23-.59-.32-1.17-.26-1.76s.21-1.33.44-2.23c.23-.9.38-1.64.44-2.23s-.03-1.19-.26-1.82c-.12-.35-.06-.73.18-1.14s.57-.73,1-.97c.12-.08.29.04.53.35.23.23.43.36.59.38.16.02.31-.21.47-.67.19-.43.59-1.02,1.17-1.76.08-.16.16-.27.23-.35.12-.2.29-.47.53-.82.31-.51.6-.91.85-1.2.25-.29.62-.54,1.08-.73,0,.16-.02.43-.06.82-.16.55-.08.61.23.18.31-.39.49-.64.53-.76.04-.12.02-.23-.06-.35-.08-.12-.14-.23-.18-.35.16-.98.84-2.03,2.05-3.16,1.21-1.13,2.38-1.58,3.52-1.35ZM737.76,1090.26c.04-.51-.08-.84-.35-1-.27-.08-.55,0-.82.23-.7.74-.72,1.39-.06,1.93.35.27.51.76.47,1.46-.12.82.16,1.13.82.94.74-.31.96-.82.64-1.52-.04-.12-.16-.25-.35-.41-.39-.43-.53-.82-.41-1.17,0-.12.02-.27.06-.47ZM738.4,1097.17s-.12-.04-.23-.12c-.2-.12-.35-.18-.47-.18-.39.08-.57.31-.53.7.16.51.49.64,1,.41.35-.08.43-.35.23-.82ZM742.8,1087.97c-.66.55-1.08,1.14-1.26,1.79s-.26,1.46-.26,2.43c-.04.98-.12,1.7-.23,2.17-.98,3.13-.27,5.82,2.11,8.09.27.23.62.64,1.05,1.23.39.43.68.76.88,1,.04.04.1.1.18.18.27.27.53.47.76.59s.53.12.88,0c-.08-.27-.33-.57-.76-.88-.35-.31-.6-.59-.73-.85-.14-.25-.11-.62.09-1.08,2.81,2.46,6.37,3.59,10.66,3.4,1.48-.08,2.7-1,3.63-2.75.62-1.17.57-2.15-.18-2.93-1.52-3.32-4.03-6.16-7.53-8.53-3.5-2.36-6.59-3.64-9.29-3.84ZM759.91,1113.75c1.64-.23,2.91-.59,3.81-1.08.9-.49,1.74-1.3,2.52-2.43-2.58.9-4.69,2.07-6.33,3.52ZM763.3,1079.65c-.08-.16-.18-.39-.29-.7-.35-.82-.68-1.42-1-1.79-.31-.37-.88-.63-1.7-.79.31.86.64,1.51,1,1.96.35.45.88.89,1.58,1.32l.29.18h.18l-.06-.18ZM766.76,1080.59c-.27.12-.33.27-.18.47.23.2.53.41.88.64.04.04.12,0,.23-.12.04-.08.08-.12.12-.12,0-.12-.15-.29-.44-.53s-.5-.35-.62-.35ZM789.5,1083.93c.51-.55.78-1.25.82-2.11,0-.16.08-.23.23-.23s.25.04.29.12c.08.16.25.27.53.35.23.12.4.23.5.32.1.1.11.28.03.56-.04.04-.06.08-.06.12-.23.62-.18.94.18.94.47,0,.94.31,1.41.94.23.35.45.6.64.73.19.14.47.15.82.03.66-.23,1.13-.08,1.41.47.27.51.6.59,1,.23.31-.27.31-.64,0-1.11-.2-.27-.47-.66-.82-1.17-.78-1.05-1.39-1.85-1.82-2.4-.39-.59-.48-1.05-.26-1.41.21-.35.67-.76,1.38-1.23.27-.16.47-.27.59-.35.62-.39,1.09-.59,1.41-.59s.68.12,1.11.35c.43.23.8.41,1.11.53,1.02.35.84-.72-.53-3.22-.08-.16-.12-.25-.12-.29-.59-1.21-.56-1.74.09-1.58.64.16,1.51.59,2.61,1.29.19.12.33.21.41.29.59.31,1.25.64,1.99,1,.82.31,1.45.62,1.9.94.45.31.97.74,1.55,1.29.55.51,1,.92,1.35,1.23,1.13.94,2.3,1.7,3.52,2.29.78.35,1.46.82,2.05,1.41s1.23,1.33,1.93,2.23c.19.27.51.68.94,1.23.82.98,1.47,1.83,1.96,2.55.49.72.89,1.51,1.2,2.37.7,1.91,1.01,3.87.91,5.86-.1,1.99-.44,4.1-1.03,6.33-.86,3.16-3.11,5.94-6.74,8.32-1.02.67-2.7,1.48-5.04,2.46-.23.08-.41.16-.53.23-1.88.74-3.73,1.05-5.57.94-.47-.04-1.21-.04-2.23,0-.82.04-1.45.06-1.88.06-.2-.04-.49-.06-.88-.06-1.29.04-2.19-.08-2.7-.35-.51-.2-1.29-.51-2.34-.94-1.99-.82-3.59-1.58-4.8-2.29-1.21-.7-2.27-1.64-3.16-2.81-3.24-4.34-4.77-8.63-4.57-12.89,0-.04.06-.12.18-.23.12-.08.19-.16.23-.23.43,1.37.8,2.5,1.11,3.4-.2-.55-.27-1.09-.23-1.64.04-.55.18-1.23.41-2.05.19-.78.32-1.44.38-1.99.06-.55-.01-1.11-.21-1.7-.16-.78.18-1.43,1-1.93.12-.04.29.08.53.35.19.23.36.35.5.35s.3-.2.5-.59c.16-.39.49-.94,1-1.64.12-.16.19-.25.23-.29.12-.2.27-.45.47-.76.35-.74.94-1.35,1.76-1.82.04.16.02.43-.06.82-.12.51-.02.55.29.12.27-.35.43-.58.47-.67.04-.1.02-.21-.06-.32-.08-.12-.14-.23-.18-.35.04-.47.33-1.05.88-1.76ZM786.45,1108.6c-.51-.39-.91-.85-1.2-1.38s-.6-1.22-.91-2.08c-.31-.82-.61-1.49-.88-2.02-.27-.53-.64-1.03-1.11-1.49.86,4.14,2.23,6.47,4.1,6.97ZM787.21,1096.53s-.04-.08-.12-.12c-.16-.16-.29-.23-.41-.23-.12-.04-.23,0-.32.09-.1.1-.15.23-.15.38.04.39.27.55.7.47.27,0,.37-.2.29-.59ZM787.8,1091.08c.12-.39.08-.68-.12-.88-.2-.08-.43-.06-.7.06-.63.47-.72.96-.29,1.46.23.31.27.72.12,1.23-.2.62-.04.92.47.88.66-.12.92-.49.76-1.11-.04-.08-.1-.2-.18-.35-.23-.39-.29-.72-.18-1,.04-.08.08-.18.12-.29ZM793.54,1112.7c-.7-.66-1.43-1.18-2.17-1.55-.74-.37-1.7-.77-2.87-1.2-.47-.2-.84-.33-1.11-.41.66.98,1.53,1.76,2.61,2.34,1.07.59,2.26.86,3.54.82ZM791.49,1088.5c-.66.35-1.12.78-1.38,1.29-.25.51-.48,1.17-.67,1.99-.2.82-.39,1.43-.59,1.82-1.33,2.5-1.19,4.9.41,7.21.19.27.43.68.7,1.23.23.47.43.82.59,1.05,0,.04.02.08.06.12.19.31.38.54.56.67.18.14.44.19.79.15-.04-.23-.22-.53-.53-.88-.23-.31-.39-.59-.47-.85-.08-.25,0-.56.23-.91,1.95,2.58,4.78,4.18,8.5,4.8,1.29.2,2.48-.35,3.57-1.64.27-.35.36-.67.26-.97-.1-.29-.3-.65-.62-1.08-.16-.2-.27-.35-.35-.47-2.77-4.45-6.47-8.96-11.07-13.54ZM798.29,1093.07c.82,1.41,1.59,2.57,2.31,3.49.72.92,1.59,1.69,2.61,2.31-1.13-1.99-2.77-3.93-4.92-5.8ZM798.81,1084.63l-.29-.12c.47.39,1.05,1,1.76,1.82.66.9,1.48,1.58,2.46,2.05-.63-1.05-1.18-1.84-1.67-2.34-.49-.51-1.24-.98-2.26-1.41ZM799.34,1089.38c0,.55.35,1.05,1.05,1.52.62.55,1.02.98,1.17,1.29.47,1.02,1.43,2.32,2.87,3.93.59.62,1.03.84,1.32.64.29-.2.26-.59-.09-1.17-1.05-1.48-2.29-2.7-3.69-3.63-.31-.74-.76-1.4-1.35-1.96-.59-.57-1.02-.77-1.29-.62ZM803.56,1090.14c.82.55,1.89,1.54,3.22,2.99.98,1.05,1.74,1.82,2.29,2.29-.7-1.52-1.57-2.78-2.61-3.78-1.04-1-2-1.49-2.9-1.49ZM806.78,1114.4c1.52-.23,2.69-.58,3.49-1.03.8-.45,1.57-1.18,2.31-2.2-2.34.82-4.28,1.9-5.8,3.22ZM809.95,1083.23c-.08-.16-.18-.37-.29-.64-.31-.74-.62-1.28-.91-1.61-.29-.33-.81-.58-1.55-.73.31.78.62,1.38.94,1.79.31.41.78.81,1.41,1.2l.29.18h.12v-.18ZM813.11,1084.1c-.31.08-.37.21-.18.41.19.2.45.41.76.64.04,0,.12-.06.23-.18.04-.04.08-.06.12-.06,0-.12-.14-.28-.41-.5-.27-.21-.45-.32-.53-.32Z"/>
<path class="cls-6"  d="M824.91,1102.03l.39-1.58c.35-1.41.68-2.54.98-3.4.31-.86.73-1.66,1.29-2.4.29-1.17.76-2.25,1.42-3.22.65-.98,1.56-2.13,2.73-3.46.87-1.02,1.51-1.8,1.92-2.34-.03.59-.13,1.08-.31,1.49s-.44.91-.79,1.49-.6,1.1-.76,1.55c-.16.45-.21.99-.15,1.61.49-.35.93-.88,1.31-1.58.79-1.56,1.69-2.73,2.71-3.52.38-.31.89-.8,1.53-1.46.67-.7,1.19-1.21,1.57-1.52,1.54-1.17,3.06-1.88,4.56-2.14,1.5-.25,3,.05,4.52.91l1.4.94c.15.12.26.2.35.23.32.27.51.46.57.56.06.1.04.19-.04.26-.41.16-1.05-.06-1.92-.64-1.4-.98-2.23-1.29-2.49-.94.09.08.23.18.44.29.41.27.7.53.87.76s.49.53.96.88c.15.08.26.16.35.23.49.35.49.72,0,1.11.17.31.51.57,1,.76.15.08.25.14.31.18.06.04.16.16.31.35.2.35.38.57.52.64.17.12.35.16.52.12.17-.04.38-.29.61-.76.03-.08.03-.25,0-.53-.03-.27-.03-.41,0-.41.26-.04.55.08.87.35.23.2.57.58,1,1.14.44.57.63.93.57,1.08l-.39.53c-.09.08-.35,0-.79-.23-.41-.2-.65-.27-.74-.23-.2.2-.38.33-.52.41-.41.23-.65.51-.74.82-.09.39-.05.75.11,1.08.16.33.41.69.76,1.08.2.23.99,1.04,2.36,2.4,1.69,1.68,2.65,2.66,2.88,2.93-.15.94-.73,1.04-1.75.29-1.02-.74-2.01-1.62-2.97-2.64l-.13-.12c-.29-.27-.74-.62-1.35-1.05-.61-.43-1.06-.8-1.35-1.11-.17-.16-.39-.41-.65-.76-.35-.47-.64-.76-.87-.88-.23-.12-.51,0-.83.35-.17.2-.38.14-.61-.18.03-.27.1-.45.22-.53.12-.08.29-.12.52-.12.09,0,.16-.02.22-.06h.04c.2,0,.36-.04.46-.12.1-.08.14-.25.11-.53-.09-.59-.39-.74-.92-.47-.47.27-.8.53-1,.76-.15.2-.39.51-.74.94-1.4,1.72-2.52,3.21-3.36,4.48-.84,1.27-1.56,2.69-2.14,4.25-.03.12-.1.31-.22.59-.29.59-.45,1.1-.48,1.55-.03.45.17.93.61,1.44.2.23.22.52.07.85-.16.33-.4.5-.72.5-.12,0-.28-.04-.48-.12-.32-.27-.64-.21-.96.18-.5.74-.79,1.58-.87,2.52-.06.31-.15.82-.26,1.52l.04-.06c.15.86.09,1.57-.15,2.14-.25.57-.63,1.22-1.16,1.96-.32.39-.55.68-.7.88-.12.23-.36.35-.74.35-.26.04-.49.12-.68.23-.19.12-.34.39-.46.82-.09-.47-.06-1.02.09-1.64.12-.47.15-.82.09-1.05.12.23.31.29.57.18.12-.08.2-.12.26-.12.7.04,1.09-.35,1.18-1.17.06-.51-.15-.88-.61-1.11-.81-.35-1.25-.02-1.31,1-.26.12-.61.35-1.05.7-.47.39-.84.62-1.13.7-.35.16-.65.15-.92-.03s-.41-.48-.44-.91c0-.23-.13-.43-.39-.59-.29-.2-.45-.45-.48-.76,0-.39-.06-.61-.17-.64-.12-.04-.28.02-.48.18-.2.16-.35.23-.44.23-.15-.04-.35-.08-.61-.12h-.17c-.12-.47-.35-.96-.7-1.46-.06-.04-.09-.08-.09-.12-.58-.86-.96-1.99-1.13-3.4s-.12-2.6.17-3.57ZM834.47,1085.74c-.03-.27-.03-.45,0-.53.12-.78.36-1.02.74-.7.15.12.2.24.17.38-.03.14-.12.32-.26.56-.03.04-.06.08-.09.12-.03.08-.15.23-.35.47-.09.12-.16.21-.22.29v-.59ZM836.56,1109.36c.49-.16.86-.59,1.09-1.29.2-.7.55-.98,1.05-.82-.29,1.21-.55,1.92-.79,2.14-.23.21-.67.21-1.31-.03h-.04ZM842.93,1098.52c-.03-.55.04-1.23.22-2.05.03-.12.06-.21.09-.29.76-.12,1.2-.03,1.33.26s.01.65-.35,1.08c-.36.43-.79.76-1.29,1ZM853.71,1092.83c-.52-.47-.92-.82-1.18-1.05-.23-.31-.22-.68.04-1.11.26-.31.48-.33.65-.06.09.12.23.29.44.53.29.31.5.62.63.91s.15.73.07,1.32c-.15-.12-.37-.29-.65-.53ZM855.63,1094.36c.29.23.51.43.65.59.67.74.96,1.19.87,1.35-.12.16-.35.1-.7-.18-.35-.27-.57-.51-.65-.7h-.04c-.23-.43-.32-.82-.26-1.17.03,0,.07.04.13.12ZM864.62,1096.94c.26-.12.39-.47.39-1.05-.12-1.6.41-2.36,1.57-2.29.7,0,1.06-.25,1.09-.76.06-.59.18-.91.37-.97.19-.06.46,0,.81.15.09.08.16.12.22.12.38.16.73.41,1.05.76.32.35.46.64.44.88-.52,1.21-2.15,2.87-4.89,4.98-.35.27-.55.45-.61.53-.85.82-1.99,1.49-3.43,1.99-1.44.51-2.38.53-2.81.06,1.6-1.91,3.53-3.38,5.8-4.39ZM870.29,1091.08c-.79-.78-.79-1.62,0-2.52.35-.47.73-.74,1.13-.82.55-.12,1.35-.27,2.4-.47.79-.12,1.38-.21,1.79-.29.58.27,1.47.68,2.66,1.23.09.08.16.12.22.12.17.7.49,1.17.96,1.41.17.16.29.25.35.29,1.05,1.05,1.83,2.15,2.36,3.28-.52-.2-1.15-.74-1.88-1.64-.03-.04-.07-.1-.13-.18-.23-.27-.44-.46-.61-.56-.17-.1-.41-.05-.7.15.17.16.41.39.7.7.58.59,1,1.05,1.27,1.41.15.23.28.35.41.35s.3-.04.5-.12c.17-.12.32-.16.44-.12.2.08.45.33.74.76.23.39.46.67.68.85s.5.24.85.21c-1.22-1.91-2.75-3.91-4.58-5.98-.52-.55-.98-.8-1.35-.76-.47-.74-.91-1.26-1.33-1.55-.42-.29-.91-.32-1.46-.09-.09-.08-.25-.2-.48-.35-.26-.16-.44-.31-.55-.47-.1-.16-.09-.37.02-.64.15-.39.34-.59.59-.59s.56.08.94.23c.09.04.15.08.17.12,2.24.86,4.35,2.6,6.33,5.21,1.92,2.54,4.41,6.04,7.46,10.49,1.02,1.52,2.34,4.02,3.97,7.5l1.18,2.46c.35.67.49,1.19.44,1.58-.06.39-.32.92-.79,1.58-.06.08-.13.18-.22.29-.15.31-.29.51-.44.59-.38.16-.48.51-.31,1.05.09.2.26.27.52.23h.44c.17.04.31.06.39.06-.32.74-.71,1.29-1.18,1.64-.47.35-1.08.68-1.83,1-.15.04-.25.08-.31.12-1.89.82-3.66.84-5.3.06-1.64-.78-3.28-2.13-4.91-4.04-2.09-2.54-3.97-5.21-5.63-8.03-.03-.08-.07-.16-.13-.23-.15-.27-.25-.49-.31-.64-.2-1.21-.55-2.32-1.03-3.34-.48-1.02-1.14-2.23-1.99-3.63-.38-.66-.65-1.15-.83-1.46-.03-.04-.07-.1-.13-.18-.32-.59-.53-1.09-.63-1.52-.1-.43-.04-.94.2-1.52-.06-.59-.21-1.22-.46-1.9-.25-.68-.46-1.12-.63-1.32ZM871.08,1090.2c.52.27,1.28.41,2.27.41.46.04.81.06,1.05.06-.64-.74-1.21-1.16-1.7-1.26-.5-.1-1.03.17-1.61.79ZM877.62,1105.55c-.12-.23-.22-.39-.31-.47-.23-.12-.32,0-.26.35.06.39.22.61.48.64.03,0,.07-.06.13-.18.06-.04.1-.08.13-.12-.06-.04-.12-.12-.17-.23ZM881.02,1110.53c-.12.12-.17.21-.17.29.06.27.23.45.52.53.03,0,.09-.06.17-.18,0-.04.01-.08.04-.12-.12-.27-.31-.45-.57-.53ZM884.82,1114.57c-.09-.08-.2-.21-.35-.41-.47-.59-.8-1-1-1.23-.26-.2-.5-.16-.7.12-.17.35-.12.64.17.88.58.43,1.21.64,1.88.64ZM886.09,1098.34c.03-.31,0-.58-.09-.79-.09-.21-.26-.48-.52-.79-.09-.08-.15-.14-.17-.18.15.78.42,1.35.83,1.7.26.78.59,1.45,1,1.99.41.55.96,1.17,1.66,1.88.67.62,1.15,1.13,1.44,1.52-.61-1.33-1.23-2.43-1.85-3.31-.63-.88-1.39-1.55-2.29-2.02ZM889.58,1116.98c-.41-.04-.65.16-.74.59-.06.2.06.29.35.29h.17c.35-.04.55-.2.61-.47-.06-.27-.19-.41-.39-.41ZM890.93,1105.37l.04.06c.26.74.49,1.32.7,1.73.2.41.51.81.92,1.2-.2-.78-.41-1.39-.63-1.82-.22-.43-.56-.82-1.03-1.17ZM892.37,1116.1c0,.08.09.16.26.23.32-.04.48-.23.48-.59.03-.04-.03-.1-.17-.18-.03-.04-.06-.06-.09-.06-.29.12-.45.31-.48.59Z"/>
<path class="cls-6" d="M917.52,1101.74c-.31.74-.37,1.33-.18,1.76.2.39.18.7-.06.94-.55.62-.88,1.28-1,1.96-.12.68-.14,1.55-.06,2.61.08.82.1,1.45.06,1.88v.41c-.12,1.05-.12,1.84,0,2.34.12.55.07.99-.15,1.32-.21.33-.58.69-1.08,1.08-.39.31-.67.55-.82.7-.2.27-.39.37-.59.29-.2-.08-.43-.25-.7-.53-.23-.27-.43-.45-.59-.53-.43.43-.71.91-.85,1.44-.14.53-.26,1.22-.38,2.08-.04.55-.1.98-.18,1.29-.2-.31-.45-.76-.76-1.35-.59-1.05-1.11-1.8-1.58-2.23-.31-.31-.59-.52-.82-.62-.23-.1-.53,0-.88.26-.43.31-.8.39-1.11.23-.31-.16-.61-.49-.88-1-.31-.59-.67-1.48-1.05-2.7-.12-.31-.2-.55-.23-.7,0-.08-.04-.2-.12-.35-.12-.43-.26-.76-.44-1s-.5-.35-.97-.35c-.23,0-.39-.15-.47-.44-.08-.29-.04-.48.12-.56.66-.23.99-.49.97-.76-.02-.27-.3-.61-.85-1-.39-.43-.43-.92-.12-1.46.31-.55.45-1.02.41-1.41-.04-.66-.08-1.64-.12-2.93-.08-2.03-.21-3.72-.38-5.07s-.56-2.7-1.14-4.07c-.43.55-.65,1.09-.67,1.64-.02.55.07,1.21.26,1.99,0,.08.02.16.06.23,0,.08.02.2.06.35.31,1.6.43,2.83.35,3.69-.43-.39-.72-.83-.88-1.32-.16-.49-.29-1.12-.41-1.9-.04-.27-.08-.47-.12-.59,0-.16-.02-.35-.06-.59-.2-1.09-.41-1.89-.64-2.4v-.12c-.2-.43-.38-.73-.56-.91s-.46-.18-.85-.03c-.23.08-.39.08-.47,0-.08-.08-.12-.23-.12-.47.04-.39-.14-.59-.53-.59-.47.04-.43-.41.12-1.35,0-.04.02-.1.06-.18.08-.12.14-.2.18-.23.43-.86.39-1.5-.12-1.93-.23-.2-.44-.25-.62-.18-.18.08-.38.21-.62.41-.12.12-.21.2-.29.23-.16.12-.41.29-.76.53-.08.04-.14.08-.18.12-.47-.51-.7-.99-.7-1.44s.2-1,.59-1.67c.66-1.21,1.89-2.85,3.69-4.92.27-.31.49-.57.64-.76.04-.08.14-.2.29-.35.35-.47.68-.79,1-.97.31-.18.74-.09,1.29.26.27.16.74-.08,1.41-.7.12-.16.21-.25.29-.29.47-.47.9-.73,1.29-.79.39-.06.9.11,1.52.5.2.08.45.21.76.41,1.6.9,2.91,1.45,3.93,1.64.04-.35-.02-.66-.18-.94-.16-.27-.39-.59-.7-.94-.55-.55-.84-1.03-.88-1.46,1.84.78,3.07,1.99,3.69,3.63.51,1.37,1.21,2.56,2.11,3.57.08.08.15.2.23.35.2.39.39.57.59.53.7-.08,1.17.04,1.41.35.23.31.41.8.53,1.46,0,.23.02.41.06.53.15.82.18,1.76.06,2.81-.04.7.25,1.45.88,2.23,1.41-2.81,3.42-4.63,6.04-5.45-.08.59-.57,1.5-1.46,2.75-.31.51-.53.84-.64,1-.43.43-.94,1.43-1.52,2.99-.39,1.09-.94,2.81-1.64,5.16-.31,1.02-.53,1.7-.64,2.05,0,.08-.04.23-.12.47ZM898.66,1082.64c-.74.31-1.26.64-1.55.97-.29.33-.42.83-.38,1.49.94-.59,1.58-1.41,1.93-2.46ZM904.28,1097.46c-.12-.55-.2-.96-.23-1.23,0,.16-.04.39-.12.7-.08.43-.1.78-.06,1.05.04.27.23.51.59.7-.04-.27-.1-.68-.18-1.23ZM914.36,1109c.15-.86.22-1.42.21-1.67-.02-.25-.19-.69-.5-1.32l-.06-.06c-.43.94-.31,1.95.35,3.05ZM914.18,1102.79c0,.16-.02.39-.06.7v.18c.08.12.14.18.18.18.2-.08.27-.29.23-.64v-.18c-.04-.23-.16-.31-.35-.23ZM917.64,1095.53c-.27-.04-.41.16-.41.59v.06c0,.39.14.53.41.41.12,0,.23-.1.35-.29l.06-.12c0-.39-.14-.61-.41-.64ZM922.33,1095c-.31,0-.51-.14-.59-.41-.12-.39.02-.62.41-.7.31-.04.51.08.59.35.08.39-.06.64-.41.76ZM921.74,1091.84c.27-.23.66-.59,1.17-1.05.43-.43.68-.51.76-.23.23.59-.02,1.13-.76,1.64-.51.35-.9.23-1.17-.35ZM949.87,1094.65c-.27.27-.72.47-1.35.59-.62.12-1-.14-1.11-.76-.12-.51-.32-.84-.62-1-.29-.16-.67-.25-1.14-.29-.35-.04-.61-.1-.76-.18-.2.23-.29.59-.29,1.05s-.12.78-.35.94c-.23-.08-.39-.27-.47-.59,0-.12-.02-.2-.06-.23,0-.04-.02-.12-.06-.23-.16-.7-.43-1.09-.82-1.17-.27-.08-.47-.05-.59.09-.12.14-.23.34-.35.62-.04.2-.08.35-.12.47-.39.62-.9.76-1.52.41-1.49-.86-2.78-1.15-3.87-.88-.55-.43-1.5-.92-2.87-1.46-1.21-.51-2.17-1-2.87-1.46s-1.27-1.17-1.7-2.11c-.16-.39-.4-.65-.73-.79-.33-.14-.77-.22-1.32-.26-.16-.04-.27-.06-.35-.06h-.29c-.82-.12-1.52-.1-2.11.06.51-.9,1.09-1.56,1.76-1.99-.2-.2-.47-.21-.82-.06-.31.2-.57.14-.76-.18-.12-.31.04-.62.47-.94.12-.12.21-.21.29-.29.39-.39.83-.65,1.32-.79.49-.14,1.1-.21,1.85-.21.7-.04,1.23-.1,1.58-.18.08-.04.23-.04.47,0,.35.04.61,0,.76-.12.15-.12.33-.31.53-.59.23-.31.45-.55.64-.7.2-.16.47-.21.82-.18.82.16,2.07.16,3.75,0,1.09-.12,2.01-.18,2.75-.18s1.46.14,2.17.41c1.41.51,2.59,1,3.54,1.46.96.47,1.81,1.08,2.55,1.82.2.23.55.51,1.05.82.59.43,1.03.81,1.35,1.14.31.33.51.77.59,1.32.12.43.31.49.59.18.12-.08.21-.14.29-.18.43-.27.66-.06.7.64.04.78-.12,1.81-.47,3.08-.35,1.27-1.04,2.26-2.05,2.96ZM931.76,1085.16c.15-.08.41-.2.76-.35,1.21-.55,2.13-.94,2.75-1.17v-.12s.06-.08.06-.12c-1.17-.12-1.96-.08-2.34.12-.39.2-.8.74-1.23,1.64Z"/>
<path class="cls-6" d="M952.45,1105.08c-.39.04-.57-.18-.53-.64.04-.47.21-.98.5-1.52.29-.55.56-.88.79-1,.2.2.2.77,0,1.73-.2.96-.45,1.44-.76,1.44ZM966.16,1124.24c-1.99-.39-3.6-1.13-4.83-2.23-1.23-1.09-2.59-2.66-4.07-4.69-1.09-2.23-1.77-3.75-2.02-4.57-.26-.82-.44-2.01-.56-3.57,0-.2-.02-.35-.06-.47-.04-.7.31-1.39,1.05-2.05.23-.23.36-.4.38-.5.02-.1-.13-.22-.44-.38-.86-.35-1.38-.7-1.55-1.05s-.03-1.02.44-1.99c1.09-2.19,1.52-2.19,1.29,0-.08.7.04.88.35.53.31-.35.65-.93,1.03-1.73.37-.8.59-1.42.67-1.85.12-.7.09-1.12-.09-1.26-.18-.14-.44-.17-.79-.09-.35.08-.5,0-.44-.23s.48-.92,1.26-2.05c1.88-2.85,4.48-5.56,7.82-8.12,3.34-2.56,6.44-4.42,9.29-5.6,1.17-.47,2.69-.9,4.54-1.29,1.85-.39,3.23-.61,4.13-.64.27-.04.42-.12.44-.23.02-.12,0-.27-.09-.47-.23-.39-.14-.59.29-.59,1.05.12,2.06.41,3.02.88.96.47,1.98,1.05,3.08,1.76.2.12.51.2.94.23.62.04,1.22.23,1.79.59.56.35,1.24,1.19,2.02,2.52.62.98,1.37,1.68,2.23,2.11.31.2.51.37.59.53.31.55.18.86-.38.94-.57.08-1.42.06-2.55-.06-1.02-.08-1.54-.06-1.58.06-.39.74-1.17,1.25-2.34,1.52-1.21.27-2.32.74-3.34,1.41-1.02.67-2.13,1.7-3.34,3.11-.27.31-.67.78-1.17,1.41-.98,1.21-1.83,2.19-2.55,2.93-.72.74-1.55,1.45-2.49,2.11-.04-.74.17-1.5.62-2.29.45-.78,1.08-1.68,1.9-2.7.2-.23.33-.39.41-.47-.51-.31-1.17-.1-1.99.64-.82.74-1.82,1.91-2.99,3.52l-.06.12c-1.76,2.38-1.96,3.22-.59,2.52.43-.23.61-.17.53.21-.08.37-.27.91-.59,1.61-.27.62-.36.93-.26.91.1-.02.59-.58,1.49-1.67.66-.78,1.03-1.11,1.08-1s0,.62-.21,1.52c-.39,1.8-.59,3.39-.59,4.78s.49,2.49,1.46,3.31c1.05.82,2.43,1.06,4.13.73,1.7-.33,3.54-1,5.54-2.02-.12-2.38-.53-4.84-1.23-7.38-.2-.62-.24-1.16-.15-1.61.1-.45.32-.97.67-1.55.15-.27.31-.72.47-1.35.2-1.02.55-1.8,1.05-2.34.47.35,1.02,1.08,1.64,2.17.51.86.92,1.45,1.23,1.76.59-1.29,1.04-1.99,1.38-2.11.33-.12.79.31,1.38,1.29,2.19,3.98,4.24,7.39,6.15,10.22,1.91,2.83,3.83,5.11,5.74,6.83.12.12.43.41.94.88.97.82,1.67,1.5,2.08,2.05.41.55.34.92-.21,1.11-.67.2-1.04.45-1.11.76-.08.31-.02.72.18,1.23.23.62.27,1.07.12,1.35-.35.62-1.54.76-3.57.41-2.03-.35-3.98-.92-5.86-1.7-1.52-.62-3.6-1.56-6.21-2.81-.43-.2-1.29-1.15-2.58-2.87-.55.31-1.23.74-2.05,1.29.43.59.8.8,1.11.64.2-.04.35.06.47.29.35.62-1.09,1.58-4.34,2.87-3.24,1.29-5.43,2.07-6.56,2.34-1.8.35-3.62.49-5.48.41-1.86-.08-3.98-.31-6.36-.7l-.76-.12ZM959.13,1090.19c.47-1.33,1.43-2.13,2.87-2.4-.31.78-.65,1.36-1.03,1.73-.37.37-.99.6-1.85.67ZM961.88,1117.79v-.12c-.04-.16-.08-.27-.12-.35-.2-.12-.33-.06-.41.18-.04.16,0,.31.12.47.15.16.29.1.41-.18ZM968.91,1121.66c-.51-.2-1.02-.51-1.52-.94-.39-.35-.76-.58-1.11-.67-.35-.1-.94-.05-1.76.15.97.74,1.76,1.23,2.34,1.46s1.38.25,2.4.06l-.35-.06ZM972.9,1087.32c.23-.31.12-.36-.32-.15-.45.21-1.02.57-1.7,1.05-.68.49-1.18.89-1.49,1.2-.31.31-.23.39.23.23.66-.23,1.76-1.02,3.28-2.34ZM971.14,1105.25c0,.51.12.6.38.26.25-.33.44-.72.56-1.17.12-.45.02-.56-.29-.32-.31.2-.53.61-.64,1.23ZM972.84,1102.32c.43-.16.74-.5.94-1.03.2-.53-.02-.52-.64.03-.47.43-.57.76-.29,1ZM973.89,1108.89c.08.39.3.33.67-.18.37-.51.38-1.05.03-1.64-.27-.47-.46-.43-.56.12-.1.55-.15,1.11-.15,1.7ZM985.61,1120.37c-.74-.04-1.9.18-3.46.64-1.56.47-2.57.87-3.02,1.2-.45.33.22.36,2.02.09,2.38-.35,3.93-.94,4.63-1.76l-.18-.18ZM982.39,1094.65c.86-.7,1.74-1.58,2.64-2.64.9-1.05,1.35-1.74,1.35-2.05-1.02.39-2.09,1.16-3.22,2.31-1.13,1.15-1.54,1.88-1.23,2.2l.47.18Z"/>
<path class="cls-6" d="M1024.16,1058.09l-.18,1.76c-.12,1.68-.37,2.85-.76,3.52-.39.67-1.33.78-2.81.35-1.49-.43-3.83-1.72-7.03-3.87-.51-.31-.98-.7-1.41-1.17l-1.93-5.57c.23-.51.25-1.13.06-1.88-.16-.62-.23-1.17-.23-1.64,0-.39-.16-.66-.47-.82.35-2.19,1.18-4.1,2.49-5.74,1.31-1.64,3.02-2.67,5.13-3.11,3.24-.74,5.98-.64,8.2.29.04,0,.37.29,1,.88.55.51.84.78.88.82-.12.16-.67-.02-1.64-.53-.51-.23-.74-.31-.7-.23,0,.39.18.64.53.76.35.23.64.47.88.7.2.12.51.25.94.41.97.47,2.19,1.35,3.63,2.64.97,1.76,1.38,3.6,1.2,5.54s-.85,3.51-2.02,4.72c-1.17,1.21-2.7,1.76-4.57,1.64-.7-.04-1.09.14-1.17.53ZM1028.68,1109.24h-.53c-.2.04-.55.04-1.05,0-.43-.04-.77-.03-1.03.03-.26.06-.4.24-.44.56-.08.35,0,.8.26,1.35.25.55.62.96,1.08,1.23.04.04.1.14.18.29v.18c-.23.31-.7.62-1.41.94-.59.23-1,.45-1.23.64.04.35.31.68.82,1l.53.35c.43.51.53.98.29,1.41-.04.04-.08.12-.12.23-.16.27-.31.46-.47.56-.16.1-.39,0-.7-.26-.2-.16-.34-.18-.44-.09-.1.1-.21.26-.32.5-.04.08-.06.14-.06.18-.2.39-.45.55-.76.47-1.33-.2-2.09.35-2.29,1.64-.04.23-.04.59,0,1.05v.76c0,.39-.13.64-.38.76-.26.12-.56.14-.91.06-.08,0-.2-.02-.35-.06-.39,0-.67-.06-.82-.18-.16-.12-.14-.41.06-.88.15-.31.15-.55,0-.7-.67-.82-.97-1.64-.91-2.46s.3-1.84.73-3.05c.15-.43.27-.74.35-.94.23-.74.15-1.19-.23-1.35-.55-.16-.94.08-1.17.7-.08.16-.16.39-.23.7-.2.59-.35,1-.47,1.23,0,.04-.02.06-.06.06-.12.35-.26.57-.41.64-.16.08-.43.02-.82-.18-.35-.2-.62-.15-.79.15s-.29.65-.32,1.08c0,.23-.02.55-.06.94-.04,1.44-.2,2.5-.47,3.16,0,.04-.02.08-.06.12-.12.39-.35.59-.7.59-.08-.67.02-1.66.29-2.99.23-.94.35-1.66.35-2.17,0-.23.02-.57.06-1,0-1.09.05-2,.15-2.72.1-.72.32-1.42.67-2.08.12-.43.1-.76-.06-1-.47-.16-.74-.38-.82-.67-.08-.29-.1-.69-.06-1.2.04-.23.06-.39.06-.47,0-1.05.02-2.64.06-4.75.08-7.77.14-13.59.18-17.46.04-.7.1-1.76.18-3.16.15-2.93.14-5.14-.06-6.62-.12-.94.21-1.89.97-2.87.76-.98,1.59-1.52,2.49-1.64.78-.04,1.5-.29,2.17-.76.62-.47,1.12-.65,1.49-.56.37.1.83.5,1.38,1.2.04.04.1.12.18.23.2.31.37.47.53.47,1.05.08,1.5.64,1.35,1.7,0,.27.11.47.32.59.21.12.4.08.56-.12.62-.94,1.09-.84,1.41.29.08.27.18.67.29,1.17.35,1.17.59,2.15.7,2.93.12.78.08,1.6-.12,2.46-.16.59-.12,1.46.12,2.64.2.94.29,1.66.29,2.17-.04.04-.06.12-.06.23-.08,1.49,0,2.56.23,3.22.23.12.51.06.82-.18.35-.31.7-.41,1.05-.29.12.39.14.98.06,1.76-.04.7-.02,1.23.06,1.58-.55.23-.9.12-1.05-.35,0-.04-.02-.12-.06-.23-.12-.35-.24-.59-.38-.7-.14-.12-.36-.08-.67.12-.23.12-.35.26-.35.44s.06.4.18.67c.04.12.08.21.12.29.04.27.12.43.23.47.94.39,1.49.9,1.67,1.52.18.62.21,1.49.09,2.58-.08.43-.12.74-.12.94s-.02.51-.06.94c-.12,1.29-.16,2.27-.12,2.93v.12c.12.62,0,1.13-.35,1.52-.43.2-.74.1-.94-.29-.2-.27-.35-.43-.47-.47-.08,0-.26-.02-.53-.06h-.23c.12.43.06,1.04-.18,1.82-.16.62-.23,1.14-.23,1.55s.18.85.53,1.32c.2-.2.45-.57.76-1.11.31-.51.61-.9.88-1.17.27-.27.66-.41,1.17-.41.23.67.31,1.24.23,1.73-.08.49-.41.93-1,1.32-.16.12-.35.39-.59.82-.08.23-.16.39-.23.47l.12-.12ZM1013.38,1056.03s.06.02.06.06c.9,1.17,1.85,2.26,2.84,3.25s1.67,1.06,2.02.21c.12-.43-.04-.62-.47-.59-.59-.12-1-.33-1.23-.64l-2.17-2.17c-.35-.59-.7-.9-1.05-.94-.35-.04-.35.23,0,.82ZM1016.84,1125.64c-.04.12-.1.31-.18.59-.12.39-.23.7-.35.94s-.33.37-.64.41c-.7.16-1-.31-.88-1.41.08-.55.21-.97.38-1.26s.52-.42,1.03-.38c.51.08.72.45.64,1.11ZM1019.83,1119.55s.08-.08.12-.12c.08-.12.12-.2.12-.23,0-.08-.08-.16-.23-.23l-.06-.06-.06.06c-.12.16-.18.25-.18.29-.04.23.06.33.29.29ZM1025.81,1048.01c-2.31-1.05-3.82-1.25-4.54-.59-.72.67-.77,1.49-.15,2.49.62,1,1.56,1.49,2.81,1.49.23.04.35.47.35,1.29.04.47.08.82.12,1.05.78.27,1.4,0,1.85-.85.45-.84.62-1.81.53-2.9-.1-1.09-.42-1.76-.97-1.99ZM1022.23,1123.07h-.18c0-.12-.02-.31-.06-.59-.08-.39-.11-.72-.09-1,.02-.27.17-.53.44-.76.12-.04.25,0,.41.12.23.27.33.52.29.73-.04.21-.16.46-.35.73-.2.31-.29.57-.29.76h-.18ZM1026.39,1085.98l-.06-.12c-.08-.2-.16-.31-.23-.35-.27-.12-.45-.04-.53.23-.12.47,0,.72.35.76.23.08.39-.1.47-.53ZM1026.45,1089.96c-.12-.31-.31-.45-.59-.41-.27.12-.35.41-.23.88.08.31.23.43.47.35.31-.16.43-.43.35-.82ZM1029.85,1071.86c-.39-.78-.86-1.02-1.41-.7-.47.35-.61.78-.41,1.29.39.7.7,1.88.94,3.52.27,1.64.59,2.89.94,3.75.86-1.37,1.23-2.65,1.11-3.84-.12-1.19-.51-2.53-1.17-4.01ZM1028.62,1109.36s.1-.06.18-.06l.53-.18c.43-.08.7.02.82.29.12.39.02.68-.29.88-.43.27-.76.18-1-.29-.04-.16-.1-.37-.18-.64v-.12l-.06.12ZM1029.32,1088.03c-.39,0-.61-.29-.64-.88-.04-.86.29-1.35,1-1.46.43.04.59.27.47.7,0,.23.02.39.06.47.04.82-.26,1.21-.88,1.17Z"/>
<path class="cls-6" d="M1037,1092.19c.12-.59.49-1.35,1.11-2.29.59-.86.97-1.58,1.17-2.17.39.67.61,1.18.64,1.55.04.37-.16.73-.59,1.08-1.05.82-1.84,1.43-2.34,1.82ZM1063.77,1092.54c-.39-.23-.62-.47-.7-.7.31-.35.66-.56,1.05-.62.39-.06.88-.07,1.46-.03.23.04.41.06.53.06.59.04,1.44.25,2.58.64.82.27,1.51.47,2.08.59.56.12,1.16.12,1.79,0-.08.35-.21.58-.38.67-.18.1-.4.17-.67.21-.39.08-.64.21-.76.41,2.03-.08,4.22.16,6.56.7-.12.23-.33.39-.64.47-.27.04-.43.14-.47.29-.04.23.06.33.29.29.7-.16,1.37-.21,1.99-.18h.06c.47,0,.76.06.88.18s.04.39-.23.82c-.08.2.15.41.7.64.59.27.89.6.91.97.02.37-.19.69-.62.97-.31.23-.7.64-1.17,1.23-.51.59-.98,1.03-1.41,1.32-.43.29-1,.36-1.7.21-.31-.04-.68-.23-1.11-.59-.51-.43-.96-.62-1.35-.59.23-.27.48-.42.73-.44.25-.02.58,0,.97.09.55.12.94.14,1.17.06.08-.04.18-.06.29-.06.2-.04.32-.09.38-.15s.03-.22-.09-.5c-.04-.08-.06-.21-.06-.41.08-.35-.12-.53-.59-.53-.12,0-.29.02-.53.06-.2.04-.37.06-.53.06-.94.08-2.32.37-4.16.88-1.56.39-2.73.64-3.52.76-.2.04-.18.23.06.59.66.08,1.66,0,2.99-.23,1.29-.2,2.26-.27,2.93-.23v.18c0,.43-.06.75-.18.97-.12.21-.37.36-.76.44-.12,0-.33.04-.64.12-.39.08-.68.14-.88.18-.67,0-1.64.04-2.93.12-3.28.2-5.74.27-7.38.23-.16,0-.41-.02-.76-.06-3.01-.08-5.52-.23-7.53-.47-2.01-.23-3.99-.7-5.95-1.41-.67-.23-1.19-.49-1.58-.76-1.13-.74-2.15-1.19-3.05-1.35-1.52-.23-2.62-1.35-3.28-3.34-.35-1.09-.1-1.89.76-2.4.47-.27.94-.88,1.41-1.82.27-.55.49-.92.64-1.11.23-.35.27-.74.12-1.17-.74-1.84-.41-3.24,1-4.22.82-.51,2.07-1.33,3.75-2.46,2.46-1.64,4.54-2.96,6.24-3.96s3.51-1.81,5.42-2.43c1.41-.51,3.52-1.11,6.33-1.82.31-.04.53-.08.64-.12,2.77-.7,6.13-1.44,10.08-2.23.15-.04.35-.1.59-.18.66-.2,1.19-.23,1.58-.12.39.12.66.57.82,1.35.08.31.45.49,1.11.53.35.04.61.1.76.18.04,0,.14.02.29.06.31.04.49.16.53.35.08.27-.04.61-.35,1-.2.23-.29.41-.29.53.04.2.25.27.64.23.35-.04.59-.02.7.06.2.2.43.53.7,1,.12.2.21.33.29.41-.16.27-.51.55-1.05.82-.27.12-.47.23-.59.35-.04.04-.1.08-.18.12-.27.2-.48.39-.62.59-.14.2-.15.45-.03.76.2.47.62.68,1.29.64.2,0,.47-.02.82-.06.23-.04.41-.06.53-.06-.16.35-.35.59-.59.7s-.53.21-.88.29c-.16.04-.27.08-.35.12-.08,0-.16.02-.23.06-.55.12-.82.31-.82.59-.04.51-.19.86-.44,1.05-.26.2-.64.35-1.14.47-.35.08-.62.16-.82.23-1.88.86-4.75,1.99-8.61,3.4-3.16,1.13-5.51,2.01-7.03,2.64l-.53.18c-.86.35-1.49.76-1.88,1.23.23.04.55.04.94,0,.43-.08.77-.1,1.03-.06.25.04.5.21.73.53-.43.2-1.11.29-2.05.29-.62,0-1.14.05-1.55.15-.41.1-.83.3-1.26.62.66.23,1.33.38,1.99.44.66.06,1.48.07,2.46.03,1.33-.04,2.3,0,2.93.12.43.04,1.09.1,1.99.18.86.08,1.5.14,1.93.18-.12-.04-.31-.1-.59-.18-.74-.27-1.36-.45-1.85-.53-.49-.08-1.01.02-1.55.29-.04-.23-.23-.43-.59-.59ZM1052.99,1121.07c-2.15.08-3.75.1-4.8.06-.47.04-1.15-.06-2.05-.29-.12,0-.2-.02-.23-.06-.43-.08-.67-.29-.7-.64-.04-.47,0-.7.12-.7.35-.08.56-.23.64-.44.08-.21.12-.52.12-.91s.06-.71.18-.97c.12-.25.37-.46.76-.62,1.68-.55,4.14-1.54,7.38-2.99,1.17-.51,2.05-.9,2.64-1.17,2.23-.94,4.31-1.63,6.27-2.08,1.95-.45,4.51-.95,7.68-1.49.9-.16,1.58-.29,2.05-.41,3.12-.55,5.57-1.05,7.32-1.52.27-.08.8-.18,1.58-.29,1.68-.27,2.78-.62,3.31-1.05.53-.43-.03-1.19-1.67-2.29.43-.16,1.55-.06,3.37.29s2.7.9,2.67,1.64c0,.04-.02.14-.06.29-.23.67-.23,1.05,0,1.17.47.23.75.48.85.73.1.25-.05.58-.44.97-.47.62-.41,1.25.18,1.88.12.08.33.16.64.23.47.08.64.21.53.41-.16.31-.23.8-.23,1.46.12.7-.04,1.27-.47,1.7-.55.39-1.29,1.08-2.23,2.05-1.21,1.29-2.21,2.17-2.99,2.64-2.19,1.21-4.24,1.56-6.15,1.05-.04-.04-.12-.06-.23-.06-.35-.16-.61-.2-.76-.12-.74.23-1.86.35-3.34.35-.74,0-1.29.02-1.64.06-1.13.12-2.87.39-5.21.82-.16.04-.27.06-.35.06-.51.12-1.25.27-2.23.47-1.91.43-3.52.72-4.8.88-1.29.16-2.6.14-3.93-.06-.82-.12-1.43-.49-1.82-1.11,1.13.39,1.85.57,2.14.53.29-.04.58-.39.85-1.05-.67-.08-1.56.08-2.7.47-.16.04-.26.08-.29.12h-1.93ZM1050.3,1120.14c.2-.12.33-.2.41-.23.08-.04.14-.06.18-.06s.04,0,0,0c-.04-.04-.08-.06-.12-.06-.31-.2-.8-.21-1.46-.06-.08.04-.14.06-.18.06-.08,0-.2.06-.35.18-.08.08-.16.14-.23.18.35.31.65.45.91.41.25-.04.54-.18.85-.41ZM1050.77,1116.68c.31.04.72-.08,1.23-.35.27-.16.51-.27.7-.35-.9-.12-1.54.12-1.93.7ZM1055.22,1100.39c.23-.04.61.04,1.11.23.47.16.88.25,1.23.29.35.04.76-.1,1.23-.41-1.37-.55-2.56-.59-3.57-.12ZM1061.02,1076.19c-.12-.04-.21-.04-.29,0h-.23c-.23-.04-.37.06-.41.29h.06c.51,0,.86-.08,1.05-.23-.04,0-.1-.02-.18-.06ZM1063.42,1112.64c.31-.12.55-.2.7-.23-.9-.23-1.46-.04-1.7.59-.74-.2-1.41-.1-1.99.29.47.12,1.05.04,1.76-.23.08-.04.14-.06.18-.06l1.05-.35ZM1085.45,1115.86c-.51.31-1.21.74-2.11,1.29l-1.41.88c1.17-.2,1.9-.38,2.2-.56s.73-.71,1.32-1.61ZM1082.29,1097.99c.23-.31.49-.53.76-.64.27-.12.62-.2,1.05-.23.47,0,.8-.06,1-.18-.47.74-.9,1.23-1.29,1.46-.39.23-.9.1-1.52-.41Z"/>
</g>
</svg>
