<?xml version="1.0" encoding="UTF-8"?>
<svg viewBox="420 230 680 850" xmlns="http://www.w3.org/2000/svg">
<defs>
<style>.cls-1{
        fill: #fff;
	stroke: #000;
     }

      .cls-3 {
        font-family: BradleyDJR-Regular, 'Bradley DJR';
        font-size: 220px;
	fill: #fff;
	stroke: #000;
      }

      .cls-2, .cls-4 {
        stroke-miterlimit: 10;
        stroke-width: 6px;
	stroke: #fff;
	fill: #fff;
      }
      .cls-5 {
	fill: #fff;
	stroke: #000;
      }
      .cls-6 {
	fill: #fff;
	stroke:#000;
      }</style>
</defs>
<polygon class="cls-2" points="839.69 841.54 845.9 842.39 850.27 850.15 855.31 864.96 870.61 874.89 870.61 891.35 877.33 906.31 877.33 916.9 865.23 920.42 860.19 936.65 863.21 940.04 863.21 945.97 872.12 950.06 877.33 946.11 890.6 945.68 900.85 932.7 893.79 843.37 889.93 831.94 879.85 823.62 878.67 815.43 873.63 806.12 845.73 810.21 827.59 831.38 831.12 841.68"/>
<polygon class="cls-2" points="739.94 797.75 704.94 784.21 681.6 767.02 664.73 759.5 655.76 690.43 653.96 678.06 657.39 674.71 657.87 665.82 661.15 666.19 664.05 656.3 666.91 657.28 667.56 650.93 683.48 652.52 686.99 659.55 691.52 663.15 697.24 684.09 690.79 691.26 696.18 711.55 703.15 723.33 705.92 738.72 724.32 744.18 737.69 743.61 758.03 784.34"/>
<path d="M737.68,741.63c-.2.52-13.95,17.5-13.95,17.5l-10.25,35.42-5.55,14.39v30.9l3.02,27.94-5.04,37.25-23.69,29.21,27.73,8.04,44.36,11.85,77.13-12.28,13.11.42-21.68-25.4-2.52-11.01,2.52-31.33,14.12-14.39,10.59-12.28-1.68-5.5-5.88.42-7.56,5.08,24.7-32.17,14.12-9.31,6.05,5.84,2.52-6.69-30.75-18.63-111.41-45.3Z"/>
<polygon class="cls-4" points="750.9 904.9 807.14 910.07 820.89 908.21 820.36 905.89 822.75 876.22 755.72 867.46 710.83 868.75 705.99 904.53"/>
<polygon class="cls-4" points="741.6 874.89 740.93 881.1 758.97 882.42 760.31 875.36"/>
<polygon class="cls-4" points="739.7 890.04 739.7 897.47 757.06 898.22 758.18 890.69"/>
<polygon class="cls-1" points="761.32 876.11 784.62 877.43 820.36 883.26 820.36 890.04 785.07 884.96 760.31 882.42"/>
<polygon class="cls-1" points="710.57 875.64 723.01 874.89 740.93 875.27 740.93 880.53 727.49 880.53 709.09 881.64"/>
<polygon class="cls-1" points="708.44 891.82 723.46 890.6 739.14 890.6 739.14 896.53 726.03 895.4 707.55 897.09"/>
<polygon class="cls-1" points="758.97 891.35 783.05 892.58 819.69 898.79 819.69 904.52 784.06 899.07 757.23 897.09"/>
<polygon class="cls-1" points="671.39 979.51 667.7 971.43 685.22 942.85 733.18 954.19 727.11 961.17 703.24 975.23 705.71 979.51"/>
<path d="m686.64 946.27 41.02 9.7-2.49 2.87-20.89 12.3-5.13 3.02 1.36 2.36h-27.2l-2.23-4.88 15.55-25.37m-2.83-6.84-19.49 31.8 5.15 11.29h41.45l-3.58-6.21 21.73-12.79 9.63-11.1-54.89-12.98z"/>
<polygon class="cls-1" points="821.24 988.62 812.73 977.33 793.08 963.27 787.41 954.83 835.06 949.42 851.77 983.85 842.53 989.63"/>
<path d="m833.29 952.64 14.61 30.09-6.16 3.86-18.95-0.9-7.38-9.79-0.55-0.73-0.75-0.53-18.84-13.48-2.62-3.89 40.63-4.61m3.55-6.46-54.67 6.21 8.74 12.98 19.72 14.11 9.07 12.04 23.64 1.13 12.32-7.71-18.82-38.76z"/>
<polygon class="cls-5" points="666.99 983.64 714.72 983.64 720.54 1003.8 716.29 1001.1 712.7 1003.8 712.48 1014.7 706.2 1033.1 714.94 1046.1 715.84 1061 701.5 1063 699.03 1060 690.97 1064.6 648.62 1063.6 646.16 1053.1 666.55 1048.4 683.35 1034.8 674.61 1001.9 669.01 1003.6 666.55 993.99"/>
<polygon class="cls-5" points="815.1 987.97 818.9 993.62 844.89 994.37 858.34 986.28 853.86 976.68 874.69 994.37 870.44 1000.4 877.38 1015.6 882.76 1038.6 892.39 1058.5 892.39 1066.1 853.74 1066.1 853.74 1058 860.35 1049.7 863.49 1042.9 834.36 1013.9 829.43 1008.5 823.83 1013.8 823.16 1006 813.53 994.37"/>
<polygon class="cls-5" points="925.56 825.59 902.48 833.12 883.88 864.92 881.86 902.36 894.86 928.33 912.34 933.59 936.76 919.11 950.2 885.61 951.1 858.14 940.34 833.12"/>
<polygon class="cls-5" points="870.61 878.84 881.86 876.11 879.85 901.61 889.03 920.61 877.33 916.9 877.33 906.31 870.61 891.35"/>
<polygon class="cls-1" points="922.87 867.46 914.35 870 910.1 879.59 912.08 890.04 920.63 893.44 928.92 888.77 931.16 881.33 929.36 871.88"/>
<polygon class="cls-1" points="886.12 871.5 948.63 885.24 947.29 888.77 886.12 874.89"/>
<polygon class="cls-1" points="930.26 831.61 908.75 929.64 910.1 930.58 932.28 831.61"/>
<polygon points="668.06 684.8 652.83 743.29 646.88 751.26 655.6 768.73 672.07 754.61 669.91 746.42 682.96 690.38 676.3 684.6"/>
<polygon class="cls-5" points="681.51 645.46 684.94 644.8 691.66 656.21 708.25 572.91 703.33 569.05 696.91 572.24"/>
<polygon class="cls-5" points="696.9 564.68 681.62 567.66 668.51 580.05 669.66 595.45 659.44 583.94 656.22 558.85 667.88 540.03 689.41 525.96 680.92 538.58 683.06 549.92 693.68 553.67 700.81 551.39 706.62 540.94 708.35 528.31 723.1 508.16 720.59 529.79 715.34 542.38 713.83 551.43 727.35 551.43 740.52 543.2 745.95 531.47 743.13 522.78 754.63 535.35 758.88 549.42 753.29 568.38 739.13 585.71 724.99 591.48 732.71 578.82 729.32 567.47 717.17 562.17 710.05 565.71 711.98 569.58 704.43 567.24 696.96 570.33"/>
<polygon class="cls-4" points="790.19 641.26 767.57 637.26 772.9 650.57 738.96 690.82 721.1 678.51 714.35 697.43 683.08 721.1 708.36 723.76 690.06 744.05 685.41 758.35 709.36 746.05 702.37 775.65 714.68 813.91 725.99 779.98 728.65 825.55 741.96 852.85 777.55 846.18 798.84 827.22 788.53 848.51 827.12 847.17 888.25 808.25 871.36 839.52 930.91 814.57 944.88 788.96 933.16 753.03 954.86 753.7 934.57 735.4 896.65 747.04 888.66 734.07 882.68 687.16 911.28 681.51 895.32 666.87 877.02 664.21 889.99 653.56 870.37 649.57 848.74 649.91 824.38 661.22 805.5 638.59 788.86 625.29 781.88 627.28"/>
<polygon class="cls-5" points="764.58 650.57 733.64 682.51 721.1 669.53 719.67 656.56 767.24 597.68 781.88 576.72 792.54 572.73 816.48 546.45 853.4 527.49 895.32 527.49 926.92 540.79 958.19 567.65 960.52 571.4 975.16 571.06 990.46 569.4 981.14 584.7 981.48 600.67 990.46 614.64 968.5 616.31 967.84 656.23 961.52 680.51 951.87 667.87 942.22 724.42 922.59 735.73 897.31 739.07 890.66 691.16 920.27 685.17 928.25 655.89 929.58 635.6 887 610.98 862.72 602 855.06 630.94 826.46 649.57 814.48 627.62 837.77 597.34 788.2 591.69 759.92 635.6"/>
<polygon class="cls-6" points="788.86 600.17 792.54 618.14 816.31 619.13 820.63 614.64"/>
<polygon class="cls-6" points="867.71 624.12 865.88 627.28 891.99 646.41 920.76 633.28 911.28 629.11"/>
<polygon class="cls-6" points="821.88 608.24 809.16 596.01 813.4 596.01 824.87 608.24"/>
<polygon class="cls-6" points="867.54 617.97 867.54 620.96 897.98 619.47 890.99 615.47"/>
<polygon class="cls-6" points="795.85 573.56 784.21 561.92 790.03 542.95 808.32 530.98 814.81 530.98 839.43 548.44"/>
<polygon class="cls-2" points="779.46 555.13 766.32 525.03 768.31 491.93 790.12 464.15 817.38 449.01 859.8 453.34 817.71 471.47 800.75 502.9 809.4 525.03 784.21 537.63"/>
<polygon class="cls-2" points="1000.8 567.74 990.46 584.7 990.46 596.01 1000.8 612.98 1045.7 593.02 1076.6 547.45 1076.6 518.84 1055 498.88 1054.3 521.16 1033.5 552.27"/>
<polygon class="cls-1" points="772.23 667.37 774.1 685.71 767.62 713.53 802.54 729.37 870.41 736.23 874.9 707.91 865.42 676.48 849.95 672.24 816.89 677.6 788.07 670.24 772.23 661.26"/>
<polygon points="823.79 681.84 812.98 688.83 805 696.31 805 700.3 815.48 701.97 844.25 707.46 865.88 719.27 868.7 706.13 865.21 694.81 853.65 689.66 846.08 689.33 844.52 693.57 844.02 695.56 845.21 698.25 842.96 701.49 838.78 700.99 835.79 697.81 836.16 694.81 838.47 693.57 840.03 689.45 840.03 687.08"/>
<polygon points="776.47 707.91 802.67 719.27 840.72 726.13 868.16 725.25 840.72 728 797.31 720.39"/>
<polygon points="783.71 680.22 789.07 676.35 821.76 680.84 859.06 691.32 870.16 696.56 859.8 693.69 821.26 682.46 790.94 678.6"/>
<text class="cls-3" transform="translate(565.89 595.95) rotate(-57.2)"><tspan x="0" y="0">V</tspan></text>
<text class="cls-3" transform="translate(618.1 519.01) rotate(-46.4)"><tspan x="0" y="0">i</tspan></text>
<text class="cls-3" transform="translate(640.33 493.05) rotate(-37.51)"><tspan x="0" y="0">k</tspan></text>
<text class="cls-3" transform="translate(693.54 452.98) rotate(-29.12)"><tspan x="0" y="0">’</tspan></text>
<text class="cls-3" transform="translate(726.12 433.63) rotate(-20.78)"><tspan x="0" y="0">I</tspan></text>
<text class="cls-3" transform="translate(778.13 410.98) rotate(-8.24)"><tspan x="0" y="0">N</tspan></text>
<text class="cls-3" transform="translate(867.71 397.7) rotate(6.16)"><tspan x="0" y="0">S</tspan></text>
<text class="cls-3" transform="translate(937.45 401.1) rotate(20.58)"><tspan x="0" y="0">A</tspan></text>
</svg>
